{
.appVersion = "3337";
.formatVersion = 3;
axes = (
{
default = 400;
name = Weight;
tag = wght;
}
);
classes = (
{
automatic = 1;

glyphs = (
{
glyphname = A;
kernLeft = A;
kernRight = A;
lastChange = "2025-01-07 22:23:43 +0000";
layers = (
{
layerId = m01;
shapes = (
{
closed = 1;
nodes = (
(447,242,l),
(157,242,l),
(133,182,l),
(471,182,l)
);
},
{
closed = 1;
nodes = (
(595,0,l),
(337,660,l),
(273,660,l),
(14,0,l),
(84,0,l),
(311,582,l),
(298,582,l),
(525,0,l)
);
}
);
width = 609;
},
{
layerId = "4DE8B86A-429B-4593-9BC8-49866BB1A430";
shapes = (
{
closed = 1;
nodes = (
(447,243,l),
(117,243,l),
(109,221,l),
(456,221,l)
);
},
{
closed = 1;
nodes = (
(555,0,l),
(297,660,l),
(270,660,l),
(11,0,l),
(36,0,l),
(287,642,l),
(279,642,l),
(530,0,l)
);
}
);
width = 567;
},
{
layerId = "0BE882A4-FC89-4865-8E81-154FB3EE808B";
shapes = (
{
closed = 1;
nodes = (
(445,245,l),
(214,245,l),
(164,121,l),
(494,121,l)
);
},
{
closed = 1;
nodes = (
(654,0,l),
(396,660,l),
(273,660,l),
(14,0,l),
(158,0,l),
(350,492,l),
(320,492,l),
(511,0,l)
);
}
);
width = 667;
},
{
layerId = "9C2CFEA6-85BB-4338-BB26-B1BEA40B5780";
shapes = (
{
closed = 1;
nodes = (
(445,246,l),
(223,246,l),
(170,110,l),
(497,110,l)
);
},
{
closed = 1;
nodes = (
(665,0,l),
(407,660,l),
(273,660,l),
(14,0,l),
(170,0,l),
(356,477,l),
(323,477,l),
(509,0,l)
);
}
);
width = 676;
}
);
note = A;
unicode = 65;
},
{
glyphname = AE;
kernLeft = AE;
kernRight = AE;
lastChange = "2025-01-07 22:23:43 +0000";
layers = (
{
layerId = m01;
shapes = (
{
closed = 1;
nodes = (
(111,0,l),
(274,210,l),
(541,210,l),
(541,0,l),
(968,0,l),
(968,60,l),
(607,60,l),
(607,304,l),
(898,304,l),
(898,364,l),
(607,364,l),
(607,600,l),
(968,600,l),
(968,660,l),
(548,660,l),
(28,0,l)
);
},
{
closed = 1;
nodes = (
(541,550,l),
(541,271,l),
(323,271,l)
);
}
);
width = 1039;
},
{
layerId = "4DE8B86A-429B-4593-9BC8-49866BB1A430";
shapes = (
{
closed = 1;
nodes = (
(65,-1,l),
(239,224,l),
(551,224,l),
(551,0,l),
(958,0,l),
(958,18,l),
(571,18,l),
(571,326,l),
(883,326,l),
(883,343,l),
(571,343,l),
(571,642,l),
(958,642,l),
(958,660,l),
(556,660,l),
(38,-1,l)
);
},
{
closed = 1;
nodes = (
(551,619,l),
(551,243,l),
(255,243,l)
);
}
);
width = 1039;
},
{
layerId = "0BE882A4-FC89-4865-8E81-154FB3EE808B";
shapes = (
{
closed = 1;
nodes = (
(181,1,l),
(327,188,l),
(526,188,l),
(526,0,l),
(983,0,l),
(983,124,l),
(661,124,l),
(661,271,l),
(921,271,l),
(921,395,l),
(661,395,l),
(661,536,l),
(983,536,l),
(983,660,l),
(537,660,l),
(12,1,l)
);
},
{
closed = 1;
nodes = (
(526,446,l),
(526,313,l),
(425,313,l)
);
}
);
width = 1039;
},
{
layerId = "9C2CFEA6-85BB-4338-BB26-B1BEA40B5780";
shapes = (
{
closed = 1;
nodes = (
(192,1,l),
(335,185,l),
(523,185,l),
(523,0,l),
(986,0,l),
(986,134,l),
(670,134,l),
(670,265,l),
(924,265,l),
(924,401,l),
(670,401,l),
(670,526,l),
(986,526,l),
(986,660,l),
(535,660,l),
(9,1,l)
);
},
{
closed = 1;
nodes = (
(523,429,l),
(523,321,l),
(442,321,l)
);
}
);
width = 1039;
}
);
note = AE;
unicode = 198;
},
{
glyphname = B;
kernRight = B;
lastChange = "2025-01-07 22:29:37 +0000";
layers = (
{
layerId = m01;
shapes = (
{
closed = 1;
nodes = (
(528,331,o),
(435,388,o),
(348,388,cs),
(141,388,l),
(141,372,l),
(291,372,ls),
(407,372,o),
(446,422,o),
(446,505,cs),
(446,589,o),
(380,660,o),
(291,660,cs),
(75,660,l),
(75,0,l),
(311,0,ls),
(439,0,o),
(528,84,o),
(528,206,cs)
);
},
{
closed = 1;
nodes = (
(141,60,l),
(141,351,l),
(314,351,ls),
(411,351,o),
(462,288,o),
(462,206,cs),
(462,118,o),
(407,60,o),
(292,60,cs)
);
},
{
closed = 1;
nodes = (
(141,411,l),
(141,600,l),
(291,600,ls),
(340,600,o),
(380,559,o),
(380,505,cs),
(380,448,o),
(357,411,o),
(293,411,cs)
);
}
);
width = 556;
},
{
layerId = "4DE8B86A-429B-4593-9BC8-49866BB1A430";
shapes = (
{
closed = 1;
nodes = (
(509,316,o),
(428,389,o),
(332,389,cs),
(92,390,l),
(92,376,l),
(262,376,ls),
(387,377,o),
(422,445,o),
(422,517,cs),
(422,593,o),
(362,660,o),
(279,660,cs),
(73,660,l),
(73,0,l),
(297,0,ls),
(424,0,o),
(509,76,o),
(509,198,cs)
);
},
{
closed = 1;
nodes = (
(96,21,l),
(96,374,l),
(321,374,ls),
(430,374,o),
(484,289,o),
(484,198,cs),
(484,94,o),
(424,22,o),
(284,22,cs)
);
},
{
closed = 1;
nodes = (
(94,393,l),
(94,641,l),
(279,641,ls),
(344,639,o),
(399,586,o),
(399,517,cs),
(399,453,o),
(372,393,o),
(289,393,cs)
);
}
);
width = 535;
},
{
layerId = "0BE882A4-FC89-4865-8E81-154FB3EE808B";
shapes = (
{
closed = 1;
nodes = (
(555,323,o),
(460,388,o),
(370,388,cs),
(210,388,l),
(210,363,l),
(332,363,ls),
(432,363,o),
(482,419,o),
(482,503,cs),
(482,598,o),
(404,660,o),
(306,660,cs),
(75,660,l),
(75,0,l),
(329,0,ls),
(451,0,o),
(555,83,o),
(555,219,cs)
);
},
{
closed = 1;
nodes = (
(210,124,l),
(210,313,l),
(302,313,ls),
(376,313,o),
(421,272,o),
(421,219,cs),
(421,156,o),
(377,124,o),
(302,124,cs)
);
},
{
closed = 1;
nodes = (
(210,438,l),
(210,536,l),
(297,536,ls),
(328,536,o),
(347,515,o),
(347,487,cs),
(347,458,o),
(327,438,o),
(298,438,cs)
);
}
);
width = 583;
},
{
layerId = "9C2CFEA6-85BB-4338-BB26-B1BEA40B5780";
shapes = (
{
closed = 1;
nodes = (
(560,334,o),
(452,388,o),
(373,388,cs),
(221,388,l),
(221,361,l),
(338,361,ls),
(437,361,o),
(488,417,o),
(488,501,cs),
(488,597,o),
(408,660,o),
(309,660,cs),
(75,660,l),
(75,0,l),
(332,0,ls),
(458,0,o),
(560,70,o),
(560,221,cs)
);
},
{
closed = 1;
nodes = (
(221,134,l),
(221,307,l),
(300,307,ls),
(369,305,o),
(414,270,o),
(414,221,cs),
(414,162,o),
(372,135,o),
(304,135,cs)
);
},
{
closed = 1;
nodes = (
(221,443,l),
(221,526,l),
(298,526,l),
(325,524,o),
(341,510,o),
(341,484,cs),
(341,460,o),
(323,443,o),
(299,443,cs)
);
}
);
width = 588;
}
);
note = B;
unicode = 66;
},
{
glyphname = C;
kernLeft = C;
kernRight = C;
lastChange = "2025-01-07 22:30:17 +0000";
layers = (
{
layerId = m01;
shapes = (
{
closed = 1;
nodes = (
(456,-2,o),
(547,49,o),
(606,130,c),
(553,166,l),
(502,97,o),
(435,58,o),
(356,58,cs),
(224,58,o),
(108,177,o),
(108,330,cs),
(108,477,o),
(218,601,o),
(356,601,cs),
(429,601,o),
(494,567,o),
(543,506,c),
(594,545,l),
(535,618,o),
(451,661,o),
(356,661,cs),
(171,661,o),
(42,502,o),
(42,330,cs),
(42,153,o),
(179,-2,o),
(356,-2,cs)
);
}
);
width = 635;
},
{
layerId = "4DE8B86A-429B-4593-9BC8-49866BB1A430";
shapes = (
{
closed = 1;
nodes = (
(444,-2,o),
(524,37,o),
(588,110,c),
(568,125,l),
(513,58,o),
(436,20,o),
(352,20,cs),
(186,20,o),
(64,166,o),
(64,330,cs),
(64,486,o),
(177,639,o),
(352,639,cs),
(429,639,o),
(503,606,o),
(556,549,c),
(574,563,l),
(511,628,o),
(439,661,o),
(352,661,cs),
(165,661,o),
(40,498,o),
(40,330,cs),
(40,153,o),
(176,-2,o),
(352,-2,cs)
);
}
);
width = 613;
},
{
layerId = "0BE882A4-FC89-4865-8E81-154FB3EE808B";
shapes = (
{
closed = 1;
nodes = (
(473,-2,o),
(583,67,o),
(634,162,c),
(525,234,l),
(482,159,o),
(429,123,o),
(360,123,cs),
(261,123,o),
(177,215,o),
(177,330,cs),
(177,443,o),
(259,537,o),
(360,537,cs),
(425,537,o),
(476,504,o),
(519,437,c),
(623,515,l),
(572,599,o),
(467,661,o),
(360,661,cs),
(172,661,o),
(42,501,o),
(42,330,cs),
(42,152,o),
(182,-2,o),
(360,-2,cs)
);
}
);
width = 662;
},
{
layerId = "9C2CFEA6-85BB-4338-BB26-B1BEA40B5780";
shapes = (
{
closed = 1;
nodes = (
(476,-2,o),
(589,71,o),
(638,168,c),
(520,245,l),
(479,170,o),
(428,133,o),
(361,133,cs),
(273,133,o),
(189,213,o),
(189,330,cs),
(189,435,o),
(263,526,o),
(361,526,cs),
(424,526,o),
(474,493,o),
(515,425,c),
(628,510,l),
(579,597,o),
(469,661,o),
(361,661,cs),
(170,661,o),
(42,499,o),
(42,330,cs),
(42,152,o),
(181,-2,o),
(361,-2,cs)
);
}
);
width = 667;
}
);
note = C;
unicode = 67;
},
{
glyphname = D;
kernRight = D;
lastChange = "2025-01-07 22:30:34 +0000";
layers = (
{
layerId = m01;
shapes = (
{
closed = 1;
nodes = (
(228,0,ls),
(437,0,o),
(559,123,o),
(559,330,cs),
(559,543,o),
(441,660,o),
(223,660,cs),
(75,660,l),
(75,0,l)
);
},
{
closed = 1;
nodes = (
(141,60,l),
(141,600,l),
(223,600,ls),
(410,600,o),
(493,503,o),
(493,330,cs),
(493,161,o),
(405,60,o),
(228,60,cs)
);
}
);
width = 602;
},
{
layerId = "4DE8B86A-429B-4593-9BC8-49866BB1A430";
shapes = (
{
closed = 1;
nodes = (
(205,0,ls),
(432,0,o),
(534,141,o),
(534,330,cs),
(534,535,o),
(423,660,o),
(201,660,cs),
(73,660,l),
(73,0,l)
);
},
{
closed = 1;
nodes = (
(96,21,l),
(96,639,l),
(200,639,ls),
(413,638,o),
(510,525,o),
(510,330,cs),
(510,139,o),
(408,22,o),
(205,22,cs)
);
}
);
width = 575;
},
{
layerId = "0BE882A4-FC89-4865-8E81-154FB3EE808B";
shapes = (
{
closed = 1;
nodes = (
(261,0,ls),
(479,0,o),
(595,138,o),
(595,330,cs),
(595,525,o),
(487,660,o),
(256,660,cs),
(75,660,l),
(75,0,l)
);
},
{
closed = 1;
nodes = (
(210,124,l),
(210,536,l),
(256,536,ls),
(400,536,o),
(460,466,o),
(460,330,cs),
(460,198,o),
(396,124,o),
(261,124,cs)
);
}
);
width = 638;
},
{
layerId = "9C2CFEA6-85BB-4338-BB26-B1BEA40B5780";
shapes = (
{
closed = 1;
nodes = (
(267,0,ls),
(490,0,o),
(601,145,o),
(601,330,cs),
(601,525,o),
(492,660,o),
(262,660,cs),
(75,660,l),
(75,0,l)
);
},
{
closed = 1;
nodes = (
(221,134,l),
(221,526,l),
(262,526,ls),
(398,525,o),
(455,461,o),
(455,330,cs),
(455,203,o),
(394,135,o),
(267,135,cs)
);
}
);
width = 644;
}
);
note = D;
unicode = 68;
},
{
glyphname = Eth;
kernLeft = Dcroat;
kernRight = D;
lastChange = "2025-01-07 22:30:53 +0000";
layers = (
{
layerId = m01;
shapes = (
{
closed = 1;
nodes = (
(300,0,ls),
(518,0,o),
(631,135,o),
(631,330,cs),
(631,533,o),
(521,660,o),
(295,660,cs),
(166,660,l),
(166,337,l),
(19,337,l),
(19,278,l),
(166,278,l),
(166,0,l)
);
},
{
closed = 1;
nodes = (
(232,60,l),
(232,278,l),
(364,278,l),
(364,337,l),
(232,337,l),
(232,600,l),
(295,600,ls),
(482,600,o),
(565,503,o),
(565,330,cs),
(565,161,o),
(476,60,o),
(300,60,cs)
);
}
);
width = 680;
},
{
layerId = "4DE8B86A-429B-4593-9BC8-49866BB1A430";
shapes = (
{
closed = 1;
nodes = (
(294,0,ls),
(509,0,o),
(624,128,o),
(624,330,cs),
(624,532,o),
(517,660,o),
(290,660,cs),
(176,660,l),
(176,316,l),
(-6,316,l),
(-6,300,l),
(176,300,l),
(176,0,l)
);
},
{
closed = 1;
nodes = (
(197,18,l),
(197,300,l),
(339,300,l),
(339,316,l),
(197,316,l),
(197,642,l),
(289,642,ls),
(505,642,o),
(604,527,o),
(604,330,cs),
(604,138,o),
(499,18,o),
(294,18,cs)
);
}
);
width = 680;
},
{
layerId = "0BE882A4-FC89-4865-8E81-154FB3EE808B";
shapes = (
{
closed = 1;
nodes = (
(308,0,ls),
(531,0,o),
(641,142,o),
(641,330,cs),
(641,524,o),
(533,660,o),
(304,660,cs),
(150,660,l),
(150,368,l),
(58,368,l),
(58,245,l),
(150,245,l),
(150,0,l)
);
},
{
closed = 1;
nodes = (
(285,124,l),
(285,245,l),
(401,245,l),
(401,368,l),
(285,368,l),
(285,536,l),
(303,536,ls),
(447,536,o),
(506,466,o),
(506,330,cs),
(506,198,o),
(443,124,o),
(308,124,cs)
);
}
);
width = 680;
},
{
layerId = "9C2CFEA6-85BB-4338-BB26-B1BEA40B5780";
shapes = (
{
closed = 1;
nodes = (
(310,0,ls),
(536,0,o),
(643,147,o),
(643,330,cs),
(643,542,o),
(518,660,o),
(306,660,cs),
(147,660,l),
(147,374,l),
(64,374,l),
(64,239,l),
(147,239,l),
(147,0,l)
);
},
{
closed = 1;
nodes = (
(293,134,l),
(293,239,l),
(407,239,l),
(407,374,l),
(293,374,l),
(293,526,l),
(305,526,ls),
(441,525,o),
(497,461,o),
(497,330,cs),
(497,203,o),
(438,135,o),
(310,135,cs)
);
}
);
width = 680;
}
);
note = Eth;
unicode = 208;
},
{
glyphname = E;
kernRight = AE;
lastChange = "2025-01-07 22:23:43 +0000";
layers = (
{
layerId = m01;
shapes = (
{
closed = 1;
nodes = (
(503,0,l),
(503,60,l),
(141,60,l),
(141,304,l),
(432,304,l),
(432,364,l),
(141,364,l),
(141,600,l),
(502,600,l),
(502,660,l),
(75,660,l),
(75,0,l)
);
}
);
width = 532;
},
{
layerId = "4DE8B86A-429B-4593-9BC8-49866BB1A430";
shapes = (
{
closed = 1;
nodes = (
(482,0,l),
(482,21,l),
(96,21,l),
(96,324,l),
(406,324,l),
(406,345,l),
(96,345,l),
(96,639,l),
(481,639,l),
(481,660,l),
(73,660,l),
(73,0,l)
);
}
);
width = 500;
},
{
layerId = "0BE882A4-FC89-4865-8E81-154FB3EE808B";
shapes = (
{
closed = 1;
nodes = (
(533,0,l),
(533,124,l),
(210,124,l),
(210,271,l),
(470,271,l),
(470,395,l),
(210,395,l),
(210,536,l),
(532,536,l),
(532,660,l),
(75,660,l),
(75,0,l)
);
}
);
width = 575;
},
{
layerId = "9C2CFEA6-85BB-4338-BB26-B1BEA40B5780";
shapes = (
{
closed = 1;
nodes = (
(538,0,l),
(538,134,l),
(221,134,l),
(221,265,l),
(476,265,l),
(476,401,l),
(221,401,l),
(221,526,l),
(537,526,l),
(537,660,l),
(75,660,l),
(75,0,l)
);
}
);
width = 583;
}
);
note = E;
unicode = 69;
},
{
glyphname = Schwa;
lastChange = "2025-01-07 22:32:04 +0000";
layers = (
{
layerId = m01;
shapes = (
{
closed = 1;
nodes = (
(568,351,l),
(17,351,l),
(-20,158,o),
(94,-6,o),
(302,-6,cs),
(500,-6,o),
(614,135,o),
(614,321,cs),
(614,511,o),
(491,669,o),
(288,669,cs),
(122,669,o),
(45,576,o),
(13,517,c),
(60,480,l),
(101,564,o),
(177,617,o),
(288,617,cs),
(462,617,o),
(554,462,o),
(554,321,cs),
(554,155,o),
(447,49,o),
(302,49,cs),
(142,49,o),
(53,173,o),
(73,305,c),
(52,300,l),
(568,300,l)
);
}
);
width = 624;
},
{
layerId = "4DE8B86A-429B-4593-9BC8-49866BB1A430";
shapes = (
{
closed = 1;
nodes = (
(576,336,l),
(19,336,l),
(-12,196,o),
(52,-6,o),
(291,-6,cs),
(484,-6,o),
(597,133,o),
(597,319,cs),
(597,523,o),
(474,668,o),
(280,668,cs),
(157,668,o),
(56,609,o),
(17,516,c),
(34,508,l),
(74,592,o),
(153,647,o),
(280,647,cs),
(460,647,o),
(573,508,o),
(573,319,cs),
(573,128,o),
(457,11,o),
(291,11,cs),
(128,11,o),
(15,126,o),
(35,321,c),
(29,315,l),
(576,315,l)
);
}
);
width = 607;
},
{
layerId = "0BE882A4-FC89-4865-8E81-154FB3EE808B";
shapes = (
{
closed = 1;
nodes = (
(560,362,l),
(18,362,l),
(-7,102,o),
(148,-6,o),
(322,-6,cs),
(527,-6,o),
(645,133,o),
(645,325,cs),
(645,532,o),
(512,670,o),
(303,670,cs),
(163,670,o),
(65,610,o),
(10,518,c),
(114,431,l),
(137,508,o),
(191,548,o),
(303,548,cs),
(440,548,o),
(519,461,o),
(520,325,cs),
(520,183,o),
(448,112,o),
(325,112,cs),
(195,112,o),
(130,176,o),
(130,308,c),
(69,276,l),
(560,276,l)
);
}
);
width = 655;
},
{
layerId = "9C2CFEA6-85BB-4338-BB26-B1BEA40B5780";
shapes = (
{
closed = 1;
nodes = (
(559,355,l),
(18,355,l),
(-23,82,o),
(150,-6,o),
(326,-6,cs),
(529,-6,o),
(650,129,o),
(650,325,cs),
(650,554,o),
(495,670,o),
(305,670,cs),
(165,670,o),
(68,614,o),
(10,518,c),
(108,424,l),
(128,504,o),
(184,552,o),
(305,552,cs),
(440,552,o),
(526,483,o),
(526,324,cs),
(526,171,o),
(462,99,o),
(332,99,cs),
(190,99,o),
(112,180,o),
(134,290,c),
(115,257,l),
(559,257,l)
);
}
);
width = 660;
}
);
note = uni018F;
unicode = 399;
},
{
glyphname = F;
kernRight = F;
lastChange = "2025-01-07 22:23:43 +0000";
layers = (
{
layerId = m01;
shapes = (
{
closed = 1;
nodes = (
(141,0,l),
(141,304,l),
(413,304,l),
(413,364,l),
(141,364,l),
(141,601,l),
(484,601,l),
(484,661,l),
(75,661,l),
(75,0,l)
);
}
);
width = 498;
},
{
layerId = "4DE8B86A-429B-4593-9BC8-49866BB1A430";
shapes = (
{
closed = 1;
nodes = (
(96,0,l),
(96,324,l),
(386,324,l),
(386,344,l),
(96,344,l),
(96,639,l),
(462,639,l),
(462,660,l),
(73,660,l),
(73,0,l)
);
}
);
width = 466;
},
{
layerId = "0BE882A4-FC89-4865-8E81-154FB3EE808B";
shapes = (
{
closed = 1;
nodes = (
(210,0,l),
(210,272,l),
(453,272,l),
(453,396,l),
(210,396,l),
(210,537,l),
(516,537,l),
(516,661,l),
(75,661,l),
(75,0,l)
);
}
);
width = 542;
},
{
layerId = "9C2CFEA6-85BB-4338-BB26-B1BEA40B5780";
shapes = (
{
closed = 1;
nodes = (
(221,0,l),
(221,266,l),
(459,266,l),
(459,402,l),
(221,402,l),
(221,527,l),
(522,527,l),
(522,661,l),
(75,661,l),
(75,0,l)
);
}
);
width = 550;
}
);
note = F;
unicode = 70;
},
{
glyphname = G;
kernLeft = C;
kernRight = G;
lastChange = "2025-01-07 22:32:43 +0000";
layers = (
{
layerId = m01;
shapes = (
{
closed = 1;
nodes = (
(476,-6,o),
(578,44,o),
(641,128,c),
(641,331,l),
(396,331,l),
(396,271,l),
(574,271,l),
(574,147,l),
(523,88,o),
(448,55,o),
(373,55,cs),
(208,55,o),
(108,197,o),
(108,330,cs),
(108,507,o),
(249,605,o),
(373,605,cs),
(446,605,o),
(511,572,o),
(560,511,c),
(611,550,l),
(552,622,o),
(468,666,o),
(373,666,cs),
(162,666,o),
(42,487,o),
(42,330,cs),
(42,119,o),
(215,-6,o),
(373,-6,cs)
);
}
);
width = 670;
},
{
layerId = "4DE8B86A-429B-4593-9BC8-49866BB1A430";
shapes = (
{
closed = 1;
nodes = (
(469,-6,o),
(568,40,o),
(631,120,c),
(631,310,l),
(377,310,l),
(377,285,l),
(606,285,l),
(606,127,l),
(547,58,o),
(457,16,o),
(369,16,cs),
(176,16,o),
(64,185,o),
(64,330,cs),
(64,527,o),
(221,644,o),
(369,644,cs),
(448,644,o),
(521,610,o),
(573,553,c),
(592,568,l),
(528,633,o),
(456,666,o),
(369,666,cs),
(157,666,o),
(40,491,o),
(40,330,cs),
(40,116,o),
(216,-6,o),
(369,-6,cs)
);
}
);
width = 657;
},
{
layerId = "0BE882A4-FC89-4865-8E81-154FB3EE808B";
shapes = (
{
closed = 1;
nodes = (
(484,-6,o),
(591,49,o),
(654,141,c),
(654,366,l),
(358,366,l),
(358,242,l),
(517,242,l),
(517,180,l),
(480,141,o),
(428,119,o),
(376,119,cs),
(267,119,o),
(177,212,o),
(177,330,cs),
(177,448,o),
(266,541,o),
(376,541,cs),
(441,541,o),
(492,509,o),
(535,441,c),
(639,520,l),
(588,604,o),
(483,666,o),
(376,666,cs),
(164,666,o),
(42,489,o),
(42,330,cs),
(42,119,o),
(215,-6,o),
(376,-6,cs)
);
}
);
width = 683;
},
{
layerId = "9C2CFEA6-85BB-4338-BB26-B1BEA40B5780";
shapes = (
{
closed = 1;
nodes = (
(485,-6,o),
(593,50,o),
(656,143,c),
(656,372,l),
(352,372,l),
(352,237,l),
(508,237,l),
(508,186,l),
(472,149,o),
(425,129,o),
(377,129,cs),
(273,129,o),
(189,217,o),
(189,330,cs),
(189,443,o),
(272,531,o),
(377,531,cs),
(440,531,o),
(490,498,o),
(531,430,c),
(644,515,l),
(595,602,o),
(486,666,o),
(377,666,cs),
(165,666,o),
(42,489,o),
(42,330,cs),
(42,119,o),
(216,-6,o),
(377,-6,cs)
);
}
);
width = 685;
}
);
note = G;
unicode = 71;
},
{
glyphname = H;
lastChange = "2025-01-07 22:23:43 +0000";
layers = (
{
layerId = m01;
shapes = (
{
closed = 1;
nodes = (
(141,0,l),
(141,304,l),
(527,304,l),
(527,0,l),
(593,0,l),
(593,660,l),
(527,660,l),
(527,364,l),
(141,364,l),
(141,660,l),
(75,660,l),
(75,0,l)
);
}
);
width = 669;
},
{
layerId = "4DE8B86A-429B-4593-9BC8-49866BB1A430";
shapes = (
{
closed = 1;
nodes = (
(96,0,l),
(96,324,l),
(554,324,l),
(554,0,l),
(577,0,l),
(577,660,l),
(554,660,l),
(554,345,l),
(96,345,l),
(96,660,l),
(73,660,l),
(73,0,l)
);
}
);
width = 651;
},
{
layerId = "0BE882A4-FC89-4865-8E81-154FB3EE808B";
shapes = (
{
closed = 1;
nodes = (
(210,0,l),
(210,271,l),
(479,271,l),
(479,0,l),
(614,0,l),
(614,660,l),
(479,660,l),
(479,395,l),
(210,395,l),
(210,660,l),
(75,660,l),
(75,0,l)
);
}
);
width = 690;
},
{
layerId = "9C2CFEA6-85BB-4338-BB26-B1BEA40B5780";
shapes = (
{
closed = 1;
nodes = (
(221,0,l),
(221,265,l),
(471,265,l),
(471,0,l),
(618,0,l),
(618,660,l),
(471,660,l),
(471,401,l),
(221,401,l),
(221,660,l),
(75,660,l),
(75,0,l)
);
}
);
width = 693;
}
);
note = H;
unicode = 72;
},
{
glyphname = Hbar;
lastChange = "2025-01-07 22:23:43 +0000";
layers = (
{
layerId = m01;
shapes = (
{
closed = 1;
nodes = (
(141,0,l),
(141,304,l),
(527,304,l),
(527,0,l),
(593,0,l),
(593,660,l),
(527,660,l),
(527,364,l),
(141,364,l),
(141,660,l),
(75,660,l),
(75,0,l)
);
},
{
closed = 1;
nodes = (
(22,475,l),
(680,475,l),
(680,541,l),
(22,541,l)
);
}
);
width = 669;
},
{
layerId = "4DE8B86A-429B-4593-9BC8-49866BB1A430";
shapes = (
{
closed = 1;
nodes = (
(96,0,l),
(96,324,l),
(554,324,l),
(554,0,l),
(577,0,l),
(577,660,l),
(554,660,l),
(554,345,l),
(96,345,l),
(96,660,l),
(73,660,l),
(73,0,l)
);
},
{
closed = 1;
nodes = (
(28,495,l),
(658,495,l),
(658,518,l),
(28,518,l)
);
}
);
width = 655;
},
{
layerId = "0BE882A4-FC89-4865-8E81-154FB3EE808B";
shapes = (
{
closed = 1;
nodes = (
(210,0,l),
(210,271,l),
(479,271,l),
(479,0,l),
(614,0,l),
(614,660,l),
(479,660,l),
(479,395,l),
(210,395,l),
(210,660,l),
(75,660,l),
(75,0,l)
);
},
{
closed = 1;
nodes = (
(15,440,l),
(720,440,l),
(720,575,l),
(15,575,l)
);
}
);
width = 690;
},
{
layerId = "9C2CFEA6-85BB-4338-BB26-B1BEA40B5780";
shapes = (
{
closed = 1;
nodes = (
(221,0,l),
(221,265,l),
(471,265,l),
(471,0,l),
(618,0,l),
(618,660,l),
(471,660,l),
(471,401,l),
(221,401,l),
(221,660,l),
(75,660,l),
(75,0,l)
);
},
{
closed = 1;
nodes = (
(-2,434,l),
(733,434,l),
(733,581,l),
(-2,581,l)
);
}
);
width = 693;
}
);
note = Hbar;
unicode = 294;
},
{
glyphname = I;
lastChange = "2025-01-07 22:23:43 +0000";
layers = (
{
layerId = m01;
shapes = (
{
closed = 1;
nodes = (
(141,0,l),
(141,660,l),
(75,660,l),
(75,0,l)
);
}
);
width = 217;
},
{
layerId = "4DE8B86A-429B-4593-9BC8-49866BB1A430";
shapes = (
{
closed = 1;
nodes = (
(96,0,l),
(96,660,l),
(73,660,l),
(73,0,l)
);
}
);
width = 170;
},
{
layerId = "0BE882A4-FC89-4865-8E81-154FB3EE808B";
shapes = (
{
closed = 1;
nodes = (
(210,0,l),
(210,660,l),
(75,660,l),
(75,0,l)
);
}
);
width = 286;
},
{
layerId = "9C2CFEA6-85BB-4338-BB26-B1BEA40B5780";
shapes = (
{
closed = 1;
nodes = (
(221,0,l),
(221,660,l),
(75,660,l),
(75,0,l)
);
}
);
width = 297;
}
);
note = I;
unicode = 73;
},
{
glyphname = J;
kernLeft = J;
kernRight = IJ;
lastChange = "2025-01-07 22:32:49 +0000";
layers = (
{
layerId = m01;
shapes = (
{
closed = 1;
nodes = (
(303,-2,o),
(372,62,o),
(372,169,cs),
(372,660,l),
(305,660,l),
(305,169,ls),
(305,93,o),
(262,58,o),
(202,58,cs),
(145,58,o),
(97,108,o),
(97,169,c),
(31,169,l),
(31,74,o),
(107,-2,o),
(202,-2,cs)
);
}
);
width = 437;
},
{
layerId = "4DE8B86A-429B-4593-9BC8-49866BB1A430";
shapes = (
{
closed = 1;
nodes = (
(278,-2,o),
(339,47,o),
(339,159,cs),
(340,660,l),
(315,660,l),
(315,152,ls),
(315,61,o),
(261,20,o),
(182,20,cs),
(112,20,o),
(56,71,o),
(42,137,c),
(20,137,l),
(34,57,o),
(103,-2,o),
(182,-2,cs)
);
}
);
width = 397;
},
{
layerId = "0BE882A4-FC89-4865-8E81-154FB3EE808B";
shapes = (
{
closed = 1;
nodes = (
(335,-2,o),
(420,82,o),
(420,186,cs),
(420,660,l),
(284,660,l),
(284,196,ls),
(284,144,o),
(262,123,o),
(230,123,cs),
(190,123,o),
(160,169,o),
(182,222,c),
(43,222,l),
(17,86,o),
(131,-2,o),
(230,-2,cs)
);
}
);
width = 494;
},
{
layerId = "9C2CFEA6-85BB-4338-BB26-B1BEA40B5780";
shapes = (
{
closed = 1;
nodes = (
(338,-2,o),
(428,84,o),
(428,189,cs),
(429,660,l),
(280,660,l),
(280,201,ls),
(280,153,o),
(262,133,o),
(235,133,cs),
(198,133,o),
(170,181,o),
(196,230,c),
(45,230,l),
(18,105,o),
(117,-2,o),
(235,-2,cs)
);
}
);
width = 503;
}
);
note = J;
unicode = 74;
},
{
glyphname = K;
kernRight = K;
lastChange = "2025-01-07 22:23:43 +0000";
layers = (
{
layerId = m01;
shapes = (
{
closed = 1;
nodes = (
(141,0,l),
(141,296,l),
(130,267,l),
(213,344,l),
(198,348,l),
(463,0,l),
(547,0,l),
(249,388,l),
(246,374,l),
(553,660,l),
(458,660,l),
(127,352,l),
(141,334,l),
(141,660,l),
(75,660,l),
(75,0,l)
);
}
);
width = 562;
},
{
layerId = "4DE8B86A-429B-4593-9BC8-49866BB1A430";
shapes = (
{
closed = 1;
nodes = (
(96,0,l),
(96,313,l),
(83,288,l),
(177,375,l),
(158,377,l),
(444,0,l),
(477,0,l),
(181,388,l),
(166,364,l),
(485,660,l),
(453,660,l),
(94,328,l),
(96,321,l),
(96,660,l),
(73,660,l),
(73,0,l)
);
}
);
width = 489;
},
{
layerId = "0BE882A4-FC89-4865-8E81-154FB3EE808B";
shapes = (
{
closed = 1;
nodes = (
(210,0,l),
(210,266,l),
(193,226,l),
(272,299,l),
(250,307,l),
(486,0,l),
(653,0,l),
(350,392,l),
(351,372,l),
(658,660,l),
(467,660,l),
(179,389,l),
(210,389,l),
(210,660,l),
(75,660,l),
(75,0,l)
);
}
);
width = 667;
},
{
layerId = "9C2CFEA6-85BB-4338-BB26-B1BEA40B5780";
shapes = (
{
closed = 1;
nodes = (
(221,0,l),
(221,261,l),
(204,219,l),
(283,291,l),
(258,301,l),
(489,0,l),
(671,0,l),
(367,393,l),
(369,372,l),
(676,660,l),
(469,660,l),
(187,395,l),
(221,398,l),
(221,660,l),
(75,660,l),
(75,0,l)
);
}
);
width = 684;
}
);
note = K;
unicode = 75;
},
{
glyphname = L;
kernRight = L;
lastChange = "2025-01-07 22:23:43 +0000";
layers = (
{
layerId = m01;
shapes = (
{
closed = 1;
nodes = (
(447,0,l),
(447,60,l),
(141,60,l),
(141,660,l),
(75,660,l),
(75,0,l)
);
}
);
width = 466;
},
{
layerId = "4DE8B86A-429B-4593-9BC8-49866BB1A430";
shapes = (
{
closed = 1;
nodes = (
(417,0,l),
(417,21,l),
(96,21,l),
(96,660,l),
(73,660,l),
(73,0,l)
);
}
);
width = 434;
},
{
layerId = "0BE882A4-FC89-4865-8E81-154FB3EE808B";
shapes = (
{
closed = 1;
nodes = (
(490,0,l),
(490,124,l),
(210,124,l),
(210,660,l),
(75,660,l),
(75,0,l)
);
}
);
width = 509;
},
{
layerId = "9C2CFEA6-85BB-4338-BB26-B1BEA40B5780";
shapes = (
{
closed = 1;
nodes = (
(498,0,l),
(498,134,l),
(221,134,l),
(221,660,l),
(75,660,l),
(75,0,l)
);
}
);
width = 517;
}
);
note = L;
unicode = 76;
},
{
glyphname = Lslash;
kernLeft = Lslash;
kernRight = L;
lastChange = "2025-01-07 22:23:43 +0000";
layers = (
{
layerId = m01;
shapes = (
{
closed = 1;
nodes = (
(324,417,l),
(324,484,l),
(18,348,l),
(18,282,l)
);
},
{
closed = 1;
nodes = (
(447,0,l),
(447,60,l),
(141,60,l),
(141,660,l),
(75,660,l),
(75,0,l)
);
}
);
width = 461;
},
{
layerId = "4DE8B86A-429B-4593-9BC8-49866BB1A430";
shapes = (
{
closed = 1;
nodes = (
(300,438,l),
(300,458,l),
(23,334,l),
(23,316,l)
);
},
{
closed = 1;
nodes = (
(417,0,l),
(417,21,l),
(96,21,l),
(96,660,l),
(73,660,l),
(73,0,l)
);
}
);
width = 432;
},
{
layerId = "0BE882A4-FC89-4865-8E81-154FB3EE808B";
shapes = (
{
closed = 1;
nodes = (
(362,386,l),
(362,524,l),
(11,369,l),
(11,231,l)
);
},
{
closed = 1;
nodes = (
(490,0,l),
(490,124,l),
(210,124,l),
(210,660,l),
(75,660,l),
(75,0,l)
);
}
);
width = 504;
},
{
layerId = "9C2CFEA6-85BB-4338-BB26-B1BEA40B5780";
shapes = (
{
closed = 1;
nodes = (
(368,381,l),
(368,530,l),
(10,373,l),
(10,223,l)
);
},
{
closed = 1;
nodes = (
(498,0,l),
(498,134,l),
(221,134,l),
(221,660,l),
(75,660,l),
(75,0,l)
);
}
);
width = 512;
}
);
note = Lslash;
unicode = 321;
},
{
glyphname = M;
lastChange = "2025-01-07 22:23:43 +0000";
layers = (
{
layerId = m01;
shapes = (
{
closed = 1;
nodes = (
(659,533,l),
(659,0,l),
(725,0,l),
(725,660,l),
(652,660,l),
(400,188,l),
(150,660,l),
(75,660,l),
(75,0,l),
(141,0,l),
(141,535,l),
(400,45,l)
);
}
);
width = 801;
},
{
layerId = "4DE8B86A-429B-4593-9BC8-49866BB1A430";
shapes = (
{
closed = 1;
nodes = (
(695,608,l),
(695,0,l),
(719,0,l),
(719,660,l),
(696,660,l),
(396,117,l),
(99,660,l),
(73,660,l),
(73,0,l),
(96,0,l),
(96,611,l),
(396,65,l)
);
}
);
width = 792;
},
{
layerId = "0BE882A4-FC89-4865-8E81-154FB3EE808B";
shapes = (
{
closed = 1;
nodes = (
(596,406,l),
(596,0,l),
(731,0,l),
(731,660,l),
(578,660,l),
(403,303,l),
(228,660,l),
(75,660,l),
(75,0,l),
(210,0,l),
(210,407,l),
(403,11,l)
);
}
);
width = 807;
},
{
layerId = "9C2CFEA6-85BB-4338-BB26-B1BEA40B5780";
shapes = (
{
closed = 1;
nodes = (
(585,385,l),
(585,0,l),
(732,0,l),
(732,660,l),
(566,660,l),
(404,322,l),
(241,660,l),
(75,660,l),
(75,0,l),
(221,0,l),
(221,385,l),
(404,5,l)
);
}
);
width = 808;
}
);
note = M;
unicode = 77;
},
{
glyphname = N;
lastChange = "2025-01-07 22:23:43 +0000";
layers = (
{
layerId = m01;
shapes = (
{
closed = 1;
nodes = (
(141,0,l),
(141,553,l),
(135,552,l),
(513,0,l),
(574,0,l),
(574,660,l),
(507,660,l),
(507,97,l),
(518,107,l),
(138,660,l),
(75,660,l),
(75,0,l)
);
}
);
width = 650;
},
{
layerId = "4DE8B86A-429B-4593-9BC8-49866BB1A430";
shapes = (
{
closed = 1;
nodes = (
(96,0,l),
(96,637,l),
(89,632,l),
(521,0,l),
(544,0,l),
(544,660,l),
(519,660,l),
(519,19,l),
(530,33,l),
(100,660,l),
(73,660,l),
(73,0,l)
);
}
);
width = 618;
},
{
layerId = "0BE882A4-FC89-4865-8E81-154FB3EE808B";
shapes = (
{
closed = 1;
nodes = (
(210,0,l),
(210,430,l),
(198,430,l),
(494,0,l),
(616,0,l),
(616,660,l),
(482,660,l),
(482,207,l),
(500,220,l),
(196,660,l),
(75,660,l),
(75,0,l)
);
}
);
width = 692;
},
{
layerId = "9C2CFEA6-85BB-4338-BB26-B1BEA40B5780";
shapes = (
{
closed = 1;
nodes = (
(221,0,l),
(221,410,l),
(209,411,l),
(491,0,l),
(624,0,l),
(624,660,l),
(478,660,l),
(478,226,l),
(497,239,l),
(206,660,l),
(75,660,l),
(75,0,l)
);
}
);
width = 700;
}
);
note = N;
unicode = 78;
},
{
glyphname = Nhookleft;
lastChange = "2025-01-07 22:29:37 +0000";
layers = (
{
layerId = m01;
shapes = (
{
closed = 1;
nodes = (
(141,0,l),
(75,0,l),
(75,-91,ls),
(75,-120,o),
(64,-132,o),
(47,-132,cs),
(23,-132,o),
(0,-122,o),
(-25,-102,c),
(-25,-159,l),
(-20,-163,ls),
(-3,-179,o),
(24,-191,o),
(57,-191,cs),
(114,-191,o),
(141,-145,o),
(141,-80,cs)
);
},
{
closed = 1;
nodes = (
(141,0,l),
(141,553,l),
(135,552,l),
(513,0,l),
(574,0,l),
(574,660,l),
(507,660,l),
(507,97,l),
(518,107,l),
(138,660,l),
(75,660,l),
(75,0,l)
);
}
);
width = 640;
},
{
layerId = "4DE8B86A-429B-4593-9BC8-49866BB1A430";
shapes = (
{
closed = 1;
nodes = (
(95,0,l),
(75,0,l),
(75,-130,ls),
(75,-159,o),
(62,-173,o),
(45,-173,cs),
(20,-173,o),
(0,-164,o),
(-25,-141,c),
(-25,-159,l),
(-22,-163,ls),
(-11,-176,o),
(17,-191,o),
(45,-191,cs),
(89,-191,o),
(95,-154,o),
(95,-111,cs)
);
},
{
closed = 1;
nodes = (
(96,0,l),
(96,637,l),
(89,632,l),
(521,0,l),
(544,0,l),
(544,660,l),
(519,660,l),
(519,19,l),
(530,33,l),
(100,660,l),
(73,660,l),
(73,0,l)
);
}
);
width = 612;
},
{
layerId = "0BE882A4-FC89-4865-8E81-154FB3EE808B";
shapes = (
{
closed = 1;
nodes = (
(210,0,l),
(75,0,l),
(75,-33,ls),
(75,-62,o),
(67,-72,o),
(50,-72,cs),
(27,-72,o),
(-1,-62,o),
(-25,-42,c),
(-25,-159,l),
(-18,-164,ls),
(10,-181,o),
(33,-191,o),
(74,-191,cs),
(157,-191,o),
(210,-144,o),
(210,-33,cs)
);
},
{
closed = 1;
nodes = (
(210,0,l),
(210,430,l),
(198,430,l),
(494,0,l),
(616,0,l),
(616,660,l),
(482,660,l),
(482,207,l),
(500,220,l),
(196,660,l),
(75,660,l),
(75,0,l)
);
}
);
width = 682;
},
{
layerId = "9C2CFEA6-85BB-4338-BB26-B1BEA40B5780";
shapes = (
{
closed = 1;
nodes = (
(221,0,l),
(75,0,l),
(75,-24,ls),
(75,-53,o),
(67,-61,o),
(51,-61,cs),
(28,-61,o),
(-1,-51,o),
(-25,-32,c),
(-25,-159,l),
(-17,-164,ls),
(12,-181,o),
(33,-191,o),
(76,-191,cs),
(165,-191,o),
(222,-144,o),
(222,-25,cs)
);
},
{
closed = 1;
nodes = (
(221,0,l),
(221,410,l),
(209,411,l),
(491,0,l),
(624,0,l),
(624,660,l),
(478,660,l),
(478,226,l),
(497,239,l),
(206,660,l),
(75,660,l),
(75,0,l)
);
}
);
width = 690;
}
);
note = uni019D;
unicode = 413;
},
{
glyphname = Eng;
lastChange = "2025-01-07 22:29:37 +0000";
layers = (
{
layerId = m01;
shapes = (
{
closed = 1;
nodes = (
(574,0,l),
(513,0,l),
(513,-91,ls),
(513,-120,o),
(501,-132,o),
(485,-132,cs),
(460,-132,o),
(432,-122,o),
(408,-102,c),
(408,-159,l),
(412,-163,ls),
(429,-179,o),
(456,-191,o),
(489,-191,cs),
(548,-191,o),
(574,-145,o),
(574,-80,cs)
);
},
{
closed = 1;
nodes = (
(141,0,l),
(141,553,l),
(135,552,l),
(513,0,l),
(574,0,l),
(574,660,l),
(507,660,l),
(507,97,l),
(518,107,l),
(138,660,l),
(75,660,l),
(75,0,l)
);
}
);
width = 640;
},
{
layerId = "4DE8B86A-429B-4593-9BC8-49866BB1A430";
shapes = (
{
closed = 1;
nodes = (
(546,0,l),
(525,0,l),
(525,-130,ls),
(525,-159,o),
(512,-173,o),
(495,-173,cs),
(470,-173,o),
(451,-164,o),
(426,-141,c),
(426,-159,l),
(428,-163,l),
(439,-176,o),
(467,-191,o),
(496,-191,cs),
(539,-191,o),
(546,-154,o),
(546,-111,cs)
);
},
{
closed = 1;
nodes = (
(96,0,l),
(96,637,l),
(89,632,l),
(521,0,l),
(544,0,l),
(544,660,l),
(519,660,l),
(519,19,l),
(530,33,l),
(100,660,l),
(73,660,l),
(73,0,l)
);
}
);
width = 612;
},
{
layerId = "0BE882A4-FC89-4865-8E81-154FB3EE808B";
shapes = (
{
closed = 1;
nodes = (
(616,0,l),
(494,0,l),
(494,-33,ls),
(494,-62,o),
(485,-72,o),
(469,-72,cs),
(445,-72,o),
(405,-61,o),
(382,-42,c),
(382,-159,l),
(388,-163,ls),
(416,-182,o),
(439,-191,o),
(480,-191,cs),
(564,-191,o),
(617,-144,o),
(617,-33,cs)
);
},
{
closed = 1;
nodes = (
(210,0,l),
(210,430,l),
(198,430,l),
(494,0,l),
(616,0,l),
(616,660,l),
(482,660,l),
(482,207,l),
(500,220,l),
(196,660,l),
(75,660,l),
(75,0,l)
);
}
);
width = 682;
},
{
layerId = "9C2CFEA6-85BB-4338-BB26-B1BEA40B5780";
shapes = (
{
closed = 1;
nodes = (
(624,0,l),
(491,0,l),
(491,-24,ls),
(491,-53,o),
(483,-61,o),
(466,-61,cs),
(442,-61,o),
(400,-51,o),
(377,-32,c),
(377,-159,l),
(383,-163,ls),
(415,-182,o),
(435,-191,o),
(478,-191,cs),
(567,-191,o),
(624,-144,o),
(624,-25,cs)
);
},
{
closed = 1;
nodes = (
(221,0,l),
(221,410,l),
(209,411,l),
(491,0,l),
(624,0,l),
(624,660,l),
(478,660,l),
(478,226,l),
(497,239,l),
(206,660,l),
(75,660,l),
(75,0,l)
);
}
);
width = 690;
}
);
note = Eng;
unicode = 330;
},
{
glyphname = O;
kernLeft = C;
kernRight = D;
lastChange = "2025-01-07 22:33:43 +0000";
layers = (
{
layerId = m01;
shapes = (
{
closed = 1;
nodes = (
(570,-6,o),
(705,152,o),
(705,330,cs),
(705,533,o),
(540,666,o),
(373,666,cs),
(162,666,o),
(42,487,o),
(42,330,cs),
(42,119,o),
(215,-6,o),
(373,-6,cs)
);
},
{
closed = 1;
nodes = (
(208,55,o),
(108,197,o),
(108,330,cs),
(108,507,o),
(249,605,o),
(373,605,cs),
(543,605,o),
(639,461,o),
(639,330,cs),
(639,142,o),
(489,55,o),
(373,55,cs)
);
}
);
width = 748;
},
{
layerId = "4DE8B86A-429B-4593-9BC8-49866BB1A430";
shapes = (
{
closed = 1;
nodes = (
(566,-6,o),
(700,154,o),
(700,330,cs),
(700,543,o),
(525,666,o),
(369,666,cs),
(157,666,o),
(40,483,o),
(40,330,cs),
(40,116,o),
(216,-6,o),
(369,-6,cs)
);
},
{
closed = 1;
nodes = (
(176,16,o),
(64,185,o),
(64,330,cs),
(64,527,o),
(221,644,o),
(369,644,cs),
(563,644,o),
(676,482,o),
(676,330,cs),
(676,115,o),
(502,16,o),
(369,16,cs)
);
}
);
width = 740;
},
{
layerId = "0BE882A4-FC89-4865-8E81-154FB3EE808B";
shapes = (
{
closed = 1;
nodes = (
(539,-6,o),
(710,119,o),
(710,330,cs),
(710,547,o),
(531,666,o),
(376,666,cs),
(164,666,o),
(42,489,o),
(42,330,cs),
(42,119,o),
(215,-6,o),
(376,-6,cs)
);
},
{
closed = 1;
nodes = (
(266,119,o),
(177,211,o),
(177,330,cs),
(177,448,o),
(266,541,o),
(376,541,cs),
(490,541,o),
(575,446,o),
(575,330,cs),
(575,190,o),
(465,119,o),
(376,119,cs)
);
}
);
width = 753;
},
{
layerId = "9C2CFEA6-85BB-4338-BB26-B1BEA40B5780";
shapes = (
{
closed = 1;
nodes = (
(540,-6,o),
(711,119,o),
(711,330,cs),
(711,533,o),
(546,666,o),
(377,666,cs),
(165,666,o),
(42,491,o),
(42,330,cs),
(42,119,o),
(216,-6,o),
(377,-6,cs)
);
},
{
closed = 1;
nodes = (
(270,129,o),
(189,221,o),
(189,330,cs),
(189,449,o),
(278,531,o),
(377,531,cs),
(484,531,o),
(565,440,o),
(565,330,cs),
(565,203,o),
(466,129,o),
(377,129,cs)
);
}
);
width = 754;
}
);
note = O;
unicode = 79;
},
{
glyphname = Oslash;
kernLeft = C;
kernRight = D;
lastChange = "2025-01-08 09:16:10 +0000";
layers = (
{
layerId = m01;
shapes = (
{
closed = 1;
nodes = (
(515,722,l),
(457,740,l),
(217,-56,l),
(275,-73,l)
);
},
{
alignment = -1;
ref = O;
}
);
width = 730;
},
{
layerId = "4DE8B86A-429B-4593-9BC8-49866BB1A430";
shapes = (
{
closed = 1;
nodes = (
(501,732,l),
(475,739,l),
(231,-65,l),
(257,-72,l)
);
},
{
alignment = -1;
ref = O;
}
);
width = 715;
},
{
layerId = "0BE882A4-FC89-4865-8E81-154FB3EE808B";
shapes = (
{
closed = 1;
nodes = (
(536,707,l),
(431,741,l),
(196,-42,l),
(301,-74,l)
);
},
{
alignment = -1;
ref = O;
}
);
width = 753;
},
{
layerId = "9C2CFEA6-85BB-4338-BB26-B1BEA40B5780";
shapes = (
{
closed = 1;
nodes = (
(540,704,l),
(426,741,l),
(192,-39,l),
(306,-74,l)
);
},
{
alignment = -1;
ref = O;
}
);
width = 756;
}
);
note = Oslash;
unicode = 216;
},
{
glyphname = OE;
kernLeft = C;
kernRight = AE;
lastChange = "2025-01-07 22:34:57 +0000";
layers = (
{
layerId = m01;
shapes = (
{
closed = 1;
nodes = (
(429,0,o),
(492,19,o),
(548,55,c),
(548,0,l),
(975,0,l),
(975,60,l),
(614,60,l),
(614,304,l),
(904,304,l),
(904,364,l),
(614,364,l),
(614,600,l),
(974,600,l),
(974,660,l),
(548,660,l),
(548,607,l),
(493,644,o),
(432,662,o),
(365,662,cs),
(154,662,o),
(34,484,o),
(34,331,cs),
(34,123,o),
(209,0,o),
(365,0,cs)
);
},
{
closed = 1;
nodes = (
(192,60,o),
(100,212,o),
(100,331,cs),
(100,500,o),
(237,602,o),
(365,602,cs),
(434,602,o),
(499,575,o),
(548,527,c),
(548,134,l),
(497,86,o),
(430,60,o),
(365,60,cs)
);
}
);
width = 1004;
},
{
layerId = "4DE8B86A-429B-4593-9BC8-49866BB1A430";
shapes = (
{
closed = 1;
nodes = (
(444,0,o),
(522,27,o),
(589,76,c),
(589,0,l),
(997,0,l),
(997,18,l),
(609,18,l),
(609,326,l),
(920,326,l),
(920,343,l),
(609,343,l),
(609,642,l),
(996,642,l),
(996,660,l),
(589,660,l),
(589,585,l),
(522,636,o),
(454,662,o),
(383,662,cs),
(161,662,o),
(34,484,o),
(34,331,cs),
(34,121,o),
(186,0,o),
(365,0,cs)
);
},
{
closed = 1;
nodes = (
(204,18,o),
(58,116,o),
(58,331,cs),
(58,525,o),
(224,644,o),
(383,644,cs),
(466,644,o),
(530,620,o),
(589,564,c),
(589,97,l),
(530,41,o),
(444,18,o),
(365,18,cs)
);
}
);
width = 1017;
},
{
layerId = "0BE882A4-FC89-4865-8E81-154FB3EE808B";
shapes = (
{
closed = 1;
nodes = (
(407,0,o),
(447,7,o),
(486,23,c),
(486,0,l),
(943,0,l),
(943,124,l),
(621,124,l),
(621,271,l),
(879,271,l),
(879,395,l),
(621,395,l),
(621,536,l),
(942,536,l),
(942,660,l),
(486,660,l),
(486,640,l),
(447,655,o),
(398,662,o),
(337,662,cs),
(140,662,o),
(34,480,o),
(34,331,cs),
(34,123,o),
(209,0,o),
(365,0,cs)
);
},
{
closed = 1;
nodes = (
(250,137,o),
(164,224,o),
(164,331,cs),
(164,438,o),
(249,526,o),
(355,526,cs),
(403,526,o),
(451,507,o),
(486,472,c),
(486,189,l),
(449,154,o),
(402,137,o),
(355,137,cs)
);
}
);
width = 985;
},
{
layerId = "9C2CFEA6-85BB-4338-BB26-B1BEA40B5780";
shapes = (
{
closed = 1;
nodes = (
(407,0,o),
(440,6,o),
(475,17,c),
(475,0,l),
(937,0,l),
(937,134,l),
(622,134,l),
(622,265,l),
(876,265,l),
(876,401,l),
(622,401,l),
(622,526,l),
(936,526,l),
(936,660,l),
(475,660,l),
(475,646,l),
(439,657,o),
(402,662,o),
(365,662,cs),
(154,662,o),
(34,484,o),
(34,331,cs),
(34,127,o),
(210,0,o),
(352,0,cs)
);
},
{
closed = 1;
nodes = (
(253,150,o),
(174,232,o),
(174,331,cs),
(174,431,o),
(256,514,o),
(353,514,cs),
(398,514,o),
(443,495,o),
(475,463,c),
(475,198,l),
(441,167,o),
(397,150,o),
(353,150,cs)
);
}
);
width = 982;
}
);
note = OE;
unicode = 338;
},
{
glyphname = P;
kernRight = P;
lastChange = "2025-01-07 22:29:37 +0000";
layers = (
{
layerId = m01;
shapes = (
{
closed = 1;
nodes = (
(141,0,l),
(141,297,l),
(318,297,ls),
(414,297,o),
(500,374,o),
(500,478,cs),
(500,577,o),
(417,660,o),
(318,660,cs),
(75,660,l),
(75,0,l)
);
},
{
closed = 1;
nodes = (
(141,357,l),
(141,599,l),
(318,599,ls),
(382,599,o),
(434,544,o),
(434,478,cs),
(434,412,o),
(383,357,o),
(318,357,cs)
);
}
);
width = 533;
},
{
layerId = "4DE8B86A-429B-4593-9BC8-49866BB1A430";
shapes = (
{
closed = 1;
nodes = (
(96,0,l),
(96,316,l),
(309,316,ls),
(396,314,o),
(479,388,o),
(479,486,cs),
(479,579,o),
(401,660,o),
(308,660,cs),
(73,660,l),
(73,0,l)
);
},
{
closed = 1;
nodes = (
(96,336,l),
(96,637,l),
(309,637,ls),
(384,639,o),
(454,572,o),
(454,486,cs),
(454,402,o),
(389,336,o),
(308,336,cs)
);
}
);
width = 514;
},
{
layerId = "0BE882A4-FC89-4865-8E81-154FB3EE808B";
shapes = (
{
closed = 1;
nodes = (
(210,0,l),
(210,266,l),
(329,266,ls),
(441,266,o),
(530,354,o),
(530,463,cs),
(530,571,o),
(440,660,o),
(329,660,cs),
(75,660,l),
(75,0,l)
);
},
{
closed = 1;
nodes = (
(210,390,l),
(210,535,l),
(329,535,ls),
(370,535,o),
(395,504,o),
(395,463,cs),
(395,422,o),
(365,390,o),
(329,390,cs)
);
}
);
width = 557;
},
{
layerId = "9C2CFEA6-85BB-4338-BB26-B1BEA40B5780";
shapes = (
{
closed = 1;
nodes = (
(221,0,l),
(221,260,l),
(331,260,ls),
(443,260,o),
(535,354,o),
(535,467,cs),
(535,576,o),
(444,660,o),
(331,660,cs),
(75,660,l),
(75,0,l)
);
},
{
closed = 1;
nodes = (
(221,396,l),
(221,525,l),
(331,525,ls),
(367,525,o),
(389,496,o),
(389,460,cs),
(389,422,o),
(363,396,o),
(331,396,cs)
);
}
);
width = 561;
}
);
note = P;
unicode = 80;
},
{
glyphname = Thorn;
kernRight = Thorn;
lastChange = "2025-01-07 22:29:37 +0000";
layers = (
{
layerId = m01;
shapes = (
{
closed = 1;
nodes = (
(135,0,l),
(135,155,l),
(311,155,ls),
(425,155,o),
(518,247,o),
(518,359,cs),
(518,412,o),
(494,467,o),
(457,504,cs),
(421,539,o),
(366,563,o),
(311,563,cs),
(135,563,l),
(135,654,l),
(69,654,l),
(69,0,l)
);
},
{
closed = 1;
nodes = (
(135,215,l),
(135,503,l),
(311,503,ls),
(350,503,o),
(383,488,o),
(410,460,cs),
(437,436,o),
(452,399,o),
(452,359,cs),
(452,278,o),
(389,215,o),
(311,215,cs)
);
}
);
width = 566;
},
{
layerId = "4DE8B86A-429B-4593-9BC8-49866BB1A430";
shapes = (
{
closed = 1;
nodes = (
(98,0,l),
(98,166,l),
(312,166,ls),
(415,166,o),
(508,248,o),
(508,362,cs),
(508,414,o),
(487,464,o),
(451,500,cs),
(414,535,o),
(364,556,o),
(312,556,cs),
(98,556,l),
(98,654,l),
(78,654,l),
(78,0,l)
);
},
{
closed = 1;
nodes = (
(98,183,l),
(98,540,l),
(312,540,ls),
(361,539,o),
(404,519,o),
(436,486,cs),
(468,455,o),
(488,409,o),
(488,362,cs),
(488,257,o),
(405,183,o),
(312,183,cs)
);
}
);
width = 566;
},
{
layerId = "0BE882A4-FC89-4865-8E81-154FB3EE808B";
shapes = (
{
closed = 1;
nodes = (
(190,0,l),
(190,138,l),
(309,138,ls),
(432,138,o),
(532,236,o),
(532,356,cs),
(532,409,o),
(506,470,o),
(467,509,cs),
(431,545,o),
(366,573,o),
(309,573,cs),
(190,573,l),
(190,654,l),
(55,654,l),
(55,0,l)
);
},
{
closed = 1;
nodes = (
(190,263,l),
(190,448,l),
(309,448,ls),
(332,448,o),
(352,439,o),
(372,422,c),
(387,405,o),
(397,381,o),
(397,356,cs),
(397,302,o),
(357,263,o),
(309,263,cs)
);
}
);
width = 566;
},
{
layerId = "9C2CFEA6-85BB-4338-BB26-B1BEA40B5780";
shapes = (
{
closed = 1;
nodes = (
(199,0,l),
(199,135,l),
(309,135,ls),
(433,135,o),
(535,235,o),
(535,355,cs),
(535,410,o),
(508,471,o),
(469,510,cs),
(433,546,o),
(366,575,o),
(309,575,cs),
(199,575,l),
(199,654,l),
(53,654,l),
(53,0,l)
);
},
{
closed = 1;
nodes = (
(199,272,l),
(199,439,l),
(309,439,ls),
(330,438,o),
(349,431,o),
(365,415,cs),
(378,400,o),
(388,379,o),
(388,355,cs),
(388,306,o),
(354,272,o),
(309,272,cs)
);
}
);
width = 566;
}
);
note = Thorn;
unicode = 222;
},
{
glyphname = Q;
kernLeft = C;
kernRight = Q;
lastChange = "2025-01-08 09:20:45 +0000";
layers = (
{
layerId = m01;
shapes = (
{
closed = 1;
nodes = (
(716,0,l),
(419,274,l),
(324,274,l),
(621,0,l)
);
},
{
alignment = -1;
ref = O;
}
);
width = 748;
},
{
layerId = "4DE8B86A-429B-4593-9BC8-49866BB1A430";
shapes = (
{
closed = 1;
nodes = (
(684,0,l),
(384,275,l),
(348,275,l),
(647,0,l)
);
},
{
alignment = -1;
ref = O;
}
);
width = 740;
},
{
layerId = "0BE882A4-FC89-4865-8E81-154FB3EE808B";
shapes = (
{
closed = 1;
nodes = (
(766,0,l),
(469,275,l),
(277,275,l),
(574,0,l)
);
},
{
alignment = -1;
ref = O;
}
);
width = 753;
},
{
layerId = "9C2CFEA6-85BB-4338-BB26-B1BEA40B5780";
shapes = (
{
closed = 1;
nodes = (
(774,0,l),
(477,275,l),
(269,275,l),
(566,0,l)
);
},
{
alignment = -1;
ref = O;
}
);
width = 753;
}
);
note = Q;
unicode = 81;
},
{
glyphname = R;
kernRight = R;
lastChange = "2025-01-07 22:29:37 +0000";
layers = (
{
layerId = m01;
shapes = (
{
closed = 1;
nodes = (
(286,350,l),
(511,0,l),
(589,0,l),
(362,351,l)
);
},
{
closed = 1;
nodes = (
(141,396,l),
(141,600,l),
(337,600,ls),
(410,600,o),
(452,558,o),
(452,498,cs),
(452,437,o),
(414,396,o),
(342,396,cs)
);
},
{
closed = 1;
nodes = (
(347,336,ls),
(448,336,o),
(518,402,o),
(518,498,cs),
(518,591,o),
(448,660,o),
(337,660,cs),
(75,660,l),
(75,0,l),
(141,0,l),
(141,336,l)
);
}
);
width = 604;
},
{
layerId = "4DE8B86A-429B-4593-9BC8-49866BB1A430";
shapes = (
{
closed = 1;
nodes = (
(291,367,l),
(527,0,l),
(558,0,l),
(318,369,l)
);
},
{
closed = 1;
nodes = (
(96,378,l),
(96,639,l),
(324,639,ls),
(421,638,o),
(472,584,o),
(472,508,cs),
(472,432,o),
(423,378,o),
(332,378,cs)
);
},
{
closed = 1;
nodes = (
(329,357,ls),
(437,357,o),
(498,419,o),
(498,509,cs),
(498,593,o),
(439,660,o),
(325,660,cs),
(73,660,l),
(73,0,l),
(96,0,l),
(96,357,l)
);
}
);
width = 569;
},
{
layerId = "0BE882A4-FC89-4865-8E81-154FB3EE808B";
shapes = (
{
closed = 1;
nodes = (
(271,327,l),
(480,0,l),
(636,0,l),
(427,327,l)
);
},
{
closed = 1;
nodes = (
(210,425,l),
(210,536,l),
(354,536,ls),
(387,536,o),
(414,514,o),
(414,481,cs),
(414,445,o),
(395,425,o),
(356,425,cs)
);
},
{
closed = 1;
nodes = (
(372,300,ls),
(467,300,o),
(546,384,o),
(546,480,cs),
(546,581,o),
(469,660,o),
(351,660,cs),
(75,660,l),
(75,0,l),
(210,0,l),
(210,300,l)
);
}
);
width = 651;
},
{
layerId = "9C2CFEA6-85BB-4338-BB26-B1BEA40B5780";
shapes = (
{
closed = 1;
nodes = (
(268,324,l),
(475,0,l),
(644,0,l),
(438,324,l)
);
},
{
closed = 1;
nodes = (
(221,430,l),
(221,526,l),
(357,526,ls),
(384,525,o),
(407,507,o),
(407,478,cs),
(407,446,o),
(392,430,o),
(357,430,cs)
);
},
{
closed = 1;
nodes = (
(375,295,ls),
(470,293,o),
(551,381,o),
(551,477,cs),
(551,581,o),
(470,660,o),
(354,660,cs),
(75,660,l),
(75,0,l),
(221,0,l),
(221,295,l)
);
}
);
width = 659;
}
);
note = R;
unicode = 82;
},
{
glyphname = S;
kernLeft = S;
kernRight = S;
lastChange = "2025-01-07 22:36:44 +0000";
layers = (
{
layerId = m01;
shapes = (
{
closed = 1;
nodes = (
(358,-6,o),
(452,60,o),
(452,170,cs),
(452,254,o),
(413,304,o),
(363,332,cs),
(338,346,o),
(302,363,o),
(255,382,cs),
(171,415,o),
(132,446,o),
(132,503,cs),
(132,563,o),
(180,605,o),
(241,605,cs),
(300,605,o),
(331,584,o),
(367,551,c),
(413,593,l),
(372,637,o),
(322,666,o),
(241,666,cs),
(143,666,o),
(66,592,o),
(66,503,cs),
(66,411,o),
(132,364,o),
(228,324,cs),
(254,314,ls),
(355,274,o),
(386,239,o),
(386,170,cs),
(386,96,o),
(321,55,o),
(235,55,cs),
(170,55,o),
(118,83,o),
(82,124,c),
(33,83,l),
(76,35,o),
(149,-6,o),
(235,-6,cs)
);
}
);
width = 485;
},
{
layerId = "4DE8B86A-429B-4593-9BC8-49866BB1A430";
shapes = (
{
closed = 1;
nodes = (
(336,-6,o),
(423,55,o),
(425,159,cs),
(425,240,o),
(389,288,o),
(342,313,cs),
(319,325,o),
(281,342,o),
(229,364,cs),
(136,401,o),
(84,442,o),
(84,514,cs),
(84,590,o),
(145,644,o),
(224,644,cs),
(287,644,o),
(322,623,o),
(357,596,c),
(375,612,l),
(334,645,o),
(295,666,o),
(224,666,cs),
(140,666,o),
(60,605,o),
(60,514,cs),
(60,427,o),
(122,380,o),
(218,340,cs),
(245,329,ls),
(366,282,o),
(400,243,o),
(400,159,cs),
(400,51,o),
(290,18,o),
(217,18,cs),
(146,18,o),
(88,43,o),
(49,79,c),
(30,62,l),
(88,14,o),
(144,-6,o),
(217,-6,cs)
);
}
);
width = 456;
},
{
layerId = "0BE882A4-FC89-4865-8E81-154FB3EE808B";
shapes = (
{
closed = 1;
nodes = (
(389,-6,o),
(491,68,o),
(491,189,cs),
(491,276,o),
(449,331,o),
(395,363,cs),
(368,379,o),
(333,395,o),
(292,412,cs),
(240,432,o),
(207,450,o),
(207,485,cs),
(207,520,o),
(232,541,o),
(276,541,cs),
(319,541,o),
(341,522,o),
(378,477,c),
(471,562,l),
(424,625,o),
(363,666,o),
(266,666,cs),
(159,666,o),
(72,585,o),
(72,485,cs),
(72,385,o),
(144,336,o),
(241,297,cs),
(264,287,ls),
(328,260,o),
(357,237,o),
(357,189,cs),
(357,143,o),
(324,116,o),
(260,116,cs),
(200,116,o),
(162,149,o),
(131,197,c),
(33,117,l),
(65,57,o),
(144,-6,o),
(260,-6,cs)
);
}
);
width = 525;
},
{
layerId = "9C2CFEA6-85BB-4338-BB26-B1BEA40B5780";
shapes = (
{
closed = 1;
nodes = (
(395,-6,o),
(498,70,o),
(498,191,cs),
(498,279,o),
(455,336,o),
(400,368,cs),
(373,384,o),
(339,400,o),
(299,417,cs),
(258,434,o),
(219,449,o),
(219,482,cs),
(219,511,o),
(241,531,o),
(276,531,cs),
(317,531,o),
(345,508,o),
(380,465,c),
(480,557,l),
(433,624,o),
(370,666,o),
(270,666,cs),
(161,666,o),
(73,584,o),
(73,482,cs),
(73,381,o),
(146,333,o),
(243,292,cs),
(265,283,ls),
(326,256,o),
(353,235,o),
(353,191,cs),
(353,151,o),
(322,126,o),
(265,126,cs),
(205,126,o),
(169,160,o),
(140,209,c),
(33,123,l),
(52,54,o),
(146,-6,o),
(265,-6,cs)
);
}
);
width = 531;
}
);
note = S;
unicode = 83;
},
{
glyphname = Germandbls;
lastChange = "2025-01-07 22:36:56 +0000";
layers = (
{
layerId = m01;
shapes = (
{
closed = 1;
nodes = (
(113,0,l),
(113,660,l),
(47,660,l),
(47,0,l)
);
},
{
closed = 1;
nodes = (
(490,-3,o),
(580,81,o),
(580,196,cs),
(580,317,o),
(498,384,o),
(345,384,c),
(345,367,l),
(574,660,l),
(460,594,l),
(296,392,l),
(296,338,l),
(355,338,ls),
(462,338,o),
(514,280,o),
(514,196,cs),
(514,117,o),
(457,61,o),
(373,61,cs),
(313,61,o),
(272,89,o),
(241,150,c),
(182,123,l),
(215,43,o),
(292,-3,o),
(373,-3,cs)
);
},
{
closed = 1;
nodes = (
(47,594,l),
(460,594,l),
(574,660,l),
(47,660,l)
);
}
);
width = 594;
},
{
layerId = "4DE8B86A-429B-4593-9BC8-49866BB1A430";
shapes = (
{
closed = 1;
nodes = (
(67,0,l),
(67,660,l),
(47,660,l),
(47,0,l)
);
},
{
closed = 1;
nodes = (
(447,-3,o),
(529,80,o),
(529,187,cs),
(529,310,o),
(451,377,o),
(296,377,c),
(297,368,l),
(529,660,l),
(491,640,l),
(276,371,l),
(276,360,l),
(305,360,ls),
(445,359,o),
(508,290,o),
(508,187,cs),
(508,90,o),
(437,21,o),
(333,21,cs),
(265,21,o),
(217,42,o),
(174,111,c),
(157,101,l),
(197,24,o),
(265,-3,o),
(333,-3,cs)
);
},
{
closed = 1;
nodes = (
(47,640,l),
(491,640,l),
(529,660,l),
(47,660,l)
);
}
);
width = 529;
},
{
layerId = "0BE882A4-FC89-4865-8E81-154FB3EE808B";
shapes = (
{
closed = 1;
nodes = (
(182,0,l),
(182,660,l),
(47,660,l),
(47,0,l)
);
},
{
closed = 1;
nodes = (
(563,-3,o),
(656,92,o),
(656,210,cs),
(656,329,o),
(570,394,o),
(419,394,c),
(418,366,l),
(642,660,l),
(413,525,l),
(325,423,l),
(325,305,l),
(430,305,ls),
(487,305,o),
(522,263,o),
(522,210,cs),
(522,158,o),
(488,123,o),
(435,123,cs),
(378,123,o),
(350,161,o),
(342,208,c),
(220,156,l),
(238,63,o),
(344,-3,o),
(435,-3,cs)
);
},
{
closed = 1;
nodes = (
(47,525,l),
(413,525,l),
(642,660,l),
(47,660,l)
);
}
);
width = 691;
},
{
layerId = "9C2CFEA6-85BB-4338-BB26-B1BEA40B5780";
shapes = (
{
closed = 1;
nodes = (
(193,0,l),
(193,660,l),
(47,660,l),
(47,0,l)
);
},
{
closed = 1;
nodes = (
(578,-3,o),
(670,95,o),
(670,213,cs),
(670,330,o),
(582,396,o),
(431,396,c),
(430,366,l),
(653,660,l),
(405,514,l),
(330,429,l),
(330,299,l),
(443,299,ls),
(491,299,o),
(524,261,o),
(524,213,cs),
(524,165,o),
(493,133,o),
(445,133,cs),
(389,133,o),
(363,174,o),
(359,218,c),
(226,162,l),
(242,68,o),
(349,-3,o),
(445,-3,cs)
);
},
{
closed = 1;
nodes = (
(47,514,l),
(405,514,l),
(653,660,l),
(47,660,l)
);
}
);
width = 707;
}
);
note = uni1E9E;
unicode = 7838;
},
{
glyphname = T;
kernLeft = T;
kernRight = T;
lastChange = "2025-01-07 22:23:43 +0000";
layers = (
{
layerId = m01;
shapes = (
{
closed = 1;
nodes = (
(332,0,l),
(332,600,l),
(574,600,l),
(574,660,l),
(24,660,l),
(24,600,l),
(266,600,l),
(266,0,l)
);
}
);
width = 598;
},
{
layerId = "4DE8B86A-429B-4593-9BC8-49866BB1A430";
shapes = (
{
closed = 1;
nodes = (
(301,0,l),
(301,639,l),
(557,639,l),
(557,660,l),
(22,660,l),
(22,639,l),
(276,639,l),
(276,0,l)
);
}
);
width = 578;
},
{
layerId = "0BE882A4-FC89-4865-8E81-154FB3EE808B";
shapes = (
{
closed = 1;
nodes = (
(379,0,l),
(379,536,l),
(599,536,l),
(599,660,l),
(24,660,l),
(24,536,l),
(244,536,l),
(244,0,l)
);
}
);
width = 623;
},
{
layerId = "9C2CFEA6-85BB-4338-BB26-B1BEA40B5780";
shapes = (
{
closed = 1;
nodes = (
(387,0,l),
(387,526,l),
(602,526,l),
(602,660,l),
(24,660,l),
(24,526,l),
(241,526,l),
(241,0,l)
);
}
);
width = 627;
}
);
note = T;
unicode = 84;
},
{
glyphname = U;
kernLeft = U;
kernRight = U;
lastChange = "2025-01-07 22:29:37 +0000";
layers = (
{
layerId = m01;
shapes = (
{
closed = 1;
nodes = (
(430,-6,o),
(510,28,o),
(557,105,cs),
(580,143,o),
(592,191,o),
(592,250,cs),
(592,660,l),
(526,660,l),
(526,250,ls),
(526,123,o),
(449,55,o),
(334,55,cs),
(219,55,o),
(141,123,o),
(141,250,cs),
(141,660,l),
(75,660,l),
(75,250,ls),
(75,133,o),
(126,56,o),
(204,21,cs),
(243,3,o),
(286,-6,o),
(334,-6,cs)
);
}
);
width = 668;
},
{
layerId = "4DE8B86A-429B-4593-9BC8-49866BB1A430";
shapes = (
{
closed = 1;
nodes = (
(417,-6,o),
(498,29,o),
(544,106,cs),
(567,144,o),
(578,192,o),
(578,250,cs),
(578,660,l),
(552,660,l),
(552,254,ls),
(552,101,o),
(458,18,o),
(325,18,cs),
(192,18,o),
(99,101,o),
(99,254,cs),
(98,660,l),
(73,660,l),
(73,251,ls),
(73,134,o),
(123,57,o),
(199,21,cs),
(237,3,o),
(279,-6,o),
(325,-6,cs)
);
}
);
width = 651;
},
{
layerId = "0BE882A4-FC89-4865-8E81-154FB3EE808B";
shapes = (
{
closed = 1;
nodes = (
(446,-6,o),
(528,28,o),
(576,105,cs),
(599,143,o),
(611,191,o),
(611,250,cs),
(611,660,l),
(479,660,l),
(479,244,ls),
(479,160,o),
(427,116,o),
(343,116,cs),
(259,116,o),
(207,160,o),
(207,244,cs),
(207,660,l),
(75,660,l),
(75,250,ls),
(75,133,o),
(126,56,o),
(207,21,cs),
(247,3,o),
(292,-6,o),
(343,-6,cs)
);
}
);
width = 687;
},
{
layerId = "9C2CFEA6-85BB-4338-BB26-B1BEA40B5780";
shapes = (
{
closed = 1;
nodes = (
(448,-6,o),
(531,28,o),
(579,105,cs),
(602,143,o),
(614,191,o),
(614,250,cs),
(614,660,l),
(471,660,l),
(471,243,ls),
(471,166,o),
(424,126,o),
(345,126,cs),
(266,126,o),
(219,166,o),
(219,243,cs),
(218,660,l),
(75,660,l),
(75,250,ls),
(75,133,o),
(126,56,o),
(207,21,cs),
(248,3,o),
(294,-6,o),
(345,-6,cs)
);
}
);
width = 690;
}
);
note = U;
unicode = 85;
},
{
glyphname = V;
kernLeft = V;
kernRight = V;
lastChange = "2025-01-07 22:23:43 +0000";
layers = (
{
layerId = m01;
shapes = (
{
closed = 1;
nodes = (
(337,0,l),
(592,660,l),
(522,660,l),
(297,77,l),
(315,77,l),
(89,660,l),
(19,660,l),
(275,0,l)
);
}
);
width = 611;
},
{
layerId = "4DE8B86A-429B-4593-9BC8-49866BB1A430";
shapes = (
{
closed = 1;
nodes = (
(284,0,l),
(539,660,l),
(514,660,l),
(271,29,l),
(286,29,l),
(41,660,l),
(16,660,l),
(273,0,l)
);
}
);
width = 555;
},
{
layerId = "0BE882A4-FC89-4865-8E81-154FB3EE808B";
shapes = (
{
closed = 1;
nodes = (
(416,0,l),
(671,660,l),
(528,660,l),
(330,149,l),
(360,149,l),
(163,660,l),
(19,660,l),
(274,0,l)
);
}
);
width = 690;
},
{
layerId = "9C2CFEA6-85BB-4338-BB26-B1BEA40B5780";
shapes = (
{
closed = 1;
nodes = (
(429,0,l),
(684,660,l),
(529,660,l),
(336,161,l),
(368,161,l),
(175,660,l),
(19,660,l),
(274,0,l)
);
}
);
width = 703;
}
);
note = V;
unicode = 86;
},
{
glyphname = W;
kernLeft = W;
kernRight = W;
lastChange = "2025-01-07 22:23:43 +0000";
layers = (
{
layerId = m01;
shapes = (
{
closed = 1;
nodes = (
(251,0,l),
(451,563,l),
(651,0,l),
(720,0,l),
(884,660,l),
(816,660,l),
(680,113,l),
(486,660,l),
(416,660,l),
(222,114,l),
(87,660,l),
(19,660,l),
(183,0,l)
);
}
);
width = 902;
},
{
layerId = "4DE8B86A-429B-4593-9BC8-49866BB1A430";
shapes = (
{
closed = 1;
nodes = (
(218,0,l),
(447,647,l),
(677,0,l),
(715,0,l),
(879,660,l),
(855,660,l),
(695,19,l),
(468,660,l),
(426,660,l),
(199,20,l),
(41,660,l),
(16,660,l),
(180,0,l)
);
}
);
width = 895;
},
{
layerId = "0BE882A4-FC89-4865-8E81-154FB3EE808B";
shapes = (
{
closed = 1;
nodes = (
(301,0,l),
(453,426,l),
(604,0,l),
(723,0,l),
(887,660,l),
(748,660,l),
(651,268,l),
(511,660,l),
(394,660,l),
(255,268,l),
(158,660,l),
(19,660,l),
(183,0,l)
);
}
);
width = 905;
},
{
layerId = "9C2CFEA6-85BB-4338-BB26-B1BEA40B5780";
shapes = (
{
closed = 1;
nodes = (
(309,0,l),
(453,404,l),
(596,0,l),
(724,0,l),
(888,660,l),
(737,660,l),
(646,293,l),
(516,660,l),
(391,660,l),
(261,293,l),
(170,660,l),
(19,660,l),
(183,0,l)
);
}
);
width = 905;
}
);
note = W;
unicode = 87;
},
{
glyphname = X;
kernLeft = X;
kernRight = X;
lastChange = "2025-01-07 22:23:43 +0000";
layers = (
{
layerId = m01;
shapes = (
{
closed = 1;
nodes = (
(306,361,l),
(14,0,l),
(96,0,l),
(348,311,l)
);
},
{
closed = 1;
nodes = (
(584,0,l),
(666,0,l),
(129,660,l),
(47,660,l)
);
},
{
closed = 1;
nodes = (
(375,339,l),
(637,660,l),
(554,660,l),
(334,390,l)
);
}
);
width = 680;
},
{
layerId = "4DE8B86A-429B-4593-9BC8-49866BB1A430";
shapes = (
{
closed = 1;
nodes = (
(303,366,l),
(10,0,l),
(39,0,l),
(319,349,l)
);
},
{
closed = 1;
nodes = (
(585,0,l),
(615,0,l),
(78,660,l),
(49,660,l)
);
},
{
closed = 1;
nodes = (
(320,344,l),
(580,660,l),
(550,660,l),
(306,364,l)
);
}
);
width = 625;
},
{
layerId = "0BE882A4-FC89-4865-8E81-154FB3EE808B";
shapes = (
{
closed = 1;
nodes = (
(308,358,l),
(14,0,l),
(182,0,l),
(393,254,l)
);
},
{
closed = 1;
nodes = (
(576,0,l),
(743,0,l),
(206,660,l),
(38,660,l)
);
},
{
closed = 1;
nodes = (
(454,326,l),
(724,660,l),
(554,660,l),
(369,429,l)
);
}
);
width = 757;
},
{
layerId = "9C2CFEA6-85BB-4338-BB26-B1BEA40B5780";
shapes = (
{
closed = 1;
nodes = (
(308,358,l),
(14,0,l),
(196,0,l),
(401,245,l)
);
},
{
closed = 1;
nodes = (
(575,0,l),
(757,0,l),
(220,660,l),
(36,660,l)
);
},
{
closed = 1;
nodes = (
(467,324,l),
(738,660,l),
(554,660,l),
(375,435,l)
);
}
);
width = 770;
}
);
note = X;
unicode = 88;
},
{
glyphname = Y;
kernLeft = Y;
kernRight = Y;
lastChange = "2025-01-07 22:23:43 +0000";
layers = (
{
layerId = m01;
shapes = (
{
closed = 1;
nodes = (
(344,0,l),
(344,320,l),
(608,660,l),
(527,660,l),
(311,382,l),
(95,660,l),
(14,660,l),
(278,320,l),
(278,0,l)
);
}
);
width = 622;
},
{
layerId = "4DE8B86A-429B-4593-9BC8-49866BB1A430";
shapes = (
{
closed = 1;
nodes = (
(293,0,l),
(293,326,l),
(552,660,l),
(523,660,l),
(281,348,l),
(39,660,l),
(10,660,l),
(269,326,l),
(269,0,l)
);
}
);
width = 562;
},
{
layerId = "0BE882A4-FC89-4865-8E81-154FB3EE808B";
shapes = (
{
closed = 1;
nodes = (
(420,0,l),
(420,310,l),
(693,660,l),
(527,660,l),
(353,437,l),
(180,660,l),
(14,660,l),
(286,310,l),
(286,0,l)
);
}
);
width = 707;
},
{
layerId = "9C2CFEA6-85BB-4338-BB26-B1BEA40B5780";
shapes = (
{
closed = 1;
nodes = (
(434,0,l),
(434,308,l),
(707,660,l),
(527,660,l),
(361,446,l),
(194,660,l),
(14,660,l),
(288,308,l),
(288,0,l)
);
}
);
width = 721;
}
);
note = Y;
unicode = 89;
},
{
glyphname = Z;
kernLeft = Z;
kernRight = Z;
lastChange = "2025-01-07 22:23:43 +0000";
layers = (
{
layerId = m01;
shapes = (
{
closed = 1;
nodes = (
(560,0,l),
(560,60,l),
(133,60,l),
(568,660,l),
(69,660,l),
(69,600,l),
(445,600,l),
(9,0,l)
);
}
);
width = 577;
},
{
layerId = "4DE8B86A-429B-4593-9BC8-49866BB1A430";
shapes = (
{
closed = 1;
nodes = (
(501,0,l),
(501,21,l),
(51,21,l),
(514,660,l),
(81,660,l),
(81,639,l),
(469,639,l),
(5,0,l)
);
}
);
width = 513;
},
{
layerId = "0BE882A4-FC89-4865-8E81-154FB3EE808B";
shapes = (
{
closed = 1;
nodes = (
(648,0,l),
(648,124,l),
(262,124,l),
(650,660,l),
(48,660,l),
(48,536,l),
(398,536,l),
(9,0,l)
);
}
);
width = 668;
},
{
layerId = "9C2CFEA6-85BB-4338-BB26-B1BEA40B5780";
shapes = (
{
closed = 1;
nodes = (
(663,0,l),
(663,134,l),
(284,134,l),
(664,660,l),
(44,660,l),
(44,526,l),
(390,526,l),
(9,0,l)
);
}
);
width = 684;
}
);
note = Z;
unicode = 90;
},
{
glyphname = Saltillo;
lastChange = "2025-01-07 22:23:43 +0000";
layers = (
{
layerId = m01;
shapes = (
{
closed = 1;
nodes = (
(287,376,l),
(340,376,l),
(346,777,l),
(280,777,l)
);
}
);
width = 600;
},
{
layerId = "4DE8B86A-429B-4593-9BC8-49866BB1A430";
shapes = (
{
closed = 1;
nodes = (
(313,376,l),
(329,376,l),
(330,778,l),
(310,778,l)
);
}
);
width = 600;
},
{
layerId = "0BE882A4-FC89-4865-8E81-154FB3EE808B";
shapes = (
{
closed = 1;
nodes = (
(257,376,l),
(365,376,l),
(378,777,l),
(243,777,l)
);
}
);
width = 600;
},
{
layerId = "9C2CFEA6-85BB-4338-BB26-B1BEA40B5780";
shapes = (
{
closed = 1;
nodes = (
(258,376,l),
(375,376,l),
(389,778,l),
(243,778,l)
);
}
);
width = 600;
}
);
note = uniA78B;
unicode = 42891;
},
{
glyphname = a;
kernLeft = a;
kernRight = a;
lastChange = "2025-01-07 22:37:14 +0000";
layers = (
{
layerId = m01;
shapes = (
{
closed = 1;
nodes = (
(287,-6,o),
(346,56,o),
(346,126,c),
(343,144,l),
(343,0,l),
(409,0,l),
(409,317,ls),
(409,419,o),
(336,477,o),
(225,477,cs),
(144,477,o),
(89,442,o),
(49,391,c),
(94,352,l),
(130,395,o),
(169,417,o),
(225,417,cs),
(301,417,o),
(343,385,o),
(343,317,cs),
(343,231,l),
(368,267,l),
(335,278,o),
(288,284,o),
(248,284,cs),
(123,284,o),
(38,243,o),
(38,130,cs),
(38,40,o),
(112,-6,o),
(196,-6,cs)
);
},
{
closed = 1;
nodes = (
(137,57,o),
(104,94,o),
(104,137,cs),
(104,204,o),
(158,233,o),
(261,233,cs),
(290,233,o),
(317,230,o),
(343,223,c),
(343,118,o),
(288,57,o),
(196,57,cs)
);
}
);
width = 480;
},
{
layerId = "4DE8B86A-429B-4593-9BC8-49866BB1A430";
shapes = (
{
closed = 1;
nodes = (
(312,-7,o),
(370,86,o),
(370,160,c),
(368,178,l),
(368,0,l),
(391,0,l),
(391,329,ls),
(393,431,o),
(322,477,o),
(225,477,cs),
(145,477,o),
(99,445,o),
(59,397,c),
(75,384,l),
(118,431,o),
(158,455,o),
(225,455,cs),
(316,455,o),
(368,416,o),
(368,325,cs),
(368,252,l),
(377,259,l),
(341,266,o),
(299,271,o),
(262,271,cs),
(129,271,o),
(45,235,o),
(45,119,cs),
(45,38,o),
(117,-7,o),
(193,-7,cs)
);
},
{
closed = 1;
nodes = (
(113,18,o),
(69,70,o),
(69,126,cs),
(69,214,o),
(138,250,o),
(269,250,cs),
(303,250,o),
(336,247,o),
(368,240,c),
(368,96,o),
(301,18,o),
(188,18,cs)
);
}
);
width = 482;
},
{
layerId = "0BE882A4-FC89-4865-8E81-154FB3EE808B";
shapes = (
{
closed = 1;
nodes = (
(269,-5,o),
(308,31,o),
(310,74,c),
(305,93,l),
(305,0,l),
(434,0,l),
(434,298,ls),
(436,409,o),
(347,477,o),
(225,477,cs),
(140,477,o),
(73,438,o),
(34,383,c),
(121,304,l),
(149,343,o),
(182,360,o),
(225,360,cs),
(280,360,o),
(306,339,o),
(306,304,cs),
(305,251,l),
(324,288,l),
(304,296,o),
(262,304,o),
(225,304,cs),
(113,304,o),
(25,252,o),
(25,144,cs),
(25,60,o),
(86,-5,o),
(201,-5,cs)
);
},
{
closed = 1;
nodes = (
(172,114,o),
(155,131,o),
(155,152,cs),
(155,191,o),
(188,207,o),
(248,207,cs),
(269,207,o),
(289,204,o),
(306,199,c),
(305,147,o),
(267,114,o),
(207,114,cs)
);
}
);
width = 477;
},
{
layerId = "9C2CFEA6-85BB-4338-BB26-B1BEA40B5780";
shapes = (
{
closed = 1;
nodes = (
(266,-5,o),
(302,25,o),
(304,66,c),
(299,85,l),
(299,0,l),
(439,0,l),
(439,295,ls),
(439,408,o),
(352,477,o),
(225,477,cs),
(140,477,o),
(71,437,o),
(31,382,c),
(126,296,l),
(153,333,o),
(185,351,o),
(225,351,cs),
(276,351,o),
(299,331,o),
(299,302,cs),
(299,255,l),
(315,292,l),
(294,300,o),
(257,307,o),
(222,307,cs),
(111,307,o),
(24,254,o),
(24,147,cs),
(24,61,o),
(83,-5,o),
(202,-5,cs)
);
},
{
closed = 1;
nodes = (
(180,124,o),
(163,138,o),
(163,155,cs),
(163,188,o),
(193,204,o),
(246,204,cs),
(265,204,o),
(283,201,o),
(299,195,c),
(299,154,o),
(264,124,o),
(209,124,cs)
);
}
);
width = 477;
}
);
note = a;
unicode = 97;
},
{
glyphname = b;
kernLeft = b;
kernRight = b;
lastChange = "2025-01-07 22:37:19 +0000";
layers = (
{
layerId = m01;
shapes = (
{
closed = 1;
nodes = (
(57,1,l),
(123,1,l),
(123,67,l),
(156,19,o),
(205,-5,o),
(270,-5,cs),
(423,-5,o),
(510,121,o),
(510,236,cs),
(510,373,o),
(408,478,o),
(275,478,cs),
(208,478,o),
(158,456,o),
(123,405,c),
(123,661,l),
(57,661,l)
);
},
{
closed = 1;
nodes = (
(375,417,o),
(444,337,o),
(444,236,cs),
(444,136,o),
(369,55,o),
(270,55,cs),
(194,55,o),
(142,96,o),
(123,147,c),
(123,324,l),
(144,376,o),
(200,417,o),
(275,417,cs)
);
}
);
width = 543;
},
{
layerId = "4DE8B86A-429B-4593-9BC8-49866BB1A430";
shapes = (
{
closed = 1;
nodes = (
(57,1,l),
(81,1,l),
(81,93,l),
(122,28,o),
(181,-5,o),
(258,-5,cs),
(391,-5,o),
(491,104,o),
(491,236,cs),
(491,374,o),
(391,478,o),
(265,478,cs),
(185,478,o),
(123,448,o),
(80,377,c),
(81,661,l),
(57,661,l)
);
},
{
closed = 1;
nodes = (
(380,457,o),
(468,363,o),
(468,236,cs),
(468,115,o),
(376,16,o),
(258,16,cs),
(169,16,o),
(104,70,o),
(80,133,c),
(81,338,l),
(105,405,o),
(177,457,o),
(265,457,cs)
);
}
);
width = 524;
},
{
layerId = "0BE882A4-FC89-4865-8E81-154FB3EE808B";
shapes = (
{
closed = 1;
nodes = (
(57,1,l),
(187,1,l),
(187,27,l),
(207,6,o),
(240,-5,o),
(287,-5,cs),
(425,-5,o),
(538,94,o),
(538,236,cs),
(538,371,o),
(438,478,o),
(291,478,cs),
(244,478,o),
(212,468,o),
(187,447,c),
(187,661,l),
(57,661,l)
);
},
{
closed = 1;
nodes = (
(360,358,o),
(409,306,o),
(409,236,cs),
(409,164,o),
(356,115,o),
(287,115,cs),
(231,115,o),
(199,137,o),
(187,166,c),
(187,302,l),
(202,334,o),
(238,358,o),
(291,358,cs)
);
}
);
width = 571;
},
{
layerId = "9C2CFEA6-85BB-4338-BB26-B1BEA40B5780";
shapes = (
{
closed = 1;
nodes = (
(57,1,l),
(197,1,l),
(197,21,l),
(216,4,o),
(247,-5,o),
(290,-5,cs),
(428,-5,o),
(543,95,o),
(543,236,cs),
(543,378,o),
(434,478,o),
(294,478,cs),
(250,478,o),
(221,470,o),
(197,454,c),
(197,661,l),
(57,661,l)
);
},
{
closed = 1;
nodes = (
(359,348,o),
(404,299,o),
(404,236,cs),
(404,169,o),
(355,124,o),
(290,124,cs),
(238,124,o),
(209,142,o),
(197,169,c),
(197,299,l),
(210,327,o),
(243,348,o),
(294,348,cs)
);
}
);
width = 576;
}
);
note = b;
unicode = 98;
},
{
glyphname = c;
kernLeft = c;
kernRight = c;
lastChange = "2025-01-07 22:37:24 +0000";
layers = (
{
layerId = m01;
shapes = (
{
closed = 1;
nodes = (
(369,-6,o),
(433,32,o),
(472,88,c),
(422,128,l),
(394,83,o),
(352,55,o),
(281,55,cs),
(174,55,o),
(99,126,o),
(99,237,cs),
(99,342,o),
(173,417,o),
(281,417,cs),
(342,417,o),
(396,387,o),
(417,340,c),
(466,383,l),
(434,443,o),
(357,477,o),
(281,477,cs),
(139,477,o),
(33,378,o),
(33,237,cs),
(33,91,o),
(140,-6,o),
(281,-6,cs)
);
}
);
width = 501;
},
{
layerId = "4DE8B86A-429B-4593-9BC8-49866BB1A430";
shapes = (
{
closed = 1;
nodes = (
(354,-6,o),
(412,27,o),
(449,76,c),
(430,91,l),
(394,46,o),
(357,16,o),
(274,16,cs),
(143,16,o),
(57,109,o),
(57,238,cs),
(57,370,o),
(150,456,o),
(274,456,cs),
(347,456,o),
(404,420,o),
(423,371,c),
(445,384,l),
(417,449,o),
(343,477,o),
(274,477,cs),
(143,477,o),
(33,387,o),
(33,238,cs),
(33,83,o),
(142,-6,o),
(274,-6,cs)
);
}
);
width = 478;
},
{
layerId = "0BE882A4-FC89-4865-8E81-154FB3EE808B";
shapes = (
{
closed = 1;
nodes = (
(391,-6,o),
(467,38,o),
(507,105,c),
(411,183,l),
(388,136,o),
(347,113,o),
(291,113,cs),
(214,113,o),
(162,163,o),
(162,236,cs),
(162,305,o),
(214,357,o),
(291,357,cs),
(336,357,o),
(385,336,o),
(406,295,c),
(497,381,l),
(458,437,o),
(378,477,o),
(291,477,cs),
(141,477,o),
(33,372,o),
(33,236,cs),
(33,95,o),
(144,-6,o),
(291,-6,cs)
);
}
);
width = 536;
},
{
layerId = "9C2CFEA6-85BB-4338-BB26-B1BEA40B5780";
shapes = (
{
closed = 1;
nodes = (
(394,-6,o),
(473,40,o),
(513,108,c),
(409,192,l),
(386,144,o),
(346,123,o),
(293,123,cs),
(220,123,o),
(173,167,o),
(173,236,cs),
(173,301,o),
(223,348,o),
(293,348,cs),
(336,348,o),
(382,328,o),
(405,288,c),
(503,381,l),
(462,436,o),
(381,477,o),
(293,477,cs),
(146,477,o),
(33,375,o),
(33,236,cs),
(33,101,o),
(138,-6,o),
(293,-6,cs)
);
}
);
width = 542;
}
);
note = c;
unicode = 99;
},
{
glyphname = d;
kernLeft = d;
lastChange = "2025-01-07 22:37:29 +0000";
layers = (
{
layerId = m01;
shapes = (
{
closed = 1;
nodes = (
(421,660,l),
(421,405,l),
(385,456,o),
(335,477,o),
(268,477,cs),
(134,477,o),
(33,374,o),
(33,236,cs),
(33,93,o),
(148,-6,o),
(273,-6,cs),
(338,-6,o),
(388,18,o),
(421,67,c),
(421,0,l),
(487,0,l),
(487,660,l)
);
},
{
closed = 1;
nodes = (
(343,417,o),
(398,376,o),
(421,323,c),
(421,146,l),
(401,95,o),
(349,55,o),
(273,55,cs),
(178,55,o),
(99,130,o),
(99,236,cs),
(99,337,o),
(168,417,o),
(268,417,cs)
);
}
);
width = 543;
},
{
layerId = "4DE8B86A-429B-4593-9BC8-49866BB1A430";
shapes = (
{
closed = 1;
nodes = (
(445,660,l),
(445,377,l),
(401,448,o),
(339,477,o),
(259,477,cs),
(134,477,o),
(33,373,o),
(33,236,cs),
(33,101,o),
(139,-6,o),
(266,-6,cs),
(343,-6,o),
(403,27,o),
(444,93,c),
(445,0,l),
(468,0,l),
(468,660,l)
);
},
{
closed = 1;
nodes = (
(348,456,o),
(419,403,o),
(444,338,c),
(445,133,l),
(420,69,o),
(355,15,o),
(266,15,cs),
(135,15,o),
(57,131,o),
(57,236,cs),
(57,363,o),
(145,456,o),
(259,456,cs)
);
}
);
width = 524;
},
{
layerId = "0BE882A4-FC89-4865-8E81-154FB3EE808B";
shapes = (
{
closed = 1;
nodes = (
(385,660,l),
(385,447,l),
(360,468,o),
(327,477,o),
(280,477,cs),
(141,477,o),
(33,377,o),
(33,236,cs),
(33,99,o),
(141,-6,o),
(285,-6,cs),
(332,-6,o),
(365,5,o),
(385,27,c),
(385,0,l),
(515,0,l),
(515,660,l)
);
},
{
closed = 1;
nodes = (
(335,357,o),
(370,334,o),
(385,302,c),
(385,166,l),
(372,135,o),
(340,114,o),
(285,114,cs),
(214,114,o),
(162,166,o),
(162,236,cs),
(162,305,o),
(210,357,o),
(280,357,cs)
);
}
);
width = 571;
},
{
layerId = "9C2CFEA6-85BB-4338-BB26-B1BEA40B5780";
shapes = (
{
closed = 1;
nodes = (
(380,660,l),
(380,454,l),
(355,470,o),
(326,477,o),
(282,477,cs),
(136,477,o),
(33,371,o),
(33,236,cs),
(33,99,o),
(142,-6,o),
(287,-6,cs),
(330,-6,o),
(360,3,o),
(379,21,c),
(380,0,l),
(520,0,l),
(520,660,l)
);
},
{
closed = 1;
nodes = (
(333,347,o),
(366,326,o),
(379,298,c),
(380,169,l),
(367,141,o),
(339,124,o),
(287,124,cs),
(220,124,o),
(173,169,o),
(173,236,cs),
(173,300,o),
(216,347,o),
(282,347,cs)
);
}
);
width = 576;
}
);
note = d;
unicode = 100;
},
{
glyphname = dcroat;
kernLeft = d;
lastChange = "2025-01-07 22:37:34 +0000";
layers = (
{
layerId = m01;
shapes = (
{
closed = 1;
nodes = (
(421,660,l),
(421,405,l),
(385,456,o),
(335,477,o),
(268,477,cs),
(134,477,o),
(33,374,o),
(33,236,cs),
(33,93,o),
(148,-6,o),
(273,-6,cs),
(338,-6,o),
(388,18,o),
(421,67,c),
(421,0,l),
(487,0,l),
(487,660,l)
);
},
{
closed = 1;
nodes = (
(343,417,o),
(398,376,o),
(421,323,c),
(421,146,l),
(401,95,o),
(349,55,o),
(273,55,cs),
(178,55,o),
(99,130,o),
(99,236,cs),
(99,337,o),
(168,417,o),
(268,417,cs)
);
},
{
closed = 1;
nodes = (
(278,531,l),
(560,531,l),
(560,597,l),
(278,597,l)
);
}
);
width = 543;
},
{
layerId = "4DE8B86A-429B-4593-9BC8-49866BB1A430";
shapes = (
{
closed = 1;
nodes = (
(445,660,l),
(445,377,l),
(401,448,o),
(339,477,o),
(259,477,cs),
(134,477,o),
(33,373,o),
(33,236,cs),
(33,101,o),
(139,-6,o),
(266,-6,cs),
(343,-6,o),
(403,27,o),
(444,93,c),
(445,0,l),
(468,0,l),
(468,660,l)
);
},
{
closed = 1;
nodes = (
(348,456,o),
(419,403,o),
(444,338,c),
(445,133,l),
(420,69,o),
(355,15,o),
(266,15,cs),
(135,15,o),
(57,131,o),
(57,236,cs),
(57,363,o),
(145,456,o),
(259,456,cs)
);
},
{
closed = 1;
nodes = (
(320,551,l),
(542,551,l),
(542,574,l),
(320,574,l)
);
}
);
width = 524;
},
{
layerId = "0BE882A4-FC89-4865-8E81-154FB3EE808B";
shapes = (
{
closed = 1;
nodes = (
(385,660,l),
(385,447,l),
(360,468,o),
(327,477,o),
(280,477,cs),
(141,477,o),
(33,377,o),
(33,236,cs),
(33,99,o),
(141,-6,o),
(285,-6,cs),
(332,-6,o),
(365,5,o),
(385,27,c),
(385,0,l),
(515,0,l),
(515,660,l)
);
},
{
closed = 1;
nodes = (
(335,357,o),
(370,334,o),
(385,302,c),
(385,166,l),
(372,135,o),
(340,114,o),
(285,114,cs),
(214,114,o),
(162,166,o),
(162,236,cs),
(162,305,o),
(210,357,o),
(280,357,cs)
);
},
{
closed = 1;
nodes = (
(217,496,l),
(588,496,l),
(588,631,l),
(217,631,l)
);
}
);
width = 571;
},
{
layerId = "9C2CFEA6-85BB-4338-BB26-B1BEA40B5780";
shapes = (
{
closed = 1;
nodes = (
(380,660,l),
(380,454,l),
(355,470,o),
(326,477,o),
(282,477,cs),
(136,477,o),
(33,371,o),
(33,236,cs),
(33,99,o),
(142,-6,o),
(287,-6,cs),
(330,-6,o),
(360,3,o),
(379,21,c),
(380,0,l),
(520,0,l),
(520,660,l)
);
},
{
closed = 1;
nodes = (
(333,347,o),
(366,326,o),
(379,298,c),
(380,169,l),
(367,141,o),
(339,124,o),
(287,124,cs),
(220,124,o),
(173,169,o),
(173,236,cs),
(173,300,o),
(216,347,o),
(282,347,cs)
);
},
{
closed = 1;
nodes = (
(199,490,l),
(596,490,l),
(596,637,l),
(199,637,l)
);
}
);
width = 576;
}
);
note = dcroat;
unicode = 273;
},
{
glyphname = eth;
kernLeft = c;
kernRight = eth;
lastChange = "2025-01-07 22:38:32 +0000";
layers = (
{
layerId = m01;
shapes = (
{
closed = 1;
nodes = (
(383,-8,o),
(467,91,o),
(467,216,cs),
(467,385,o),
(406,536,o),
(302,620,c),
(372,702,l),
(323,741,l),
(249,656,l),
(199,683,o),
(144,696,o),
(85,696,c),
(85,636,l),
(129,636,o),
(170,626,o),
(207,607,c),
(169,564,l),
(219,524,l),
(260,572,l),
(306,535,o),
(342,482,o),
(368,414,c),
(339,431,o),
(309,440,o),
(277,440,cs),
(171,440,o),
(88,340,o),
(88,216,cs),
(88,92,o),
(172,-8,o),
(277,-8,cs)
);
},
{
closed = 1;
nodes = (
(213,52,o),
(154,124,o),
(154,216,cs),
(154,307,o),
(210,380,o),
(277,380,cs),
(344,380,o),
(401,307,o),
(401,216,cs),
(401,128,o),
(347,52,o),
(277,52,cs)
);
}
);
width = 566;
},
{
layerId = "4DE8B86A-429B-4593-9BC8-49866BB1A430";
shapes = (
{
closed = 1;
nodes = (
(376,-12,o),
(455,89,o),
(455,196,cs),
(455,379,o),
(391,535,o),
(284,622,c),
(361,712,l),
(330,733,l),
(254,647,l),
(207,676,o),
(154,692,o),
(97,697,c),
(97,680,l),
(151,676,o),
(200,661,o),
(243,634,c),
(196,580,l),
(229,558,l),
(271,607,l),
(337,554,o),
(387,478,o),
(420,378,c),
(374,407,o),
(326,421,o),
(277,421,cs),
(175,421,o),
(100,325,o),
(100,204,cs),
(100,78,o),
(186,-12,o),
(277,-12,cs)
);
},
{
closed = 1;
nodes = (
(197,5,o),
(120,87,o),
(120,204,cs),
(120,309,o),
(193,404,o),
(277,404,cs),
(362,404,o),
(435,314,o),
(435,204,cs),
(435,108,o),
(368,5,o),
(277,5,cs)
);
}
);
width = 566;
},
{
layerId = "0BE882A4-FC89-4865-8E81-154FB3EE808B";
shapes = (
{
closed = 1;
nodes = (
(396,-3,o),
(484,106,o),
(484,246,cs),
(484,394,o),
(430,534,o),
(329,618,c),
(389,687,l),
(313,752,l),
(241,670,l),
(186,693,o),
(128,701,o),
(67,695,c),
(67,570,l),
(96,574,o),
(125,573,o),
(152,568,c),
(128,539,l),
(204,473,l),
(243,519,l),
(263,502,o),
(279,485,o),
(290,468,c),
(287,469,o),
(283,470,o),
(277,470,cs),
(167,470,o),
(70,366,o),
(70,234,cs),
(70,105,o),
(161,-3,o),
(277,-3,cs)
);
},
{
closed = 1;
nodes = (
(243,123,o),
(205,167,o),
(205,234,cs),
(205,302,o),
(235,345,o),
(277,345,cs),
(310,345,o),
(350,301,o),
(350,235,cs),
(350,163,o),
(318,123,o),
(277,123,cs)
);
}
);
width = 566;
},
{
layerId = "9C2CFEA6-85BB-4338-BB26-B1BEA40B5780";
shapes = (
{
closed = 1;
nodes = (
(394,-2,o),
(487,101,o),
(487,251,cs),
(487,396,o),
(434,535,o),
(334,618,c),
(392,684,l),
(311,754,l),
(241,673,l),
(184,695,o),
(125,702,o),
(64,695,c),
(64,559,l),
(91,564,o),
(117,565,o),
(142,561,c),
(121,536,l),
(201,465,l),
(240,511,l),
(269,493,o),
(300,475,o),
(315,454,c),
(304,468,o),
(286,474,o),
(277,474,cs),
(145,474,o),
(67,342,o),
(67,237,cs),
(67,107,o),
(159,-2,o),
(277,-2,cs)
);
},
{
closed = 1;
nodes = (
(247,135,o),
(213,176,o),
(213,237,cs),
(213,302,o),
(239,339,o),
(277,339,cs),
(307,339,o),
(341,298,o),
(341,238,cs),
(341,170,o),
(315,135,o),
(277,135,cs)
);
}
);
width = 566;
}
);
note = eth;
unicode = 240;
},
{
glyphname = e;
kernLeft = c;
kernRight = ae;
lastChange = "2025-01-07 22:39:03 +0000";
layers = (
{
layerId = m01;
shapes = (
{
closed = 1;
nodes = (
(67,223,l),
(470,223,l),
(496,370,o),
(409,484,o),
(261,484,cs),
(121,484,o),
(33,387,o),
(33,245,cs),
(33,99,o),
(121,-9,o),
(272,-9,cs),
(398,-9,o),
(458,72,o),
(472,102,c),
(422,141,l),
(398,86,o),
(351,51,o),
(272,51,cs),
(168,51,o),
(99,123,o),
(99,245,cs),
(99,367,o),
(169,429,o),
(261,429,cs),
(363,429,o),
(418,361,o),
(404,256,c),
(422,275,l),
(67,275,l)
);
}
);
width = 503;
},
{
layerId = "4DE8B86A-429B-4593-9BC8-49866BB1A430";
shapes = (
{
closed = 1;
nodes = (
(48,234,l),
(456,234,l),
(478,314,o),
(444,484,o),
(256,484,cs),
(118,484,o),
(33,386,o),
(33,247,cs),
(33,99,o),
(122,-8,o),
(264,-8,cs),
(393,-8,o),
(444,71,o),
(456,103,c),
(437,116,l),
(408,55,o),
(351,14,o),
(264,14,cs),
(145,14,o),
(58,105,o),
(58,247,cs),
(58,404,o),
(169,464,o),
(256,464,cs),
(376,464,o),
(450,380,o),
(436,245,c),
(441,256,l),
(48,256,l)
);
}
);
width = 488;
},
{
layerId = "0BE882A4-FC89-4865-8E81-154FB3EE808B";
shapes = (
{
closed = 1;
nodes = (
(95,206,l),
(492,206,l),
(522,426,o),
(384,484,o),
(269,484,cs),
(125,484,o),
(33,389,o),
(33,242,cs),
(33,79,o),
(144,-10,o),
(283,-10,cs),
(388,-10,o),
(457,35,o),
(497,101,c),
(399,180,l),
(386,133,o),
(352,106,o),
(283,106,cs),
(205,106,o),
(161,148,o),
(161,242,cs),
(161,333,o),
(194,377,o),
(269,377,cs),
(344,377,o),
(368,335,o),
(356,273,c),
(394,303,l),
(95,303,l)
);
}
);
width = 526;
},
{
layerId = "9C2CFEA6-85BB-4338-BB26-B1BEA40B5780";
shapes = (
{
closed = 1;
nodes = (
(100,203,l),
(495,203,l),
(527,439,o),
(379,484,o),
(270,484,cs),
(125,484,o),
(33,389,o),
(33,242,cs),
(33,73,o),
(150,-10,o),
(285,-10,cs),
(387,-10,o),
(459,31,o),
(501,101,c),
(396,186,l),
(383,142,o),
(353,115,o),
(285,115,cs),
(212,115,o),
(172,152,o),
(172,242,cs),
(172,329,o),
(198,369,o),
(270,369,cs),
(340,369,o),
(363,333,o),
(348,276,c),
(389,308,l),
(100,308,l)
);
}
);
width = 529;
}
);
note = e;
unicode = 101;
},
{
glyphname = f;
kernLeft = f;
kernRight = f;
lastChange = "2025-01-07 22:29:37 +0000";
layers = (
{
layerId = m01;
shapes = (
{
closed = 1;
nodes = (
(163,0,l),
(163,411,l),
(298,411,l),
(298,472,l),
(163,472,l),
(163,538,ls),
(163,589,o),
(180,616,o),
(223,616,cs),
(248,616,o),
(271,604,o),
(291,581,c),
(325,629,l),
(305,658,o),
(263,674,o),
(218,674,cs),
(131,674,o),
(97,623,o),
(97,538,cs),
(97,472,l),
(8,472,l),
(8,411,l),
(97,411,l),
(97,0,l)
);
}
);
width = 324;
},
{
layerId = "4DE8B86A-429B-4593-9BC8-49866BB1A430";
shapes = (
{
closed = 1;
nodes = (
(125,0,l),
(125,451,l),
(273,451,l),
(273,472,l),
(125,472,l),
(125,556,ls),
(125,620,o),
(146,654,o),
(205,654,cs),
(236,654,o),
(262,643,o),
(283,621,c),
(298,637,l),
(287,658,o),
(251,677,o),
(207,677,cs),
(135,677,o),
(102,637,o),
(102,556,cs),
(102,472,l),
(4,472,l),
(4,451,l),
(102,451,l),
(102,0,l)
);
}
);
width = 293;
},
{
layerId = "0BE882A4-FC89-4865-8E81-154FB3EE808B";
shapes = (
{
closed = 1;
nodes = (
(220,0,l),
(220,352,l),
(335,352,l),
(335,472,l),
(220,472,l),
(220,511,ls),
(220,543,o),
(233,557,o),
(250,557,cs),
(268,557,o),
(286,545,o),
(305,520,c),
(366,616,l),
(331,656,o),
(286,670,o),
(234,670,cs),
(125,670,o),
(91,603,o),
(91,511,cs),
(90,472,l),
(14,472,l),
(14,352,l),
(90,352,l),
(90,0,l)
);
}
);
width = 371;
},
{
layerId = "9C2CFEA6-85BB-4338-BB26-B1BEA40B5780";
shapes = (
{
closed = 1;
nodes = (
(229,0,l),
(229,342,l),
(341,342,l),
(341,472,l),
(229,472,l),
(229,506,ls),
(229,537,o),
(242,548,o),
(255,548,cs),
(272,548,o),
(289,535,o),
(306,509,c),
(372,614,l),
(336,655,o),
(289,670,o),
(237,670,cs),
(124,670,o),
(90,601,o),
(90,506,cs),
(89,472,l),
(15,472,l),
(15,342,l),
(89,342,l),
(89,0,l)
);
}
);
width = 379;
}
);
note = f;
unicode = 102;
},
{
glyphname = g;
kernLeft = g;
kernRight = g;
lastChange = "2025-01-07 22:40:26 +0000";
layers = (
{
layerId = m01;
shapes = (
{
closed = 1;
nodes = (
(381,409,l),
(490,393,l),
(501,467,l),
(323,456,l)
);
},
{
closed = 1;
nodes = (
(199,195,o),
(151,243,o),
(151,306,cs),
(151,371,o),
(198,417,o),
(256,417,cs),
(315,417,o),
(363,372,o),
(363,306,cs),
(363,240,o),
(312,195,o),
(256,195,cs)
);
},
{
closed = 1;
nodes = (
(131,2,l),
(71,-25,o),
(31,-77,o),
(31,-141,cs),
(31,-225,o),
(102,-288,o),
(236,-288,cs),
(423,-288,o),
(495,-198,o),
(495,-101,cs),
(495,-22,o),
(451,16,o),
(387,29,cs),
(355,35,o),
(315,38,o),
(268,38,cs),
(197,37,ls),
(134,37,o),
(97,51,o),
(97,94,cs),
(97,134,o),
(123,150,o),
(149,153,cs),
(161,155,o),
(172,153,o),
(181,150,cs),
(213,138,o),
(231,135,o),
(256,135,cs),
(353,135,o),
(429,211,o),
(429,306,cs),
(429,401,o),
(351,477,o),
(256,477,cs),
(167,477,o),
(85,406,o),
(85,306,cs),
(85,254,o),
(108,208,o),
(145,175,c),
(178,188,l),
(91,199,o),
(37,147,o),
(37,86,cs),
(37,23,o),
(79,-7,o),
(138,-15,cs),
(167,-20,o),
(204,-22,o),
(247,-23,cs),
(280,-23,ls),
(380,-23,o),
(430,-40,o),
(430,-105,cs),
(430,-186,o),
(356,-227,o),
(237,-227,cs),
(132,-227,o),
(90,-181,o),
(91,-117,cs),
(91,-69,o),
(132,-26,o),
(174,-16,c)
);
}
);
width = 529;
},
{
layerId = "4DE8B86A-429B-4593-9BC8-49866BB1A430";
shapes = (
{
closed = 1;
nodes = (
(360,436,l),
(472,422,l),
(486,466,l),
(326,454,l)
);
},
{
closed = 1;
nodes = (
(180,169,o),
(117,232,o),
(117,313,cs),
(117,397,o),
(180,456,o),
(256,456,cs),
(334,456,o),
(397,396,o),
(397,313,cs),
(397,230,o),
(334,169,o),
(256,169,cs)
);
},
{
closed = 1;
nodes = (
(138,14,l),
(77,-15,o),
(40,-69,o),
(40,-136,cs),
(40,-237,o),
(125,-289,o),
(237,-289,cs),
(416,-289,o),
(487,-191,o),
(487,-108,cs),
(487,-33,o),
(448,2,o),
(388,14,cs),
(358,19,o),
(318,22,o),
(269,22,cs),
(196,21,ls),
(129,21,o),
(83,38,o),
(83,91,cs),
(83,138,o),
(111,163,o),
(143,169,cs),
(158,172,o),
(171,171,o),
(180,166,c),
(221,150,o),
(232,147,o),
(256,147,cs),
(352,147,o),
(421,225,o),
(421,313,cs),
(421,404,o),
(347,477,o),
(256,477,cs),
(171,477,o),
(93,409,o),
(93,313,cs),
(93,258,o),
(118,211,o),
(159,178,c),
(174,181,l),
(84,188,o),
(58,121,o),
(58,88,cs),
(58,29,o),
(105,4,o),
(157,-1,cs),
(182,-4,o),
(212,-5,o),
(246,-4,cs),
(266,-4,ls),
(401,-4,o),
(461,-23,o),
(461,-103,cs),
(461,-210,o),
(368,-266,o),
(237,-266,cs),
(109,-266,o),
(61,-203,o),
(62,-120,cs),
(64,-68,o),
(104,-14,o),
(163,2,c)
);
}
);
width = 525;
},
{
layerId = "0BE882A4-FC89-4865-8E81-154FB3EE808B";
shapes = (
{
closed = 1;
nodes = (
(412,368,l),
(517,350,l),
(524,468,l),
(318,459,l)
);
},
{
closed = 1;
nodes = (
(226,235,o),
(202,257,o),
(202,296,cs),
(202,335,o),
(226,357,o),
(256,357,cs),
(287,357,o),
(312,335,o),
(312,296,cs),
(312,257,o),
(287,235,o),
(256,235,cs)
);
},
{
closed = 1;
nodes = (
(121,-16,l),
(64,-39,o),
(19,-88,o),
(19,-147,cs),
(19,-262,o),
(142,-287,o),
(235,-287,cs),
(412,-287,o),
(507,-224,o),
(507,-90,cs),
(507,-5,o),
(454,38,o),
(385,52,cs),
(350,59,o),
(311,62,o),
(266,62,cs),
(198,61,ls),
(152,61,o),
(118,68,o),
(118,100,cs),
(118,118,o),
(132,129,o),
(152,130,cs),
(161,130,o),
(172,129,o),
(183,125,cs),
(203,120,o),
(228,116,o),
(256,116,cs),
(358,116,o),
(441,197,o),
(441,296,cs),
(441,399,o),
(356,477,o),
(256,477,cs),
(154,477,o),
(73,396,o),
(73,296,cs),
(73,249,o),
(92,204,o),
(124,172,c),
(186,192,l),
(98,219,o),
(6,178,o),
(6,83,cs),
(6,12,o),
(41,-23,o),
(109,-38,cs),
(143,-45,o),
(189,-49,o),
(247,-50,cs),
(301,-51,ls),
(348,-51,o),
(383,-67,o),
(383,-108,cs),
(383,-152,o),
(320,-170,o),
(237,-170,cs),
(166,-170,o),
(133,-148,o),
(133,-112,cs),
(133,-69,o),
(174,-43,o),
(190,-43,c)
);
}
);
width = 535;
},
{
layerId = "9C2CFEA6-85BB-4338-BB26-B1BEA40B5780";
shapes = (
{
closed = 1;
nodes = (
(418,361,l),
(522,342,l),
(527,468,l),
(317,460,l)
);
},
{
closed = 1;
nodes = (
(233,241,o),
(210,261,o),
(210,294,cs),
(210,330,o),
(232,348,o),
(256,348,cs),
(282,348,o),
(304,327,o),
(304,294,cs),
(304,260,o),
(282,241,o),
(256,241,cs)
);
},
{
closed = 1;
nodes = (
(119,-19,l),
(63,-40,o),
(17,-91,o),
(17,-148,cs),
(17,-269,o),
(151,-287,o),
(235,-287,cs),
(433,-287,o),
(509,-213,o),
(509,-88,cs),
(509,-3,o),
(455,40,o),
(385,55,cs),
(350,62,o),
(310,66,o),
(266,66,cs),
(198,65,ls),
(155,65,o),
(122,70,o),
(122,101,cs),
(122,118,o),
(134,125,o),
(153,125,cs),
(162,126,o),
(172,125,o),
(183,122,cs),
(202,116,o),
(228,113,o),
(256,113,cs),
(355,113,o),
(443,190,o),
(443,294,cs),
(443,400,o),
(356,477,o),
(256,477,cs),
(154,477,o),
(71,396,o),
(71,294,cs),
(71,247,o),
(89,203,o),
(120,171,c),
(186,193,l),
(99,222,o),
(1,183,o),
(1,83,cs),
(1,11,o),
(35,-26,o),
(104,-41,cs),
(139,-49,o),
(186,-54,o),
(247,-55,cs),
(305,-56,ls),
(342,-56,o),
(375,-71,o),
(375,-108,cs),
(375,-153,o),
(292,-160,o),
(237,-160,cs),
(172,-160,o),
(141,-143,o),
(141,-111,cs),
(139,-71,o),
(180,-46,o),
(192,-48,c)
);
}
);
width = 536;
}
);
note = g;
unicode = 103;
},
{
glyphname = h;
kernLeft = b;
kernRight = h;
lastChange = "2025-01-07 22:40:39 +0000";
layers = (
{
layerId = m01;
shapes = (
{
closed = 1;
nodes = (
(113,0,l),
(113,300,l),
(124,359,o),
(185,417,o),
(256,417,cs),
(340,417,o),
(383,372,o),
(383,276,cs),
(383,0,l),
(449,0,l),
(449,277,ls),
(449,412,o),
(388,477,o),
(265,477,cs),
(195,477,o),
(134,428,o),
(113,373,c),
(113,660,l),
(47,660,l),
(47,0,l)
);
}
);
width = 496;
},
{
layerId = "4DE8B86A-429B-4593-9BC8-49866BB1A430";
shapes = (
{
closed = 1;
nodes = (
(71,0,l),
(71,299,l),
(77,386,o),
(158,456,o),
(242,456,cs),
(343,456,o),
(395,402,o),
(395,283,cs),
(395,0,l),
(419,0,l),
(419,285,ls),
(419,426,o),
(359,477,o),
(242,477,cs),
(161,477,o),
(92,412,o),
(71,348,c),
(71,660,l),
(47,660,l),
(47,0,l)
);
}
);
width = 466;
},
{
layerId = "0BE882A4-FC89-4865-8E81-154FB3EE808B";
shapes = (
{
closed = 1;
nodes = (
(176,0,l),
(176,301,l),
(195,339,o),
(238,357,o),
(275,357,cs),
(334,357,o),
(365,327,o),
(365,266,cs),
(365,0,l),
(494,0,l),
(494,266,ls),
(494,390,o),
(431,477,o),
(299,477,cs),
(241,477,o),
(196,448,o),
(176,411,c),
(176,660,l),
(47,660,l),
(47,0,l)
);
}
);
width = 541;
},
{
layerId = "9C2CFEA6-85BB-4338-BB26-B1BEA40B5780";
shapes = (
{
closed = 1;
nodes = (
(187,0,l),
(187,301,l),
(205,335,o),
(245,348,o),
(279,348,cs),
(334,348,o),
(362,320,o),
(362,264,cs),
(362,0,l),
(502,0,l),
(502,264,ls),
(502,387,o),
(438,477,o),
(305,477,cs),
(250,477,o),
(204,453,o),
(187,418,c),
(187,660,l),
(47,660,l),
(47,0,l)
);
}
);
width = 549;
}
);
note = h;
unicode = 104;
},
{
glyphname = hbar;
kernRight = h;
lastChange = "2025-01-07 22:40:42 +0000";
layers = (
{
layerId = m01;
shapes = (
{
closed = 1;
nodes = (
(113,0,l),
(113,300,l),
(124,359,o),
(185,417,o),
(256,417,cs),
(340,417,o),
(383,372,o),
(383,276,cs),
(383,0,l),
(449,0,l),
(449,277,ls),
(449,412,o),
(388,477,o),
(265,477,cs),
(195,477,o),
(134,428,o),
(113,373,c),
(113,660,l),
(47,660,l),
(47,0,l)
);
},
{
closed = 1;
nodes = (
(-1,531,l),
(281,531,l),
(281,597,l),
(-1,597,l)
);
}
);
width = 496;
},
{
layerId = "4DE8B86A-429B-4593-9BC8-49866BB1A430";
shapes = (
{
closed = 1;
nodes = (
(71,0,l),
(71,299,l),
(77,386,o),
(158,456,o),
(242,456,cs),
(343,456,o),
(395,402,o),
(395,283,cs),
(395,0,l),
(419,0,l),
(419,285,ls),
(419,426,o),
(359,477,o),
(242,477,cs),
(161,477,o),
(92,412,o),
(71,348,c),
(71,660,l),
(47,660,l),
(47,0,l)
);
},
{
closed = 1;
nodes = (
(2,551,l),
(225,551,l),
(225,574,l),
(2,574,l)
);
}
);
width = 466;
},
{
layerId = "0BE882A4-FC89-4865-8E81-154FB3EE808B";
shapes = (
{
closed = 1;
nodes = (
(176,0,l),
(176,301,l),
(195,339,o),
(238,357,o),
(275,357,cs),
(334,357,o),
(365,327,o),
(365,266,cs),
(365,0,l),
(494,0,l),
(494,266,ls),
(494,390,o),
(431,477,o),
(299,477,cs),
(241,477,o),
(196,448,o),
(176,411,c),
(176,660,l),
(47,660,l),
(47,0,l)
);
},
{
closed = 1;
nodes = (
(-3,508,l),
(367,508,l),
(367,616,l),
(-3,616,l)
);
}
);
width = 541;
},
{
layerId = "9C2CFEA6-85BB-4338-BB26-B1BEA40B5780";
shapes = (
{
closed = 1;
nodes = (
(187,0,l),
(187,301,l),
(205,335,o),
(245,348,o),
(279,348,cs),
(334,348,o),
(362,320,o),
(362,264,cs),
(362,0,l),
(502,0,l),
(502,264,ls),
(502,387,o),
(438,477,o),
(305,477,cs),
(250,477,o),
(204,453,o),
(187,418,c),
(187,660,l),
(47,660,l),
(47,0,l)
);
},
{
closed = 1;
nodes = (
(-12,497,l),
(386,497,l),
(386,614,l),
(-12,614,l)
);
}
);
width = 549;
}
);
note = hbar;
unicode = 295;
},
{
glyphname = idotless;
kernLeft = i;
kernRight = i;
lastChange = "2025-01-08 09:18:04 +0000";
layers = (
{
anchors = (
{
name = bottom;
pos = (91,0);
},
{
name = ogonek;
pos = (124,0);
},
{
name = top;
pos = (91,472);
}
);
layerId = m01;
shapes = (
{
closed = 1;
nodes = (
(124,0,l),
(124,472,l),
(58,472,l),
(58,0,l)
);
}
);
width = 182;
},
{
anchors = (
{
name = bottom;
pos = (77,0);
},
{
name = ogonek;
pos = (89,0);
},
{
name = top;
pos = (77,472);
}
);
layerId = "4DE8B86A-429B-4593-9BC8-49866BB1A430";
shapes = (
{
closed = 1;
nodes = (
(89,0,l),
(89,472,l),
(66,472,l),
(66,0,l)
);
}
);
width = 154;
},
{
anchors = (
{
name = bottom;
pos = (112,0);
},
{
name = ogonek;
pos = (176,0);
},
{
name = top;
pos = (112,472);
}
);
layerId = "0BE882A4-FC89-4865-8E81-154FB3EE808B";
shapes = (
{
closed = 1;
nodes = (
(176,0,l),
(176,472,l),
(47,472,l),
(47,0,l)
);
}
);
width = 223;
},
{
anchors = (
{
name = bottom;
pos = (115,0);
},
{
name = ogonek;
pos = (184,0);
},
{
name = top;
pos = (115,472);
}
);
layerId = "9C2CFEA6-85BB-4338-BB26-B1BEA40B5780";
shapes = (
{
closed = 1;
nodes = (
(184,0,l),
(184,472,l),
(45,472,l),
(45,0,l)
);
}
);
width = 230;
}
);
note = dotlessi;
unicode = 305;
},
{
glyphname = jdotless;
kernLeft = j;
kernRight = ij;
lastChange = "2025-01-07 22:40:46 +0000";
layers = (
{
layerId = m01;
shapes = (
{
closed = 1;
nodes = (
(-70,-192,l),
(37,-192,o),
(124,-125,o),
(124,-8,cs),
(124,472,l),
(58,472,l),
(58,-8,ls),
(58,-87,o),
(3,-132,o),
(-70,-132,c)
);
}
);
width = 172;
},
{
layerId = "4DE8B86A-429B-4593-9BC8-49866BB1A430";
shapes = (
{
closed = 1;
nodes = (
(-75,-208,l),
(24,-198,o),
(90,-129,o),
(90,-28,cs),
(89,472,l),
(66,472,l),
(66,-28,ls),
(66,-119,o),
(6,-178,o),
(-74,-190,c)
);
}
);
width = 137;
},
{
layerId = "0BE882A4-FC89-4865-8E81-154FB3EE808B";
shapes = (
{
closed = 1;
nodes = (
(-63,-167,l),
(53,-187,o),
(176,-118,o),
(176,21,cs),
(176,472,l),
(47,472,l),
(47,21,ls),
(47,-39,o),
(-2,-63,o),
(-63,-46,c)
);
}
);
width = 224;
},
{
layerId = "9C2CFEA6-85BB-4338-BB26-B1BEA40B5780";
shapes = (
{
closed = 1;
nodes = (
(-62,-164,l),
(63,-187,o),
(185,-108,o),
(185,25,cs),
(184,472,l),
(45,472,l),
(45,26,ls),
(45,-30,o),
(-3,-52,o),
(-62,-32,c)
);
}
);
width = 233;
}
);
note = uni0237;
unicode = 567;
},
{
glyphname = k;
kernLeft = b;
kernRight = k;
lastChange = "2025-01-07 22:23:43 +0000";
layers = (
{
layerId = m01;
shapes = (
{
closed = 1;
nodes = (
(123,0,l),
(123,280,l),
(103,207,l),
(187,273,l),
(357,0,l),
(431,0,l),
(221,338,l),
(205,288,l),
(440,472,l),
(335,472,l),
(109,296,l),
(123,284,l),
(123,660,l),
(57,660,l),
(57,0,l)
);
}
);
width = 455;
},
{
layerId = "4DE8B86A-429B-4593-9BC8-49866BB1A430";
shapes = (
{
closed = 1;
nodes = (
(81,0,l),
(81,290,l),
(68,229,l),
(153,295,l),
(336,0,l),
(366,0,l),
(164,326,l),
(138,284,l),
(378,472,l),
(339,472,l),
(68,259,l),
(81,249,l),
(81,660,l),
(57,660,l),
(57,0,l)
);
}
);
width = 393;
},
{
layerId = "0BE882A4-FC89-4865-8E81-154FB3EE808B";
shapes = (
{
closed = 1;
nodes = (
(186,0,l),
(186,264,l),
(156,175,l),
(238,240,l),
(388,0,l),
(528,0,l),
(306,356,l),
(305,294,l),
(533,472,l),
(329,472,l),
(171,352,l),
(186,336,l),
(186,660,l),
(57,660,l),
(57,0,l)
);
}
);
width = 548;
},
{
layerId = "9C2CFEA6-85BB-4338-BB26-B1BEA40B5780";
shapes = (
{
closed = 1;
nodes = (
(197,0,l),
(197,261,l),
(164,169,l),
(246,234,l),
(394,0,l),
(544,0,l),
(320,359,l),
(322,295,l),
(549,472,l),
(328,472,l),
(182,361,l),
(197,344,l),
(197,660,l),
(57,660,l),
(57,0,l)
);
}
);
width = 564;
}
);
note = k;
unicode = 107;
},
{
glyphname = kgreenlandic;
kernLeft = b;
kernRight = k;
lastChange = "2025-01-07 22:23:43 +0000";
layers = (
{
layerId = m01;
shapes = (
{
closed = 1;
nodes = (
(137,0,l),
(137,280,l),
(117,207,l),
(201,273,l),
(372,0,l),
(445,0,l),
(235,338,l),
(219,288,l),
(455,472,l),
(349,472,l),
(124,296,l),
(137,284,l),
(137,472,l),
(71,472,l),
(71,0,l)
);
}
);
width = 470;
},
{
layerId = "4DE8B86A-429B-4593-9BC8-49866BB1A430";
shapes = (
{
closed = 1;
nodes = (
(95,0,l),
(95,290,l),
(82,229,l),
(167,295,l),
(351,0,l),
(380,0,l),
(178,326,l),
(152,284,l),
(395,472,l),
(355,472,l),
(83,259,l),
(95,249,l),
(95,472,l),
(71,472,l),
(71,0,l)
);
}
);
width = 409;
},
{
layerId = "0BE882A4-FC89-4865-8E81-154FB3EE808B";
shapes = (
{
closed = 1;
nodes = (
(200,0,l),
(200,264,l),
(170,175,l),
(252,240,l),
(403,0,l),
(542,0,l),
(320,356,l),
(319,294,l),
(546,472,l),
(341,472,l),
(186,352,l),
(200,336,l),
(200,472,l),
(71,472,l),
(71,0,l)
);
}
);
width = 561;
},
{
layerId = "9C2CFEA6-85BB-4338-BB26-B1BEA40B5780";
shapes = (
{
closed = 1;
nodes = (
(211,0,l),
(211,261,l),
(178,169,l),
(260,234,l),
(409,0,l),
(558,0,l),
(334,359,l),
(336,295,l),
(561,472,l),
(340,472,l),
(197,361,l),
(211,344,l),
(211,472,l),
(71,472,l),
(71,0,l)
);
}
);
width = 577;
}
);
note = kgreenlandic;
unicode = 312;
},
{
glyphname = l;
kernLeft = b;
kernRight = l;
lastChange = "2025-01-07 22:23:43 +0000";
layers = (
{
layerId = m01;
shapes = (
{
closed = 1;
nodes = (
(123,0,l),
(123,660,l),
(57,660,l),
(57,0,l)
);
}
);
width = 179;
},
{
layerId = "4DE8B86A-429B-4593-9BC8-49866BB1A430";
shapes = (
{
closed = 1;
nodes = (
(81,0,l),
(81,660,l),
(57,660,l),
(57,0,l)
);
}
);
width = 137;
},
{
layerId = "0BE882A4-FC89-4865-8E81-154FB3EE808B";
shapes = (
{
closed = 1;
nodes = (
(186,0,l),
(186,660,l),
(57,660,l),
(57,0,l)
);
}
);
width = 242;
},
{
layerId = "9C2CFEA6-85BB-4338-BB26-B1BEA40B5780";
shapes = (
{
closed = 1;
nodes = (
(197,0,l),
(197,660,l),
(57,660,l),
(57,0,l)
);
}
);
width = 263;
}
);
note = l;
unicode = 108;
},
{
glyphname = lslash;
kernLeft = lslash;
lastChange = "2025-01-07 22:23:43 +0000";
layers = (
{
layerId = m01;
shapes = (
{
closed = 1;
nodes = (
(194,0,l),
(194,331,l),
(306,382,l),
(279,438,l),
(194,399,l),
(194,660,l),
(128,660,l),
(128,369,l),
(31,324,l),
(58,270,l),
(128,302,l),
(128,0,l)
);
}
);
width = 335;
},
{
layerId = "4DE8B86A-429B-4593-9BC8-49866BB1A430";
shapes = (
{
closed = 1;
nodes = (
(167,0,l),
(167,326,l),
(290,382,l),
(274,414,l),
(167,366,l),
(167,660,l),
(143,660,l),
(143,356,l),
(39,308,l),
(56,278,l),
(143,318,l),
(143,0,l)
);
}
);
width = 335;
},
{
layerId = "0BE882A4-FC89-4865-8E81-154FB3EE808B";
shapes = (
{
closed = 1;
nodes = (
(235,0,l),
(235,339,l),
(330,382,l),
(287,473,l),
(235,449,l),
(235,660,l),
(105,660,l),
(105,389,l),
(18,348,l),
(61,258,l),
(105,278,l),
(105,0,l)
);
}
);
width = 335;
},
{
layerId = "9C2CFEA6-85BB-4338-BB26-B1BEA40B5780";
shapes = (
{
closed = 1;
nodes = (
(242,0,l),
(242,339,l),
(333,382,l),
(287,479,l),
(242,457,l),
(242,660,l),
(102,660,l),
(102,393,l),
(16,351,l),
(62,256,l),
(102,275,l),
(102,0,l)
);
}
);
width = 335;
}
);
note = lslash;
unicode = 322;
},
{
glyphname = m;
kernLeft = m;
kernRight = h;
lastChange = "2025-01-07 22:40:55 +0000";
layers = (
{
layerId = m01;
shapes = (
{
closed = 1;
nodes = (
(113,0,l),
(113,300,l),
(124,359,o),
(185,417,o),
(256,417,cs),
(340,417,o),
(383,372,o),
(383,276,cs),
(383,0,l),
(449,0,l),
(449,277,ls),
(449,412,o),
(388,477,o),
(265,477,cs),
(195,477,o),
(134,428,o),
(113,373,c),
(113,472,l),
(47,472,l),
(47,0,l)
);
},
{
closed = 1;
nodes = (
(429,0,l),
(449,0,l),
(449,300,l),
(459,357,o),
(518,417,o),
(591,417,cs),
(675,417,o),
(719,372,o),
(719,276,cs),
(719,0,l),
(785,0,l),
(785,277,ls),
(785,412,o),
(724,477,o),
(601,477,cs),
(526,477,o),
(473,432,o),
(448,378,cs),
(435,351,o),
(429,326,o),
(429,305,cs)
);
}
);
width = 832;
},
{
layerId = "4DE8B86A-429B-4593-9BC8-49866BB1A430";
shapes = (
{
closed = 1;
nodes = (
(71,0,l),
(71,299,l),
(77,386,o),
(158,456,o),
(242,456,cs),
(343,456,o),
(395,402,o),
(395,283,cs),
(395,0,l),
(419,0,l),
(419,285,ls),
(419,425,o),
(355,477,o),
(242,477,cs),
(161,477,o),
(92,412,o),
(71,348,c),
(71,472,l),
(47,472,l),
(47,0,l)
);
},
{
closed = 1;
nodes = (
(407,0,l),
(419,0,l),
(419,299,ls),
(421,384,o),
(506,456,o),
(590,456,cs),
(691,456,o),
(742,403,o),
(742,283,cs),
(743,0,l),
(767,0,l),
(767,285,ls),
(767,425,o),
(703,477,o),
(590,477,cs),
(514,477,o),
(458,434,o),
(430,380,cs),
(416,353,o),
(409,328,o),
(409,306,cs)
);
}
);
width = 814;
},
{
layerId = "0BE882A4-FC89-4865-8E81-154FB3EE808B";
shapes = (
{
closed = 1;
nodes = (
(176,0,l),
(176,301,l),
(195,339,o),
(238,357,o),
(275,357,cs),
(334,357,o),
(365,327,o),
(365,266,cs),
(365,0,l),
(494,0,l),
(494,266,ls),
(494,393,o),
(439,477,o),
(299,477,cs),
(241,477,o),
(196,448,o),
(176,411,c),
(176,472,l),
(47,472,l),
(47,0,l)
);
},
{
closed = 1;
nodes = (
(462,0,l),
(494,0,l),
(494,301,l),
(513,339,o),
(556,357,o),
(593,357,cs),
(652,357,o),
(683,327,o),
(683,266,cs),
(683,0,l),
(812,0,l),
(812,266,ls),
(812,393,o),
(757,477,o),
(617,477,cs),
(542,477,o),
(495,430,o),
(475,375,cs),
(464,347,o),
(459,323,o),
(459,302,cs)
);
}
);
width = 859;
},
{
layerId = "9C2CFEA6-85BB-4338-BB26-B1BEA40B5780";
shapes = (
{
closed = 1;
nodes = (
(187,0,l),
(187,301,l),
(205,335,o),
(245,348,o),
(279,348,cs),
(334,348,o),
(362,320,o),
(362,264,cs),
(362,0,l),
(502,0,l),
(502,264,ls),
(502,389,o),
(448,477,o),
(305,477,cs),
(250,477,o),
(204,453,o),
(187,418,c),
(187,472,l),
(47,472,l),
(47,0,l)
);
},
{
closed = 1;
nodes = (
(468,0,l),
(502,0,l),
(502,301,l),
(520,335,o),
(561,348,o),
(593,348,cs),
(648,348,o),
(677,320,o),
(677,264,cs),
(678,0,l),
(817,0,l),
(817,264,ls),
(817,389,o),
(763,477,o),
(620,477,cs),
(545,477,o),
(499,429,o),
(479,374,cs),
(468,347,o),
(463,323,o),
(464,302,cs)
);
}
);
width = 864;
}
);
note = m;
unicode = 109;
},
{
glyphname = n;
kernLeft = m;
kernRight = h;
lastChange = "2025-01-07 22:40:58 +0000";
layers = (
{
layerId = m01;
shapes = (
{
closed = 1;
nodes = (
(113,0,l),
(113,300,l),
(124,359,o),
(185,417,o),
(256,417,cs),
(340,417,o),
(383,372,o),
(383,276,cs),
(383,0,l),
(449,0,l),
(449,277,ls),
(449,412,o),
(388,477,o),
(265,477,cs),
(195,477,o),
(134,428,o),
(113,373,c),
(113,472,l),
(47,472,l),
(47,0,l)
);
}
);
width = 496;
},
{
layerId = "4DE8B86A-429B-4593-9BC8-49866BB1A430";
shapes = (
{
closed = 1;
nodes = (
(71,0,l),
(71,299,l),
(77,386,o),
(158,456,o),
(242,456,cs),
(343,456,o),
(395,402,o),
(395,283,cs),
(395,0,l),
(419,0,l),
(419,285,ls),
(419,425,o),
(355,477,o),
(242,477,cs),
(161,477,o),
(92,412,o),
(71,348,c),
(71,472,l),
(47,472,l),
(47,0,l)
);
}
);
width = 466;
},
{
layerId = "0BE882A4-FC89-4865-8E81-154FB3EE808B";
shapes = (
{
closed = 1;
nodes = (
(176,0,l),
(176,301,l),
(195,339,o),
(238,357,o),
(275,357,cs),
(334,357,o),
(365,327,o),
(365,266,cs),
(365,0,l),
(494,0,l),
(494,266,ls),
(494,393,o),
(439,477,o),
(299,477,cs),
(241,477,o),
(196,448,o),
(176,411,c),
(176,472,l),
(47,472,l),
(47,0,l)
);
}
);
width = 541;
},
{
layerId = "9C2CFEA6-85BB-4338-BB26-B1BEA40B5780";
shapes = (
{
closed = 1;
nodes = (
(187,0,l),
(187,301,l),
(205,335,o),
(245,348,o),
(279,348,cs),
(334,348,o),
(362,320,o),
(362,264,cs),
(362,0,l),
(502,0,l),
(502,264,ls),
(502,389,o),
(448,477,o),
(305,477,cs),
(250,477,o),
(204,453,o),
(187,418,c),
(187,472,l),
(47,472,l),
(47,0,l)
);
}
);
width = 549;
}
);
note = n;
unicode = 110;
},
{
glyphname = nhookleft;
kernLeft = m;
kernRight = h;
lastChange = "2025-01-07 22:41:01 +0000";
layers = (
{
layerId = m01;
shapes = (
{
closed = 1;
nodes = (
(113,0,l),
(47,0,l),
(47,-91,ls),
(47,-120,o),
(36,-132,o),
(19,-132,cs),
(-5,-132,o),
(-29,-122,o),
(-53,-102,c),
(-53,-159,l),
(-49,-163,ls),
(-32,-179,o),
(-5,-191,o),
(28,-191,cs),
(87,-191,o),
(113,-145,o),
(113,-80,cs)
);
},
{
closed = 1;
nodes = (
(113,0,l),
(113,300,l),
(124,359,o),
(185,417,o),
(256,417,cs),
(340,417,o),
(383,372,o),
(383,276,cs),
(383,0,l),
(449,0,l),
(449,277,ls),
(449,412,o),
(388,477,o),
(265,477,cs),
(195,477,o),
(134,428,o),
(113,373,c),
(113,472,l),
(47,472,l),
(47,0,l)
);
}
);
width = 487;
},
{
layerId = "4DE8B86A-429B-4593-9BC8-49866BB1A430";
shapes = (
{
closed = 1;
nodes = (
(71,0,l),
(47,0,l),
(47,-130,ls),
(47,-159,o),
(34,-173,o),
(17,-173,cs),
(-8,-173,o),
(-28,-164,o),
(-53,-141,c),
(-53,-159,l),
(-50,-163,ls),
(-39,-176,o),
(-11,-191,o),
(17,-191,cs),
(61,-191,o),
(71,-151,o),
(71,-111,cs)
);
},
{
closed = 1;
nodes = (
(71,0,l),
(71,299,l),
(77,386,o),
(158,456,o),
(242,456,cs),
(343,456,o),
(395,402,o),
(395,283,cs),
(395,0,l),
(419,0,l),
(419,285,ls),
(419,425,o),
(355,477,o),
(242,477,cs),
(161,477,o),
(92,412,o),
(71,348,c),
(71,472,l),
(47,472,l),
(47,0,l)
);
}
);
width = 457;
},
{
layerId = "0BE882A4-FC89-4865-8E81-154FB3EE808B";
shapes = (
{
closed = 1;
nodes = (
(176,0,l),
(47,0,l),
(47,-33,ls),
(47,-62,o),
(38,-72,o),
(22,-72,cs),
(-1,-72,o),
(-29,-62,o),
(-53,-42,c),
(-53,-159,l),
(-46,-164,ls),
(-18,-181,o),
(4,-191,o),
(45,-191,cs),
(128,-191,o),
(176,-145,o),
(176,-33,cs)
);
},
{
closed = 1;
nodes = (
(176,0,l),
(176,301,l),
(195,339,o),
(238,357,o),
(275,357,cs),
(334,357,o),
(365,327,o),
(365,266,cs),
(365,0,l),
(494,0,l),
(494,266,ls),
(494,393,o),
(439,477,o),
(299,477,cs),
(241,477,o),
(196,448,o),
(176,411,c),
(176,472,l),
(47,472,l),
(47,0,l)
);
}
);
width = 532;
},
{
layerId = "9C2CFEA6-85BB-4338-BB26-B1BEA40B5780";
shapes = (
{
closed = 1;
nodes = (
(187,0,l),
(47,0,l),
(47,-24,ls),
(47,-53,o),
(39,-61,o),
(23,-61,cs),
(0,-61,o),
(-29,-51,o),
(-53,-32,c),
(-53,-159,l),
(-46,-164,l),
(-15,-181,o),
(5,-191,o),
(48,-191,cs),
(135,-191,o),
(187,-145,o),
(187,-25,cs)
);
},
{
closed = 1;
nodes = (
(187,0,l),
(187,301,l),
(205,335,o),
(245,348,o),
(279,348,cs),
(334,348,o),
(362,320,o),
(362,264,cs),
(362,0,l),
(502,0,l),
(502,264,ls),
(502,389,o),
(448,477,o),
(305,477,cs),
(250,477,o),
(204,453,o),
(187,418,c),
(187,472,l),
(47,472,l),
(47,0,l)
);
}
);
width = 540;
}
);
note = uni0272;
unicode = 626;
},
{
glyphname = eng;
kernLeft = m;
kernRight = h;
lastChange = "2025-01-07 22:41:03 +0000";
layers = (
{
layerId = m01;
shapes = (
{
closed = 1;
nodes = (
(449,0,l),
(383,0,l),
(383,-91,ls),
(383,-120,o),
(371,-132,o),
(355,-132,cs),
(331,-132,o),
(307,-122,o),
(283,-102,c),
(283,-159,l),
(287,-163,ls),
(304,-179,o),
(331,-191,o),
(364,-191,cs),
(421,-191,o),
(449,-145,o),
(449,-80,cs)
);
},
{
closed = 1;
nodes = (
(113,0,l),
(113,300,l),
(124,359,o),
(185,417,o),
(256,417,cs),
(340,417,o),
(383,372,o),
(383,276,cs),
(383,0,l),
(449,0,l),
(449,277,ls),
(449,412,o),
(388,477,o),
(265,477,cs),
(195,477,o),
(134,428,o),
(113,373,c),
(113,472,l),
(47,472,l),
(47,0,l)
);
}
);
width = 487;
},
{
layerId = "4DE8B86A-429B-4593-9BC8-49866BB1A430";
shapes = (
{
closed = 1;
nodes = (
(419,0,l),
(395,0,l),
(395,-130,ls),
(395,-159,o),
(382,-173,o),
(365,-173,cs),
(340,-173,o),
(320,-164,o),
(295,-141,c),
(295,-159,l),
(297,-163,l),
(308,-176,o),
(337,-191,o),
(365,-191,cs),
(408,-191,o),
(419,-150,o),
(419,-111,cs)
);
},
{
closed = 1;
nodes = (
(71,0,l),
(71,299,l),
(77,386,o),
(158,456,o),
(242,456,cs),
(343,456,o),
(395,402,o),
(395,283,cs),
(395,0,l),
(419,0,l),
(419,285,ls),
(419,425,o),
(355,477,o),
(242,477,cs),
(161,477,o),
(92,412,o),
(71,348,c),
(71,472,l),
(47,472,l),
(47,0,l)
);
}
);
width = 457;
},
{
layerId = "0BE882A4-FC89-4865-8E81-154FB3EE808B";
shapes = (
{
closed = 1;
nodes = (
(494,0,l),
(365,0,l),
(365,-33,ls),
(365,-62,o),
(356,-72,o),
(339,-72,cs),
(318,-72,o),
(289,-62,o),
(265,-42,c),
(265,-159,l),
(272,-164,ls),
(300,-181,o),
(322,-191,o),
(363,-191,cs),
(446,-191,o),
(494,-145,o),
(494,-33,cs)
);
},
{
closed = 1;
nodes = (
(176,0,l),
(176,301,l),
(195,339,o),
(238,357,o),
(275,357,cs),
(334,357,o),
(365,327,o),
(365,266,cs),
(365,0,l),
(494,0,l),
(494,266,ls),
(494,393,o),
(439,477,o),
(299,477,cs),
(241,477,o),
(196,448,o),
(176,411,c),
(176,472,l),
(47,472,l),
(47,0,l)
);
}
);
width = 532;
},
{
layerId = "9C2CFEA6-85BB-4338-BB26-B1BEA40B5780";
shapes = (
{
closed = 1;
nodes = (
(502,0,l),
(362,0,l),
(362,-24,ls),
(362,-53,o),
(353,-61,o),
(337,-61,cs),
(316,-61,o),
(286,-51,o),
(262,-32,c),
(262,-159,l),
(269,-164,l),
(300,-181,o),
(320,-191,o),
(363,-191,cs),
(450,-191,o),
(502,-145,o),
(502,-25,cs)
);
},
{
closed = 1;
nodes = (
(187,0,l),
(187,301,l),
(205,335,o),
(245,348,o),
(279,348,cs),
(334,348,o),
(362,320,o),
(362,264,cs),
(362,0,l),
(502,0,l),
(502,264,ls),
(502,389,o),
(448,477,o),
(305,477,cs),
(250,477,o),
(204,453,o),
(187,418,c),
(187,472,l),
(47,472,l),
(47,0,l)
);
}
);
width = 540;
}
);
note = eng;
unicode = 331;
},
{
glyphname = o;
kernLeft = c;
kernRight = o;
lastChange = "2025-01-07 22:41:13 +0000";
layers = (
{
layerId = m01;
shapes = (
{
closed = 1;
nodes = (
(412,-6,o),
(520,97,o),
(520,236,cs),
(520,371,o),
(416,477,o),
(276,477,cs),
(139,477,o),
(33,372,o),
(33,236,cs),
(33,97,o),
(140,-6,o),
(276,-6,cs)
);
},
{
closed = 1;
nodes = (
(174,55,o),
(99,132,o),
(99,236,cs),
(99,346,o),
(183,417,o),
(276,417,cs),
(373,417,o),
(454,344,o),
(454,236,cs),
(454,128,o),
(375,55,o),
(276,55,cs)
);
}
);
width = 553;
},
{
layerId = "4DE8B86A-429B-4593-9BC8-49866BB1A430";
shapes = (
{
closed = 1;
nodes = (
(413,-6,o),
(517,99,o),
(517,236,cs),
(517,374,o),
(412,477,o),
(275,477,cs),
(143,477,o),
(33,378,o),
(33,236,cs),
(33,86,o),
(151,-6,o),
(275,-6,cs)
);
},
{
closed = 1;
nodes = (
(154,14,o),
(57,108,o),
(57,236,cs),
(57,367,o),
(157,457,o),
(275,457,cs),
(402,457,o),
(493,360,o),
(493,236,cs),
(493,108,o),
(397,14,o),
(275,14,cs)
);
}
);
width = 550;
},
{
layerId = "0BE882A4-FC89-4865-8E81-154FB3EE808B";
shapes = (
{
closed = 1;
nodes = (
(416,-6,o),
(523,97,o),
(523,236,cs),
(523,372,o),
(420,477,o),
(278,477,cs),
(138,477,o),
(33,372,o),
(33,236,cs),
(33,97,o),
(140,-6,o),
(278,-6,cs)
);
},
{
closed = 1;
nodes = (
(212,115,o),
(162,164,o),
(162,236,cs),
(162,309,o),
(214,356,o),
(278,356,cs),
(343,356,o),
(394,310,o),
(394,236,cs),
(394,161,o),
(343,115,o),
(278,115,cs)
);
}
);
width = 557;
},
{
layerId = "9C2CFEA6-85BB-4338-BB26-B1BEA40B5780";
shapes = (
{
closed = 1;
nodes = (
(436,-6,o),
(524,116,o),
(524,236,cs),
(524,374,o),
(419,477,o),
(278,477,cs),
(138,477,o),
(33,371,o),
(33,236,cs),
(33,97,o),
(140,-6,o),
(278,-6,cs)
);
},
{
closed = 1;
nodes = (
(217,125,o),
(173,170,o),
(173,236,cs),
(173,301,o),
(217,346,o),
(278,346,cs),
(337,346,o),
(385,305,o),
(385,236,cs),
(385,167,o),
(336,125,o),
(278,125,cs)
);
}
);
width = 557;
}
);
note = o;
unicode = 111;
},
{
glyphname = oslash;
kernLeft = c;
kernRight = o;
lastChange = "2025-01-07 22:41:22 +0000";
layers = (
{
layerId = m01;
shapes = (
{
closed = 1;
nodes = (
(428,588,l),
(372,604,l),
(139,-103,l),
(195,-118,l)
);
},
{
closed = 1;
nodes = (
(413,0,o),
(521,109,o),
(521,244,cs),
(521,380,o),
(413,488,o),
(278,488,cs),
(123,488,o),
(35,358,o),
(35,244,cs),
(35,110,o),
(144,0,o),
(278,0,cs)
);
},
{
closed = 1;
nodes = (
(181,60,o),
(101,141,o),
(101,244,cs),
(101,347,o),
(182,428,o),
(278,428,cs),
(376,428,o),
(455,347,o),
(455,244,cs),
(455,143,o),
(375,60,o),
(278,60,cs)
);
}
);
width = 557;
},
{
layerId = "4DE8B86A-429B-4593-9BC8-49866BB1A430";
shapes = (
{
closed = 1;
nodes = (
(414,589,l),
(388,594,l),
(153,-111,l),
(179,-117,l)
);
},
{
closed = 1;
nodes = (
(412,5,o),
(521,115,o),
(521,249,cs),
(521,385,o),
(412,493,o),
(278,493,cs),
(146,493,o),
(36,383,o),
(36,249,cs),
(36,115,o),
(146,5,o),
(278,5,cs)
);
},
{
closed = 1;
nodes = (
(158,25,o),
(60,125,o),
(60,249,cs),
(60,373,o),
(159,473,o),
(278,473,cs),
(398,473,o),
(496,373,o),
(496,249,cs),
(496,126,o),
(398,25,o),
(278,25,cs)
);
}
);
width = 557;
},
{
layerId = "0BE882A4-FC89-4865-8E81-154FB3EE808B";
shapes = (
{
closed = 1;
nodes = (
(449,587,l),
(347,620,l),
(118,-90,l),
(220,-119,l)
);
},
{
closed = 1;
nodes = (
(407,-8,o),
(523,96,o),
(523,237,cs),
(523,372,o),
(413,481,o),
(278,481,cs),
(122,481,o),
(33,349,o),
(33,237,cs),
(33,102,o),
(143,-8,o),
(278,-8,cs)
);
},
{
closed = 1;
nodes = (
(216,113,o),
(162,168,o),
(162,237,cs),
(162,306,o),
(216,360,o),
(278,360,cs),
(341,360,o),
(394,306,o),
(394,237,cs),
(394,172,o),
(344,113,o),
(278,113,cs)
);
}
);
width = 557;
},
{
layerId = "9C2CFEA6-85BB-4338-BB26-B1BEA40B5780";
shapes = (
{
closed = 1;
nodes = (
(453,587,l),
(344,623,l),
(114,-88,l),
(223,-119,l)
);
},
{
closed = 1;
nodes = (
(414,-8,o),
(523,101,o),
(523,236,cs),
(523,371,o),
(413,480,o),
(278,480,cs),
(122,480,o),
(33,348,o),
(33,236,cs),
(33,102,o),
(142,-8,o),
(278,-8,cs)
);
},
{
closed = 1;
nodes = (
(221,122,o),
(173,171,o),
(173,236,cs),
(173,299,o),
(222,349,o),
(278,349,cs),
(336,349,o),
(384,299,o),
(384,236,cs),
(384,172,o),
(336,122,o),
(278,122,cs)
);
}
);
width = 557;
}
);
note = oslash;
unicode = 248;
},
{
glyphname = oe;
kernLeft = c;
kernRight = ae;
lastChange = "2025-01-07 22:41:32 +0000";
layers = (
{
layerId = m01;
shapes = (
{
closed = 1;
nodes = (
(788,-9,o),
(859,36,o),
(900,101,c),
(845,145,l),
(816,85,o),
(764,51,o),
(697,51,cs),
(590,51,o),
(528,129,o),
(524,233,c),
(896,233,l),
(908,324,o),
(896,376,o),
(861,419,cs),
(822,463,o),
(765,488,o),
(696,488,cs),
(599,488,o),
(528,440,o),
(488,367,c),
(447,440,o),
(366,488,o),
(278,488,cs),
(123,488,o),
(35,358,o),
(35,244,cs),
(35,110,o),
(144,0,o),
(278,0,cs),
(365,0,o),
(442,45,o),
(486,117,c),
(523,40,o),
(597,-9,o),
(697,-9,cs)
);
},
{
closed = 1;
nodes = (
(181,60,o),
(101,141,o),
(101,244,cs),
(101,347,o),
(182,428,o),
(278,428,cs),
(376,428,o),
(455,347,o),
(455,244,cs),
(455,143,o),
(375,60,o),
(278,60,cs)
);
},
{
closed = 1;
nodes = (
(530,290,l),
(547,373,o),
(607,428,o),
(696,428,cs),
(785,428,o),
(846,371,o),
(836,290,c)
);
}
);
width = 944;
},
{
layerId = "4DE8B86A-429B-4593-9BC8-49866BB1A430";
shapes = (
{
closed = 1;
nodes = (
(786,-8,o),
(859,37,o),
(900,101,c),
(874,121,l),
(834,52,o),
(773,14,o),
(698,14,cs),
(567,14,o),
(488,118,o),
(484,251,c),
(897,251,l),
(908,338,o),
(897,386,o),
(865,423,cs),
(826,468,o),
(768,491,o),
(697,491,cs),
(600,491,o),
(529,444,o),
(489,368,c),
(449,444,o),
(367,493,o),
(278,493,cs),
(146,493,o),
(36,383,o),
(36,249,cs),
(36,115,o),
(146,5,o),
(278,5,cs),
(365,5,o),
(441,50,o),
(485,123,c),
(521,43,o),
(595,-8,o),
(698,-8,cs)
);
},
{
closed = 1;
nodes = (
(158,25,o),
(60,125,o),
(60,249,cs),
(60,373,o),
(159,473,o),
(278,473,cs),
(398,473,o),
(496,373,o),
(496,249,cs),
(496,126,o),
(398,25,o),
(278,25,cs)
);
},
{
closed = 1;
nodes = (
(486,278,l),
(507,386,o),
(582,461,o),
(697,461,cs),
(817,461,o),
(889,390,o),
(875,278,c)
);
}
);
width = 943;
},
{
layerId = "0BE882A4-FC89-4865-8E81-154FB3EE808B";
shapes = (
{
closed = 1;
nodes = (
(791,-10,o),
(859,33,o),
(900,101,c),
(802,180,l),
(789,136,o),
(749,106,o),
(696,106,cs),
(629,106,o),
(585,139,o),
(585,207,c),
(895,207,l),
(910,304,o),
(894,364,o),
(855,412,cs),
(818,457,o),
(763,484,o),
(695,484,cs),
(598,484,o),
(527,437,o),
(488,365,c),
(443,436,o),
(365,481,o),
(278,481,cs),
(143,481,o),
(33,371,o),
(33,237,cs),
(33,81,o),
(165,-8,o),
(278,-8,cs),
(365,-8,o),
(443,39,o),
(487,108,c),
(527,36,o),
(597,-10,o),
(696,-10,cs)
);
},
{
closed = 1;
nodes = (
(212,113,o),
(162,172,o),
(162,237,cs),
(162,306,o),
(217,360,o),
(278,360,cs),
(341,360,o),
(394,305,o),
(394,237,cs),
(394,172,o),
(344,113,o),
(278,113,cs)
);
},
{
closed = 1;
nodes = (
(596,308,l),
(608,351,o),
(644,379,o),
(695,379,cs),
(741,379,o),
(780,343,o),
(778,308,c)
);
}
);
width = 946;
},
{
layerId = "9C2CFEA6-85BB-4338-BB26-B1BEA40B5780";
shapes = (
{
closed = 1;
nodes = (
(791,-10,o),
(859,33,o),
(900,101,c),
(794,186,l),
(785,145,o),
(748,115,o),
(696,115,cs),
(635,115,o),
(595,142,o),
(595,202,c),
(895,202,l),
(910,302,o),
(894,363,o),
(854,411,cs),
(817,456,o),
(763,483,o),
(695,483,cs),
(598,483,o),
(527,436,o),
(488,365,c),
(443,434,o),
(365,480,o),
(278,480,cs),
(143,480,o),
(33,370,o),
(33,236,cs),
(33,102,o),
(142,-8,o),
(278,-8,cs),
(365,-8,o),
(443,37,o),
(487,108,c),
(528,35,o),
(599,-10,o),
(696,-10,cs)
);
},
{
closed = 1;
nodes = (
(218,122,o),
(173,174,o),
(173,236,cs),
(173,299,o),
(222,349,o),
(278,349,cs),
(336,349,o),
(384,299,o),
(384,236,cs),
(384,172,o),
(336,122,o),
(278,122,cs)
);
},
{
closed = 1;
nodes = (
(607,311,l),
(618,347,o),
(650,371,o),
(695,371,cs),
(738,371,o),
(771,333,o),
(769,311,c)
);
}
);
width = 946;
}
);
note = oe;
unicode = 339;
},
{
glyphname = p;
kernLeft = m;
kernRight = b;
lastChange = "2025-01-07 22:41:37 +0000";
layers = (
{
layerId = m01;
shapes = (
{
closed = 1;
nodes = (
(123,-189,l),
(123,67,l),
(158,16,o),
(208,-6,o),
(275,-6,cs),
(408,-6,o),
(510,99,o),
(510,236,cs),
(510,393,o),
(381,477,o),
(270,477,cs),
(205,477,o),
(156,453,o),
(123,405,c),
(123,472,l),
(57,472,l),
(57,-189,l)
);
},
{
closed = 1;
nodes = (
(200,55,o),
(144,96,o),
(123,148,c),
(123,325,l),
(142,376,o),
(194,417,o),
(270,417,cs),
(369,417,o),
(444,336,o),
(444,236,cs),
(444,135,o),
(375,55,o),
(275,55,cs)
);
}
);
width = 543;
},
{
layerId = "4DE8B86A-429B-4593-9BC8-49866BB1A430";
shapes = (
{
closed = 1;
nodes = (
(81,-189,l),
(81,95,l),
(122,24,o),
(185,-6,o),
(265,-6,cs),
(391,-6,o),
(491,98,o),
(491,236,cs),
(491,368,o),
(391,477,o),
(258,477,cs),
(181,477,o),
(121,444,o),
(80,378,c),
(81,472,l),
(57,472,l),
(57,-189,l)
);
},
{
closed = 1;
nodes = (
(177,15,o),
(105,67,o),
(80,134,c),
(81,338,l),
(104,402,o),
(169,456,o),
(258,456,cs),
(376,456,o),
(468,357,o),
(468,236,cs),
(468,109,o),
(380,15,o),
(265,15,cs)
);
}
);
width = 524;
},
{
layerId = "0BE882A4-FC89-4865-8E81-154FB3EE808B";
shapes = (
{
closed = 1;
nodes = (
(187,-189,l),
(187,25,l),
(212,4,o),
(244,-6,o),
(291,-6,cs),
(438,-6,o),
(538,101,o),
(538,236,cs),
(538,378,o),
(425,477,o),
(287,477,cs),
(240,477,o),
(207,466,o),
(187,444,c),
(187,472,l),
(57,472,l),
(57,-189,l)
);
},
{
closed = 1;
nodes = (
(236,114,o),
(202,138,o),
(187,170,c),
(187,305,l),
(199,336,o),
(231,357,o),
(287,357,cs),
(356,357,o),
(409,308,o),
(409,236,cs),
(409,166,o),
(360,114,o),
(291,114,cs)
);
}
);
width = 571;
},
{
layerId = "9C2CFEA6-85BB-4338-BB26-B1BEA40B5780";
shapes = (
{
closed = 1;
nodes = (
(197,-189,l),
(197,18,l),
(221,2,o),
(250,-6,o),
(294,-6,cs),
(434,-6,o),
(543,94,o),
(543,236,cs),
(543,377,o),
(428,477,o),
(290,477,cs),
(247,477,o),
(216,468,o),
(197,451,c),
(197,472,l),
(57,472,l),
(57,-189,l)
);
},
{
closed = 1;
nodes = (
(243,124,o),
(210,145,o),
(197,174,c),
(197,302,l),
(209,330,o),
(238,348,o),
(290,348,cs),
(355,348,o),
(404,303,o),
(404,236,cs),
(404,173,o),
(359,124,o),
(294,124,cs)
);
}
);
width = 576;
}
);
note = p;
unicode = 112;
},
{
glyphname = thorn;
kernLeft = b;
kernRight = b;
lastChange = "2025-01-07 22:29:37 +0000";
layers = (
{
layerId = m01;
shapes = (
{
closed = 1;
nodes = (
(113,-189,l),
(113,67,l),
(149,16,o),
(199,-6,o),
(266,-6,cs),
(399,-6,o),
(501,99,o),
(501,236,cs),
(501,371,o),
(394,477,o),
(260,477,cs),
(195,477,o),
(146,453,o),
(113,405,c),
(113,660,l),
(47,660,l),
(47,-189,l)
);
},
{
closed = 1;
nodes = (
(191,55,o),
(134,96,o),
(113,148,c),
(113,325,l),
(133,376,o),
(184,417,o),
(260,417,cs),
(359,417,o),
(435,336,o),
(435,236,cs),
(435,130,o),
(361,55,o),
(266,55,cs)
);
}
);
width = 534;
},
{
layerId = "4DE8B86A-429B-4593-9BC8-49866BB1A430";
shapes = (
{
closed = 1;
nodes = (
(71,-189,l),
(71,95,l),
(114,24,o),
(176,-6,o),
(256,-6,cs),
(379,-6,o),
(482,95,o),
(482,236,cs),
(482,369,o),
(380,477,o),
(249,477,cs),
(172,477,o),
(112,444,o),
(71,378,c),
(71,660,l),
(47,660,l),
(47,-189,l)
);
},
{
closed = 1;
nodes = (
(167,15,o),
(96,67,o),
(71,134,c),
(71,338,l),
(94,402,o),
(160,456,o),
(249,456,cs),
(362,456,o),
(458,363,o),
(458,236,cs),
(458,107,o),
(367,15,o),
(256,15,cs)
);
}
);
width = 515;
},
{
layerId = "0BE882A4-FC89-4865-8E81-154FB3EE808B";
shapes = (
{
closed = 1;
nodes = (
(177,-189,l),
(177,25,l),
(202,4,o),
(235,-6,o),
(282,-6,cs),
(423,-6,o),
(529,97,o),
(529,236,cs),
(529,372,o),
(420,477,o),
(277,477,cs),
(230,477,o),
(197,466,o),
(177,444,c),
(177,660,l),
(47,660,l),
(47,-189,l)
);
},
{
closed = 1;
nodes = (
(227,114,o),
(192,138,o),
(177,170,c),
(177,305,l),
(190,336,o),
(222,357,o),
(277,357,cs),
(348,357,o),
(400,309,o),
(400,236,cs),
(400,166,o),
(351,114,o),
(282,114,cs)
);
}
);
width = 562;
},
{
layerId = "9C2CFEA6-85BB-4338-BB26-B1BEA40B5780";
shapes = (
{
closed = 1;
nodes = (
(187,-189,l),
(187,18,l),
(212,2,o),
(241,-6,o),
(285,-6,cs),
(429,-6,o),
(534,100,o),
(534,236,cs),
(534,372,o),
(425,477,o),
(280,477,cs),
(237,477,o),
(207,468,o),
(188,451,c),
(187,660,l),
(47,660,l),
(47,-189,l)
);
},
{
closed = 1;
nodes = (
(234,124,o),
(201,145,o),
(188,174,c),
(187,302,l),
(199,330,o),
(228,348,o),
(280,348,cs),
(345,348,o),
(394,303,o),
(394,236,cs),
(394,173,o),
(349,124,o),
(285,124,cs)
);
}
);
width = 567;
}
);
note = thorn;
unicode = 254;
},
{
glyphname = q;
kernLeft = d;
kernRight = q;
lastChange = "2025-01-07 22:41:40 +0000";
layers = (
{
layerId = m01;
shapes = (
{
closed = 1;
nodes = (
(487,472,l),
(421,472,l),
(421,405,l),
(388,453,o),
(338,477,o),
(273,477,cs),
(120,477,o),
(33,351,o),
(33,236,cs),
(33,99,o),
(135,-6,o),
(268,-6,cs),
(335,-6,o),
(385,16,o),
(421,67,c),
(421,-189,l),
(487,-189,l)
);
},
{
closed = 1;
nodes = (
(168,55,o),
(99,135,o),
(99,236,cs),
(99,341,o),
(179,417,o),
(273,417,cs),
(349,417,o),
(401,376,o),
(421,325,c),
(421,148,l),
(398,96,o),
(343,55,o),
(268,55,cs)
);
}
);
width = 543;
},
{
layerId = "4DE8B86A-429B-4593-9BC8-49866BB1A430";
shapes = (
{
closed = 1;
nodes = (
(468,472,l),
(445,472,l),
(445,379,l),
(403,444,o),
(343,477,o),
(266,477,cs),
(135,477,o),
(33,369,o),
(33,236,cs),
(33,95,o),
(136,-6,o),
(259,-6,cs),
(339,-6,o),
(401,24,o),
(444,95,c),
(445,-189,l),
(468,-189,l)
);
},
{
closed = 1;
nodes = (
(146,15,o),
(57,108,o),
(57,236,cs),
(57,363,o),
(153,456,o),
(266,456,cs),
(355,456,o),
(420,402,o),
(444,339,c),
(445,134,l),
(418,67,o),
(348,15,o),
(259,15,cs)
);
}
);
width = 524;
},
{
layerId = "0BE882A4-FC89-4865-8E81-154FB3EE808B";
shapes = (
{
closed = 1;
nodes = (
(515,472,l),
(385,472,l),
(385,445,l),
(365,466,o),
(332,477,o),
(285,477,cs),
(142,477,o),
(33,372,o),
(33,236,cs),
(33,97,o),
(139,-6,o),
(280,-6,cs),
(327,-6,o),
(360,4,o),
(385,25,c),
(385,-189,l),
(515,-189,l)
);
},
{
closed = 1;
nodes = (
(211,114,o),
(162,166,o),
(162,236,cs),
(162,308,o),
(216,357,o),
(285,357,cs),
(340,357,o),
(372,335,o),
(385,306,c),
(385,170,l),
(370,138,o),
(335,114,o),
(280,114,cs)
);
}
);
width = 571;
},
{
layerId = "9C2CFEA6-85BB-4338-BB26-B1BEA40B5780";
shapes = (
{
closed = 1;
nodes = (
(520,472,l),
(380,472,l),
(380,451,l),
(361,468,o),
(330,477,o),
(287,477,cs),
(142,477,o),
(33,372,o),
(33,236,cs),
(33,94,o),
(142,-6,o),
(282,-6,cs),
(326,-6,o),
(355,2,o),
(379,18,c),
(380,-189,l),
(520,-189,l)
);
},
{
closed = 1;
nodes = (
(216,124,o),
(173,173,o),
(173,236,cs),
(173,303,o),
(220,348,o),
(287,348,cs),
(339,348,o),
(367,330,o),
(379,303,c),
(380,173,l),
(365,145,o),
(333,124,o),
(282,124,cs)
);
}
);
width = 576;
}
);
note = q;
unicode = 113;
},
{
glyphname = r;
kernLeft = m;
kernRight = r;
lastChange = "2025-01-07 22:29:37 +0000";
layers = (
{
layerId = m01;
shapes = (
{
closed = 1;
nodes = (
(137,0,l),
(137,282,ls),
(137,367,o),
(184,417,o),
(240,417,cs),
(280,417,o),
(308,396,o),
(319,345,c),
(361,387,l),
(350,436,o),
(318,477,o),
(247,477,cs),
(187,477,o),
(131,424,o),
(127,333,c),
(137,333,l),
(137,472,l),
(71,472,l),
(71,0,l)
);
}
);
width = 371;
},
{
layerId = "4DE8B86A-429B-4593-9BC8-49866BB1A430";
shapes = (
{
closed = 1;
nodes = (
(111,0,l),
(111,285,ls),
(110,388,o),
(162,454,o),
(230,454,cs),
(275,454,o),
(305,431,o),
(316,376,c),
(336,387,l),
(329,438,o),
(307,477,o),
(230,477,cs),
(163,477,o),
(109,420,o),
(103,306,c),
(111,306,l),
(111,472,l),
(87,472,l),
(87,0,l)
);
}
);
width = 349;
},
{
layerId = "0BE882A4-FC89-4865-8E81-154FB3EE808B";
shapes = (
{
closed = 1;
nodes = (
(177,0,l),
(177,278,ls),
(176,335,o),
(216,361,o),
(256,361,cs),
(287,361,o),
(312,343,o),
(323,299,c),
(399,387,l),
(379,444,o),
(337,477,o),
(273,477,cs),
(214,477,o),
(166,438,o),
(164,374,c),
(177,374,l),
(177,472,l),
(47,472,l),
(47,0,l)
);
}
);
width = 404;
},
{
layerId = "9C2CFEA6-85BB-4338-BB26-B1BEA40B5780";
shapes = (
{
closed = 1;
nodes = (
(183,0,l),
(183,277,ls),
(183,330,o),
(220,352,o),
(259,352,cs),
(288,352,o),
(313,335,o),
(324,291,c),
(405,387,l),
(385,446,o),
(341,477,o),
(277,477,cs),
(221,477,o),
(166,449,o),
(166,381,c),
(183,381,l),
(183,472,l),
(44,472,l),
(44,0,l)
);
}
);
width = 410;
}
);
note = r;
unicode = 114;
},
{
glyphname = s;
kernLeft = s;
kernRight = s;
lastChange = "2025-01-07 22:41:54 +0000";
layers = (
{
layerId = m01;
shapes = (
{
closed = 1;
nodes = (
(288,-6,o),
(361,50,o),
(361,141,cs),
(361,201,o),
(328,237,o),
(288,257,cs),
(268,266,o),
(242,276,o),
(210,287,cs),
(151,307,o),
(114,321,o),
(114,357,cs),
(114,394,o),
(141,418,o),
(188,418,cs),
(223,418,o),
(254,401,o),
(281,368,c),
(328,410,l),
(289,457,o),
(245,477,o),
(185,477,cs),
(103,477,o),
(48,429,o),
(48,357,cs),
(48,313,o),
(75,284,o),
(109,268,cs),
(126,260,o),
(148,251,o),
(177,242,cs),
(260,215,o),
(295,191,o),
(295,141,cs),
(295,89,o),
(255,55,o),
(196,55,cs),
(143,55,o),
(98,78,o),
(66,119,c),
(19,75,l),
(70,21,o),
(129,-6,o),
(196,-6,cs)
);
}
);
width = 385;
},
{
layerId = "4DE8B86A-429B-4593-9BC8-49866BB1A430";
shapes = (
{
closed = 1;
nodes = (
(262,-6,o),
(328,51,o),
(328,136,cs),
(328,196,o),
(296,231,o),
(256,250,cs),
(235,259,o),
(209,269,o),
(176,279,cs),
(94,304,o),
(60,324,o),
(60,370,cs),
(60,419,o),
(98,455,o),
(163,455,cs),
(204,455,o),
(239,438,o),
(271,401,c),
(289,415,l),
(257,456,o),
(214,477,o),
(161,477,cs),
(82,477,o),
(37,437,o),
(37,368,cs),
(37,327,o),
(63,301,o),
(96,286,cs),
(113,279,o),
(135,270,o),
(163,261,cs),
(266,230,o),
(304,201,o),
(304,136,cs),
(304,65,o),
(250,18,o),
(174,18,cs),
(117,18,o),
(64,42,o),
(31,82,c),
(12,65,l),
(59,18,o),
(113,-6,o),
(174,-6,cs)
);
}
);
width = 345;
},
{
layerId = "0BE882A4-FC89-4865-8E81-154FB3EE808B";
shapes = (
{
closed = 1;
nodes = (
(329,-6,o),
(411,48,o),
(411,148,cs),
(411,209,o),
(374,249,o),
(333,270,cs),
(312,281,o),
(287,291,o),
(256,302,cs),
(216,315,o),
(194,326,o),
(194,339,cs),
(194,356,o),
(208,363,o),
(224,363,cs),
(253,363,o),
(277,344,o),
(296,319,c),
(386,403,l),
(339,455,o),
(289,477,o),
(220,477,cs),
(131,477,o),
(65,417,o),
(65,341,cs),
(65,289,o),
(94,258,o),
(129,240,cs),
(146,231,o),
(169,221,o),
(197,212,cs),
(244,196,o),
(282,183,o),
(282,148,cs),
(282,125,o),
(263,110,o),
(228,110,cs),
(184,110,o),
(150,131,o),
(118,174,c),
(28,90,l),
(87,26,o),
(153,-6,o),
(228,-6,cs)
);
}
);
width = 444;
},
{
layerId = "9C2CFEA6-85BB-4338-BB26-B1BEA40B5780";
shapes = (
{
closed = 1;
nodes = (
(335,-6,o),
(420,48,o),
(420,149,cs),
(420,212,o),
(383,252,o),
(340,273,cs),
(319,284,o),
(293,294,o),
(263,305,cs),
(229,316,o),
(207,324,o),
(207,337,cs),
(207,350,o),
(218,354,o),
(231,354,cs),
(259,354,o),
(283,335,o),
(299,310,c),
(396,402,l),
(348,455,o),
(297,477,o),
(225,477,cs),
(135,477,o),
(68,415,o),
(68,339,cs),
(68,284,o),
(97,253,o),
(133,235,cs),
(150,226,o),
(173,216,o),
(201,207,cs),
(249,190,o),
(280,179,o),
(280,149,cs),
(280,132,o),
(263,120,o),
(234,120,cs),
(190,120,o),
(158,140,o),
(126,184,c),
(30,93,l),
(89,27,o),
(157,-6,o),
(234,-6,cs)
);
}
);
width = 454;
}
);
note = s;
unicode = 115;
},
{
glyphname = germandbls;
kernLeft = germandbls;
kernRight = germandbls;
lastChange = "2025-01-07 22:42:17 +0000";
layers = (
{
layerId = m01;
shapes = (
{
closed = 1;
nodes = (
(113,0,l),
(113,660,l),
(47,660,l),
(47,0,l)
);
},
{
closed = 1;
nodes = (
(490,-3,o),
(580,81,o),
(580,196,cs),
(580,313,o),
(502,381,o),
(408,381,c),
(408,354,l),
(488,354,o),
(541,423,o),
(541,499,cs),
(541,587,o),
(466,660,o),
(373,660,c),
(373,596,l),
(430,596,o),
(475,555,o),
(475,499,cs),
(475,436,o),
(435,392,o),
(355,392,cs),
(334,392,l),
(334,338,l),
(355,338,ls),
(454,338,o),
(514,278,o),
(514,196,cs),
(514,117,o),
(457,61,o),
(373,61,cs),
(313,61,o),
(272,89,o),
(241,150,c),
(182,123,l),
(215,43,o),
(292,-3,o),
(373,-3,cs)
);
},
{
closed = 1;
nodes = (
(47,596,l),
(373,596,l),
(373,660,l),
(47,660,l)
);
}
);
width = 608;
},
{
layerId = "4DE8B86A-429B-4593-9BC8-49866BB1A430";
shapes = (
{
closed = 1;
nodes = (
(67,0,l),
(67,660,l),
(47,660,l),
(47,0,l)
);
},
{
closed = 1;
nodes = (
(447,-3,o),
(529,80,o),
(529,187,cs),
(529,308,o),
(434,372,o),
(355,372,c),
(354,366,l),
(429,366,o),
(485,433,o),
(485,514,cs),
(485,593,o),
(417,660,o),
(333,660,c),
(332,643,l),
(407,643,o),
(463,582,o),
(463,514,cs),
(463,435,o),
(412,378,o),
(316,378,cs),
(297,378,l),
(297,360,l),
(318,360,ls),
(434,358,o),
(508,286,o),
(508,187,cs),
(508,90,o),
(437,21,o),
(333,21,cs),
(265,21,o),
(217,42,o),
(174,111,c),
(157,101,l),
(197,24,o),
(265,-3,o),
(333,-3,cs)
);
},
{
closed = 1;
nodes = (
(47,643,l),
(332,643,l),
(332,660,l),
(47,660,l)
);
}
);
width = 557;
},
{
layerId = "0BE882A4-FC89-4865-8E81-154FB3EE808B";
shapes = (
{
closed = 1;
nodes = (
(182,0,l),
(182,660,l),
(47,660,l),
(47,0,l)
);
},
{
closed = 1;
nodes = (
(563,-3,o),
(656,92,o),
(656,210,cs),
(656,329,o),
(593,394,o),
(488,394,c),
(488,335,l),
(591,335,o),
(626,425,o),
(626,476,cs),
(626,578,o),
(536,660,o),
(435,660,c),
(434,525,l),
(473,525,o),
(494,505,o),
(494,476,cs),
(494,439,o),
(469,414,o),
(412,414,cs),
(390,414,l),
(390,305,l),
(410,305,ls),
(482,305,o),
(522,265,o),
(522,210,cs),
(522,158,o),
(488,123,o),
(435,123,cs),
(378,123,o),
(350,161,o),
(342,208,c),
(220,156,l),
(238,63,o),
(344,-3,o),
(435,-3,cs)
);
},
{
closed = 1;
nodes = (
(47,525,l),
(434,525,l),
(434,660,l),
(47,660,l)
);
}
);
width = 684;
},
{
layerId = "9C2CFEA6-85BB-4338-BB26-B1BEA40B5780";
shapes = (
{
closed = 1;
nodes = (
(193,0,l),
(193,660,l),
(47,660,l),
(47,0,l)
);
},
{
closed = 1;
nodes = (
(578,-3,o),
(670,95,o),
(670,213,cs),
(670,331,o),
(608,396,o),
(502,396,c),
(501,332,l),
(605,332,o),
(640,424,o),
(640,472,cs),
(640,577,o),
(550,660,o),
(445,660,c),
(445,514,l),
(479,514,o),
(497,499,o),
(497,472,cs),
(497,439,o),
(475,418,o),
(422,418,cs),
(399,417,l),
(399,299,l),
(419,299,ls),
(491,299,o),
(524,261,o),
(524,213,cs),
(524,165,o),
(493,133,o),
(445,133,cs),
(389,133,o),
(363,174,o),
(359,218,c),
(226,162,l),
(242,68,o),
(349,-3,o),
(445,-3,cs)
);
},
{
closed = 1;
nodes = (
(47,514,l),
(445,514,l),
(445,660,l),
(47,660,l)
);
}
);
width = 697;
}
);
note = germandbls;
unicode = 223;
},
{
glyphname = t;
kernLeft = t;
kernRight = t;
lastChange = "2025-01-07 22:42:21 +0000";
layers = (
{
layerId = m01;
shapes = (
{
closed = 1;
nodes = (
(241,-6,o),
(287,7,o),
(315,26,c),
(287,79,l),
(264,64,o),
(241,57,o),
(210,57,cs),
(167,57,o),
(151,87,o),
(151,151,cs),
(151,418,l),
(299,418,l),
(299,478,l),
(151,478,l),
(151,660,l),
(85,660,l),
(85,478,l),
(9,478,l),
(9,418,l),
(85,418,l),
(85,146,ls),
(85,34,o),
(126,-6,o),
(206,-6,cs)
);
}
);
width = 322;
},
{
layerId = "4DE8B86A-429B-4593-9BC8-49866BB1A430";
shapes = (
{
closed = 1;
nodes = (
(222,-6,o),
(269,4,o),
(294,21,c),
(283,41,l),
(255,26,o),
(225,19,o),
(189,19,cs),
(130,19,o),
(112,61,o),
(112,150,cs),
(112,457,l),
(278,457,l),
(278,479,l),
(112,479,l),
(112,660,l),
(89,660,l),
(89,479,l),
(9,479,l),
(9,457,l),
(89,457,l),
(89,159,ls),
(89,31,o),
(116,-6,o),
(199,-6,cs)
);
}
);
width = 306;
},
{
layerId = "0BE882A4-FC89-4865-8E81-154FB3EE808B";
shapes = (
{
closed = 1;
nodes = (
(274,-6,o),
(314,11,o),
(346,35,c),
(293,136,l),
(281,123,o),
(264,113,o),
(243,113,cs),
(222,113,o),
(208,124,o),
(208,152,cs),
(209,360,l),
(330,360,l),
(330,477,l),
(209,477,l),
(209,660,l),
(79,660,l),
(79,477,l),
(9,477,l),
(9,360,l),
(79,360,l),
(79,126,ls),
(79,35,o),
(126,-6,o),
(215,-6,cs)
);
}
);
width = 347;
},
{
layerId = "9C2CFEA6-85BB-4338-BB26-B1BEA40B5780";
shapes = (
{
closed = 1;
nodes = (
(280,-6,o),
(319,12,o),
(352,37,c),
(294,145,l),
(283,132,o),
(268,123,o),
(249,123,cs),
(230,123,o),
(218,129,o),
(218,152,cs),
(218,351,l),
(336,351,l),
(336,477,l),
(218,477,l),
(218,660,l),
(78,660,l),
(78,477,l),
(9,477,l),
(9,351,l),
(78,351,l),
(78,123,ls),
(78,34,o),
(128,-6,o),
(217,-6,cs)
);
}
);
width = 351;
}
);
note = t;
unicode = 116;
},
{
glyphname = tbar;
kernLeft = t;
kernRight = t;
lastChange = "2025-01-07 22:42:28 +0000";
layers = (
{
layerId = m01;
shapes = (
{
closed = 1;
nodes = (
(241,-6,o),
(287,7,o),
(315,26,c),
(287,79,l),
(264,64,o),
(241,57,o),
(210,57,cs),
(167,57,o),
(151,87,o),
(151,151,cs),
(151,418,l),
(299,418,l),
(299,478,l),
(151,478,l),
(151,660,l),
(85,660,l),
(85,478,l),
(9,478,l),
(9,418,l),
(85,418,l),
(85,146,ls),
(85,34,o),
(126,-6,o),
(206,-6,cs)
);
},
{
closed = 1;
nodes = (
(15,288,l),
(315,288,l),
(315,347,l),
(15,347,l)
);
}
);
width = 322;
},
{
layerId = "4DE8B86A-429B-4593-9BC8-49866BB1A430";
shapes = (
{
closed = 1;
nodes = (
(222,-6,o),
(269,4,o),
(294,21,c),
(283,41,l),
(255,26,o),
(225,19,o),
(189,19,cs),
(130,19,o),
(112,61,o),
(112,150,cs),
(112,457,l),
(278,457,l),
(278,479,l),
(112,479,l),
(112,660,l),
(89,660,l),
(89,479,l),
(9,479,l),
(9,457,l),
(89,457,l),
(89,159,ls),
(89,31,o),
(116,-6,o),
(199,-6,cs)
);
},
{
closed = 1;
nodes = (
(18,337,l),
(291,337,l),
(291,358,l),
(18,358,l)
);
}
);
width = 306;
},
{
layerId = "0BE882A4-FC89-4865-8E81-154FB3EE808B";
shapes = (
{
closed = 1;
nodes = (
(274,-6,o),
(314,11,o),
(346,35,c),
(293,136,l),
(281,123,o),
(264,113,o),
(243,113,cs),
(222,113,o),
(208,124,o),
(208,152,cs),
(209,360,l),
(330,360,l),
(330,477,l),
(209,477,l),
(209,660,l),
(79,660,l),
(79,477,l),
(9,477,l),
(9,360,l),
(79,360,l),
(79,126,ls),
(79,35,o),
(126,-6,o),
(215,-6,cs)
);
},
{
closed = 1;
nodes = (
(11,209,l),
(354,209,l),
(354,330,l),
(11,330,l)
);
}
);
width = 347;
},
{
layerId = "9C2CFEA6-85BB-4338-BB26-B1BEA40B5780";
shapes = (
{
closed = 1;
nodes = (
(280,-6,o),
(319,12,o),
(352,37,c),
(294,145,l),
(283,132,o),
(268,123,o),
(249,123,cs),
(230,123,o),
(218,129,o),
(218,152,cs),
(218,351,l),
(336,351,l),
(336,477,l),
(218,477,l),
(218,660,l),
(78,660,l),
(78,477,l),
(9,477,l),
(9,351,l),
(78,351,l),
(78,123,ls),
(78,34,o),
(128,-6,o),
(217,-6,cs)
);
},
{
closed = 1;
nodes = (
(3,197,l),
(363,197,l),
(363,328,l),
(3,328,l)
);
}
);
width = 351;
}
);
note = tbar;
unicode = 359;
},
{
glyphname = v;
kernLeft = v;
kernRight = v;
lastChange = "2025-01-07 22:23:43 +0000";
layers = (
{
layerId = m01;
shapes = (
{
closed = 1;
nodes = (
(259,0,l),
(455,472,l),
(384,472,l),
(227,87,l),
(237,87,l),
(80,472,l),
(9,472,l),
(205,0,l)
);
}
);
width = 464;
},
{
layerId = "4DE8B86A-429B-4593-9BC8-49866BB1A430";
shapes = (
{
closed = 1;
nodes = (
(224,0,l),
(418,472,l),
(393,472,l),
(209,22,l),
(219,22,l),
(34,472,l),
(9,472,l),
(203,0,l)
);
}
);
width = 428;
},
{
layerId = "0BE882A4-FC89-4865-8E81-154FB3EE808B";
shapes = (
{
closed = 1;
nodes = (
(311,0,l),
(510,472,l),
(370,472,l),
(254,185,l),
(264,185,l),
(149,472,l),
(9,472,l),
(208,0,l)
);
}
);
width = 519;
},
{
layerId = "9C2CFEA6-85BB-4338-BB26-B1BEA40B5780";
shapes = (
{
closed = 1;
nodes = (
(319,0,l),
(519,472,l),
(368,472,l),
(259,201,l),
(269,201,l),
(160,472,l),
(9,472,l),
(209,0,l)
);
}
);
width = 528;
}
);
note = v;
unicode = 118;
},
{
glyphname = w;
kernLeft = w;
kernRight = w;
lastChange = "2025-01-07 22:23:43 +0000";
layers = (
{
layerId = m01;
shapes = (
{
closed = 1;
nodes = (
(9,472,l),
(167,0,l),
(221,0,l),
(350,391,l),
(334,391,l),
(463,0,l),
(517,0,l),
(674,472,l),
(604,472,l),
(483,74,l),
(497,74,l),
(376,472,l),
(307,472,l),
(187,74,l),
(201,74,l),
(80,472,l)
);
}
);
width = 684;
},
{
layerId = "4DE8B86A-429B-4593-9BC8-49866BB1A430";
shapes = (
{
closed = 1;
nodes = (
(9,472,l),
(165,0,l),
(184,0,l),
(330,448,l),
(322,448,l),
(468,0,l),
(487,0,l),
(642,472,l),
(618,472,l),
(473,19,l),
(481,19,l),
(336,472,l),
(315,472,l),
(171,19,l),
(179,19,l),
(34,472,l)
);
}
);
width = 652;
},
{
layerId = "0BE882A4-FC89-4865-8E81-154FB3EE808B";
shapes = (
{
closed = 1;
nodes = (
(9,472,l),
(170,0,l),
(276,0,l),
(380,306,l),
(352,306,l),
(456,0,l),
(562,0,l),
(722,472,l),
(583,472,l),
(498,156,l),
(521,156,l),
(435,472,l),
(296,472,l),
(212,156,l),
(234,156,l),
(149,472,l)
);
}
);
width = 732;
},
{
layerId = "9C2CFEA6-85BB-4338-BB26-B1BEA40B5780";
shapes = (
{
closed = 1;
nodes = (
(9,472,l),
(171,0,l),
(285,0,l),
(385,292,l),
(355,292,l),
(455,0,l),
(570,0,l),
(731,472,l),
(579,472,l),
(501,170,l),
(524,170,l),
(446,472,l),
(294,472,l),
(215,170,l),
(240,170,l),
(160,472,l)
);
}
);
width = 740;
}
);
note = w;
unicode = 119;
},
{
glyphname = x;
kernLeft = x;
kernRight = x;
lastChange = "2025-01-07 22:23:43 +0000";
layers = (
{
layerId = m01;
shapes = (
{
closed = 1;
nodes = (
(88,0,l),
(249,190,l),
(410,0,l),
(493,0,l),
(293,237,l),
(488,472,l),
(405,472,l),
(252,286,l),
(94,472,l),
(10,472,l),
(207,240,l),
(5,0,l)
);
}
);
width = 498;
},
{
layerId = "4DE8B86A-429B-4593-9BC8-49866BB1A430";
shapes = (
{
closed = 1;
nodes = (
(33,0,l),
(222,222,l),
(410,0,l),
(439,0,l),
(238,239,l),
(432,472,l),
(403,472,l),
(225,256,l),
(36,472,l),
(5,472,l),
(207,241,l),
(5,0,l)
);
}
);
width = 444;
},
{
layerId = "0BE882A4-FC89-4865-8E81-154FB3EE808B";
shapes = (
{
closed = 1;
nodes = (
(170,0,l),
(290,142,l),
(410,0,l),
(574,0,l),
(375,234,l),
(572,472,l),
(408,472,l),
(293,331,l),
(181,472,l),
(17,472,l),
(207,239,l),
(5,0,l)
);
}
);
width = 579;
},
{
layerId = "9C2CFEA6-85BB-4338-BB26-B1BEA40B5780";
shapes = (
{
closed = 1;
nodes = (
(184,0,l),
(296,134,l),
(410,0,l),
(587,0,l),
(389,234,l),
(586,472,l),
(409,472,l),
(300,339,l),
(195,472,l),
(18,472,l),
(207,239,l),
(5,0,l)
);
}
);
width = 593;
}
);
note = x;
unicode = 120;
},
{
glyphname = y;
kernLeft = y;
kernRight = y;
lastChange = "2025-01-07 22:23:43 +0000";
layers = (
{
layerId = m01;
shapes = (
{
closed = 1;
nodes = (
(170,-189,l),
(555,472,l),
(481,472,l),
(284,135,l),
(86,472,l),
(9,472,l),
(246,71,l),
(94,-189,l)
);
}
);
width = 560;
},
{
layerId = "4DE8B86A-429B-4593-9BC8-49866BB1A430";
shapes = (
{
closed = 1;
nodes = (
(130,-189,l),
(520,472,l),
(494,472,l),
(265,87,l),
(38,472,l),
(9,472,l),
(251,64,l),
(102,-189,l)
);
}
);
width = 522;
},
{
layerId = "0BE882A4-FC89-4865-8E81-154FB3EE808B";
shapes = (
{
closed = 1;
nodes = (
(229,-189,l),
(607,472,l),
(461,472,l),
(312,207,l),
(158,472,l),
(9,472,l),
(238,81,l),
(82,-189,l)
);
}
);
width = 617;
},
{
layerId = "9C2CFEA6-85BB-4338-BB26-B1BEA40B5780";
shapes = (
{
closed = 1;
nodes = (
(240,-189,l),
(615,472,l),
(458,472,l),
(317,219,l),
(170,472,l),
(9,472,l),
(238,83,l),
(80,-189,l)
);
}
);
width = 626;
}
);
note = y;
unicode = 121;
},
{
glyphname = z;
kernLeft = z;
kernRight = z;
lastChange = "2025-01-07 22:23:43 +0000";
layers = (
{
layerId = m01;
shapes = (
{
closed = 1;
nodes = (
(432,0,l),
(432,66,l),
(133,66,l),
(438,428,l),
(438,472,l),
(41,472,l),
(41,405,l),
(337,405,l),
(38,49,l),
(38,0,l)
);
}
);
width = 475;
},
{
layerId = "4DE8B86A-429B-4593-9BC8-49866BB1A430";
shapes = (
{
closed = 1;
nodes = (
(411,0,l),
(411,30,l),
(67,30,l),
(427,454,l),
(427,468,l),
(44,468,l),
(44,441,l),
(382,441,l),
(30,24,l),
(30,0,l)
);
}
);
width = 458;
},
{
layerId = "0BE882A4-FC89-4865-8E81-154FB3EE808B";
shapes = (
{
closed = 1;
nodes = (
(463,0,l),
(463,120,l),
(232,120,l),
(455,388,l),
(455,478,l),
(37,478,l),
(37,351,l),
(269,351,l),
(49,88,l),
(49,0,l)
);
}
);
width = 500;
},
{
layerId = "9C2CFEA6-85BB-4338-BB26-B1BEA40B5780";
shapes = (
{
closed = 1;
nodes = (
(469,0,l),
(469,129,l),
(249,129,l),
(458,382,l),
(458,479,l),
(36,479,l),
(36,343,l),
(258,343,l),
(51,94,l),
(51,0,l)
);
}
);
width = 505;
}
);
note = z;
unicode = 122;
},
{
glyphname = saltillo;
lastChange = "2025-01-07 22:23:43 +0000";
layers = (
{
layerId = m01;
shapes = (
{
closed = 1;
nodes = (
(287,416,l),
(340,416,l),
(346,777,l),
(280,777,l)
);
}
);
width = 600;
},
{
layerId = "4DE8B86A-429B-4593-9BC8-49866BB1A430";
shapes = (
{
closed = 1;
nodes = (
(313,416,l),
(329,416,l),
(330,778,l),
(310,778,l)
);
}
);
width = 600;
},
{
layerId = "0BE882A4-FC89-4865-8E81-154FB3EE808B";
shapes = (
{
closed = 1;
nodes = (
(257,416,l),
(365,416,l),
(378,777,l),
(243,777,l)
);
}
);
width = 600;
},
{
layerId = "9C2CFEA6-85BB-4338-BB26-B1BEA40B5780";
shapes = (
{
closed = 1;
nodes = (
(258,416,l),
(375,416,l),
(389,778,l),
(243,778,l)
);
}
);
width = 600;
}
);
note = uniA78C;
unicode = 42892;
},
{
glyphname = a.ss01;
kernLeft = d;
lastChange = "2025-01-07 22:44:52 +0000";
layers = (
{
layerId = m01;
shapes = (
{
closed = 1;
nodes = (
(421,472,l),
(421,405,l),
(385,456,o),
(335,477,o),
(268,477,cs),
(134,477,o),
(33,374,o),
(33,236,cs),
(33,93,o),
(148,-6,o),
(273,-6,cs),
(338,-6,o),
(388,18,o),
(421,67,c),
(421,0,l),
(487,0,l),
(487,472,l)
);
},
{
closed = 1;
nodes = (
(343,417,o),
(398,376,o),
(421,323,c),
(421,146,l),
(401,95,o),
(349,55,o),
(273,55,cs),
(178,55,o),
(99,130,o),
(99,236,cs),
(99,337,o),
(168,417,o),
(268,417,cs)
);
}
);
width = 543;
},
{
layerId = "4DE8B86A-429B-4593-9BC8-49866BB1A430";
shapes = (
{
closed = 1;
nodes = (
(445,472,l),
(445,377,l),
(401,448,o),
(339,477,o),
(259,477,cs),
(134,477,o),
(33,373,o),
(33,236,cs),
(33,101,o),
(139,-6,o),
(266,-6,cs),
(343,-6,o),
(403,27,o),
(444,93,c),
(445,0,l),
(468,0,l),
(468,472,l)
);
},
{
closed = 1;
nodes = (
(348,456,o),
(419,403,o),
(444,338,c),
(445,133,l),
(420,69,o),
(355,15,o),
(266,15,cs),
(135,15,o),
(57,131,o),
(57,236,cs),
(57,363,o),
(145,456,o),
(259,456,cs)
);
}
);
width = 524;
},
{
layerId = "0BE882A4-FC89-4865-8E81-154FB3EE808B";
shapes = (
{
closed = 1;
nodes = (
(385,472,l),
(385,447,l),
(360,468,o),
(327,477,o),
(280,477,cs),
(141,477,o),
(33,377,o),
(33,236,cs),
(33,99,o),
(141,-6,o),
(285,-6,cs),
(332,-6,o),
(365,5,o),
(385,27,c),
(385,0,l),
(515,0,l),
(515,472,l)
);
},
{
closed = 1;
nodes = (
(335,357,o),
(370,334,o),
(385,302,c),
(385,166,l),
(372,135,o),
(340,114,o),
(285,114,cs),
(214,114,o),
(162,166,o),
(162,236,cs),
(162,305,o),
(210,357,o),
(280,357,cs)
);
}
);
width = 571;
},
{
layerId = "9C2CFEA6-85BB-4338-BB26-B1BEA40B5780";
shapes = (
{
closed = 1;
nodes = (
(380,472,l),
(380,455,l),
(355,470,o),
(326,477,o),
(282,477,cs),
(142,477,o),
(33,378,o),
(33,236,cs),
(33,99,o),
(142,-6,o),
(287,-6,cs),
(330,-6,o),
(360,3,o),
(379,21,c),
(380,0,l),
(520,0,l),
(520,472,l)
);
},
{
closed = 1;
nodes = (
(334,348,o),
(366,327,o),
(379,298,c),
(380,170,l),
(367,142,o),
(339,124,o),
(287,124,cs),
(222,124,o),
(173,169,o),
(173,236,cs),
(173,299,o),
(218,348,o),
(282,348,cs)
);
}
);
width = 576;
}
);
note = a.ss01;
},
{
glyphname = f_f;
lastChange = "2025-01-08 09:16:14 +0000";
layers = (
{
anchors = (
{
name = caret_1;
pos = (286.5,0);
}
);
layerId = m01;
shapes = (
{
closed = 1;
nodes = (
(323,616,o),
(344,565,o),
(346,491,cs),
(346,472,l),
(412,472,l),
(412,483,o),
(412,495,o),
(412,506,cs),
(412,609,o),
(355,674,o),
(256,674,cs),
(150,674,o),
(97,608,o),
(97,529,cs),
(97,472,l),
(8,472,l),
(8,411,l),
(97,411,l),
(97,0,l),
(163,0,l),
(163,411,l),
(298,411,l),
(298,472,l),
(163,472,l),
(163,520,ls),
(163,580,o),
(196,616,o),
(256,616,cs)
);
},
{
alignment = -1;
pos = (249,0);
ref = f;
}
);
width = 573;
},
{
anchors = (
{
name = caret_1;
pos = (260,0);
}
);
layerId = "4DE8B86A-429B-4593-9BC8-49866BB1A430";
shapes = (
{
closed = 1;
nodes = (
(325,656,o),
(332,580,o),
(329,494,cs),
(329,472,l),
(352,472,l),
(352,481,o),
(352,490,o),
(352,499,cs),
(357,609,o),
(340,677,o),
(231,677,cs),
(150,677,o),
(102,632,o),
(102,541,cs),
(102,472,l),
(4,472,l),
(4,451,l),
(102,451,l),
(102,0,l),
(125,0,l),
(125,451,l),
(273,451,l),
(273,472,l),
(125,472,l),
(125,546,ls),
(125,613,o),
(160,656,o),
(231,656,cs)
);
},
{
alignment = -1;
pos = (227,0);
ref = f;
}
);
width = 520;
},
{
anchors = (
{
name = caret_1;
pos = (326.5,0);
}
);
layerId = "0BE882A4-FC89-4865-8E81-154FB3EE808B";
shapes = (
{
closed = 1;
nodes = (
(331,555,o),
(365,530,o),
(371,486,cs),
(372,472,l),
(501,472,l),
(501,488,o),
(500,503,o),
(497,518,cs),
(474,627,o),
(376,670,o),
(294,670,cs),
(148,670,o),
(91,572,o),
(91,511,cs),
(90,472,l),
(14,472,l),
(14,352,l),
(90,352,l),
(90,0,l),
(220,0,l),
(220,352,l),
(335,352,l),
(335,472,l),
(220,472,l),
(220,480,ls),
(220,531,o),
(249,555,o),
(294,555,cs)
);
},
{
alignment = -1;
pos = (281,0);
ref = f;
}
);
width = 653;
},
{
anchors = (
{
name = caret_1;
pos = (333.5,0);
}
);
layerId = "9C2CFEA6-85BB-4338-BB26-B1BEA40B5780";
shapes = (
{
closed = 1;
nodes = (
(337,545,o),
(371,520,o),
(376,486,cs),
(377,472,l),
(517,472,l),
(517,489,o),
(515,505,o),
(512,520,cs),
(489,626,o),
(385,670,o),
(301,670,cs),
(138,670,o),
(90,556,o),
(90,508,cs),
(89,472,l),
(15,472,l),
(15,342,l),
(89,342,l),
(89,0,l),
(229,0,l),
(229,342,l),
(341,342,l),
(341,472,l),
(229,472,l),
(229,474,ls),
(229,522,o),
(257,545,o),
(301,545,cs)
);
},
{
alignment = -1;
pos = (288,0);
ref = f;
}
);
width = 667;
}
);
note = f_f;
},
{
glyphname = f_f_i;
lastChange = "2025-01-07 23:07:40 +0000";
layers = (
{
anchors = (
{
name = caret_1;
pos = (286.5,0);
},
{
name = caret_2;
pos = (530.667,0);
}
);
layerId = m01;
shapes = (
{
closed = 1;
nodes = (
(738,0,l),
(738,472,l),
(672,472,l),
(672,0,l)
);
},
{
closed = 1;
nodes = (
(737,524,o),
(764,550,o),
(764,585,cs),
(764,617,o),
(737,644,o),
(704,644,cs),
(671,644,o),
(644,617,o),
(644,585,cs),
(644,550,o),
(671,524,o),
(704,524,cs)
);
},
{
closed = 1;
nodes = (
(323,616,o),
(344,565,o),
(346,491,cs),
(346,472,l),
(412,472,l),
(412,483,o),
(412,495,o),
(412,506,cs),
(412,609,o),
(355,674,o),
(256,674,cs),
(150,674,o),
(97,608,o),
(97,529,cs),
(97,472,l),
(8,472,l),
(8,411,l),
(97,411,l),
(97,0,l),
(163,0,l),
(163,411,l),
(298,411,l),
(298,472,l),
(163,472,l),
(163,520,ls),
(163,580,o),
(196,616,o),
(256,616,cs)
);
},
{
closed = 1;
nodes = (
(412,0,l),
(412,411,l),
(704,411,l),
(704,472,l),
(412,472,l),
(412,538,ls),
(412,589,o),
(429,616,o),
(472,616,cs),
(497,616,o),
(520,604,o),
(540,581,c),
(574,629,l),
(554,658,o),
(512,674,o),
(467,674,cs),
(380,674,o),
(346,623,o),
(346,538,cs),
(346,472,l),
(257,472,l),
(257,411,l),
(346,411,l),
(346,0,l)
);
}
);
width = 796;
},
{
anchors = (
{
name = caret_1;
pos = (260,0);
},
{
name = caret_2;
pos = (498,0);
}
);
layerId = "4DE8B86A-429B-4593-9BC8-49866BB1A430";
shapes = (
{
closed = 1;
nodes = (
(681,0,l),
(681,472,l),
(658,472,l),
(658,0,l)
);
},
{
closed = 1;
nodes = (
(694,532,o),
(714,551,o),
(714,578,cs),
(714,605,o),
(694,624,o),
(669,624,cs),
(641,624,o),
(622,605,o),
(622,578,cs),
(622,551,o),
(641,532,o),
(669,532,cs)
);
},
{
closed = 1;
nodes = (
(325,656,o),
(332,580,o),
(329,494,cs),
(329,472,l),
(352,472,l),
(352,481,o),
(352,490,o),
(352,499,cs),
(357,609,o),
(340,677,o),
(231,677,cs),
(150,677,o),
(102,632,o),
(102,541,cs),
(102,472,l),
(4,472,l),
(4,451,l),
(102,451,l),
(102,0,l),
(125,0,l),
(125,451,l),
(273,451,l),
(273,472,l),
(125,472,l),
(125,546,ls),
(125,613,o),
(160,656,o),
(231,656,cs)
);
},
{
closed = 1;
nodes = (
(352,0,l),
(352,451,l),
(670,451,l),
(670,472,l),
(352,472,l),
(352,556,ls),
(352,620,o),
(373,654,o),
(432,654,cs),
(463,654,o),
(489,643,o),
(510,621,c),
(525,637,l),
(514,658,o),
(478,677,o),
(434,677,cs),
(362,677,o),
(329,637,o),
(329,556,cs),
(329,472,l),
(231,472,l),
(231,451,l),
(329,451,l),
(329,0,l)
);
}
);
width = 747;
},
{
anchors = (
{
name = caret_1;
pos = (326.5,0);
},
{
name = caret_2;
pos = (580,0);
}
);
layerId = "0BE882A4-FC89-4865-8E81-154FB3EE808B";
shapes = (
{
closed = 1;
nodes = (
(823,0,l),
(823,472,l),
(694,472,l),
(694,0,l)
);
},
{
closed = 1;
nodes = (
(802,513,o),
(838,550,o),
(838,594,cs),
(838,638,o),
(802,674,o),
(758,674,cs),
(714,674,o),
(677,638,o),
(677,594,cs),
(677,550,o),
(714,513,o),
(758,513,cs)
);
},
{
closed = 1;
nodes = (
(331,555,o),
(365,530,o),
(371,486,cs),
(372,472,l),
(501,472,l),
(501,488,o),
(500,503,o),
(497,518,cs),
(474,627,o),
(376,670,o),
(294,670,cs),
(148,670,o),
(91,572,o),
(91,511,cs),
(90,472,l),
(14,472,l),
(14,352,l),
(90,352,l),
(90,0,l),
(220,0,l),
(220,352,l),
(335,352,l),
(335,472,l),
(220,472,l),
(220,480,ls),
(220,531,o),
(249,555,o),
(294,555,cs)
);
},
{
closed = 1;
nodes = (
(501,0,l),
(501,352,l),
(799,352,l),
(799,472,l),
(501,472,l),
(501,511,ls),
(501,543,o),
(514,557,o),
(531,557,cs),
(549,557,o),
(567,545,o),
(586,520,c),
(647,616,l),
(612,656,o),
(567,670,o),
(515,670,cs),
(406,670,o),
(372,603,o),
(372,511,cs),
(371,472,l),
(295,472,l),
(295,352,l),
(371,352,l),
(371,0,l)
);
}
);
width = 870;
},
{
anchors = (
{
name = caret_1;
pos = (333.5,0);
},
{
name = caret_2;
pos = (588.667,0);
}
);
layerId = "9C2CFEA6-85BB-4338-BB26-B1BEA40B5780";
shapes = (
{
closed = 1;
nodes = (
(837,0,l),
(837,472,l),
(697,472,l),
(697,0,l)
);
},
{
closed = 1;
nodes = (
(813,511,o),
(852,549,o),
(852,596,cs),
(852,641,o),
(813,679,o),
(768,679,cs),
(721,679,o),
(683,641,o),
(683,596,cs),
(683,549,o),
(721,511,o),
(768,511,cs)
);
},
{
closed = 1;
nodes = (
(337,545,o),
(371,520,o),
(376,486,cs),
(377,472,l),
(517,472,l),
(517,489,o),
(515,505,o),
(512,520,cs),
(489,626,o),
(385,670,o),
(301,670,cs),
(138,670,o),
(90,556,o),
(90,508,cs),
(89,472,l),
(15,472,l),
(15,342,l),
(89,342,l),
(89,0,l),
(229,0,l),
(229,342,l),
(341,342,l),
(341,472,l),
(229,472,l),
(229,474,ls),
(229,522,o),
(257,545,o),
(301,545,cs)
);
},
{
closed = 1;
nodes = (
(517,0,l),
(517,342,l),
(749,342,l),
(749,472,l),
(517,472,l),
(517,506,ls),
(517,537,o),
(530,548,o),
(543,548,cs),
(560,548,o),
(577,535,o),
(594,509,c),
(660,614,l),
(624,655,o),
(577,670,o),
(525,670,cs),
(412,670,o),
(378,601,o),
(378,506,cs),
(377,472,l),
(303,472,l),
(303,342,l),
(377,342,l),
(377,0,l)
);
}
);
width = 883;
}
);
note = f_f_i;
},
{
glyphname = f_f_ij;
lastChange = "2025-01-08 09:16:14 +0000";
layers = (
{
anchors = (
{
name = bottom_1;
pos = (158,0);
},
{
name = bottom_2;
pos = (475,0);
},
{
name = bottom_3;
pos = (791,0);
},
{
name = caret_1;
pos = (322.667,0);
},
{
name = caret_2;
pos = (645.333,0);
},
{
name = top_1;
pos = (158,943);
},
{
name = top_2;
pos = (475,943);
},
{
name = top_3;
pos = (791,943);
}
);
layerId = m01;
shapes = (
{
closed = 1;
nodes = (
(726,-192,l),
(833,-192,o),
(920,-125,o),
(920,-8,cs),
(920,472,l),
(854,472,l),
(854,-8,ls),
(854,-87,o),
(799,-132,o),
(726,-132,c)
);
},
{
closed = 1;
nodes = (
(920,524,o),
(947,550,o),
(947,585,cs),
(947,617,o),
(920,644,o),
(887,644,cs),
(854,644,o),
(827,617,o),
(827,585,cs),
(827,550,o),
(854,524,o),
(887,524,cs)
);
},
{
alignment = -1;
ref = f_f_i;
}
);
width = 968;
},
{
anchors = (
{
name = bottom_1;
pos = (147,0);
},
{
name = bottom_2;
pos = (442,0);
},
{
name = bottom_3;
pos = (736,0);
},
{
name = caret_1;
pos = (294.333,0);
},
{
name = caret_2;
pos = (588.667,0);
},
{
name = top_1;
pos = (147,930);
},
{
name = top_2;
pos = (442,930);
},
{
name = top_3;
pos = (736,930);
}
);
layerId = "4DE8B86A-429B-4593-9BC8-49866BB1A430";
shapes = (
{
closed = 1;
nodes = (
(671,-208,l),
(768,-198,o),
(835,-131,o),
(835,-28,cs),
(835,472,l),
(812,472,l),
(812,-28,ls),
(812,-119,o),
(752,-178,o),
(671,-190,c)
);
},
{
closed = 1;
nodes = (
(851,532,o),
(869,551,o),
(869,578,cs),
(869,605,o),
(851,624,o),
(824,624,cs),
(797,624,o),
(778,605,o),
(778,578,cs),
(778,551,o),
(797,532,o),
(824,532,cs)
);
},
{
alignment = -1;
ref = f_f_i;
}
);
width = 883;
},
{
anchors = (
{
name = bottom_1;
pos = (182,0);
},
{
name = bottom_2;
pos = (547,0);
},
{
name = bottom_3;
pos = (912,0);
},
{
name = caret_1;
pos = (364.667,0);
},
{
name = caret_2;
pos = (729.333,0);
},
{
name = top_1;
pos = (182,930);
},
{
name = top_2;
pos = (547,930);
},
{
name = top_3;
pos = (912,930);
}
);
layerId = "0BE882A4-FC89-4865-8E81-154FB3EE808B";
shapes = (
{
closed = 1;
nodes = (
(807,-167,l),
(924,-187,o),
(1047,-117,o),
(1047,21,cs),
(1046,472,l),
(917,472,l),
(917,21,ls),
(918,-39,o),
(868,-63,o),
(807,-46,c)
);
},
{
closed = 1;
nodes = (
(1025,513,o),
(1062,550,o),
(1062,594,cs),
(1062,638,o),
(1025,674,o),
(982,674,cs),
(937,674,o),
(901,638,o),
(901,594,cs),
(901,550,o),
(937,513,o),
(982,513,cs)
);
},
{
alignment = -1;
ref = f_f_i;
}
);
width = 1094;
},
{
anchors = (
{
name = bottom_1;
pos = (186,0);
},
{
name = bottom_2;
pos = (558,0);
},
{
name = bottom_3;
pos = (929,0);
},
{
name = caret_1;
pos = (371.667,0);
},
{
name = caret_2;
pos = (743.333,0);
},
{
name = top_1;
pos = (186,930);
},
{
name = top_2;
pos = (558,930);
},
{
name = top_3;
pos = (929,930);
}
);
layerId = "9C2CFEA6-85BB-4338-BB26-B1BEA40B5780";
shapes = (
{
closed = 1;
nodes = (
(820,-164,l),
(947,-187,o),
(1067,-108,o),
(1067,25,cs),
(1067,472,l),
(928,472,l),
(928,26,ls),
(928,-30,o),
(880,-52,o),
(820,-32,c)
);
},
{
closed = 1;
nodes = (
(1043,511,o),
(1082,549,o),
(1082,596,cs),
(1082,641,o),
(1043,679,o),
(998,679,cs),
(951,679,o),
(913,641,o),
(913,596,cs),
(913,549,o),
(951,511,o),
(998,511,cs)
);
},
{
alignment = -1;
ref = f_f_i;
}
);
width = 1115;
}
);
note = f_f_ij;
},
{
glyphname = f_f_l;
lastChange = "2025-01-07 23:08:55 +0000";
layers = (
{
anchors = (
{
name = caret_1;
pos = (253,0);
},
{
name = caret_2;
pos = (506,0);
}
);
layerId = m01;
shapes = (
{
closed = 1;
nodes = (
(447,616,o),
(412,581,o),
(412,520,cs),
(412,472,l),
(547,472,l),
(547,411,l),
(412,411,l),
(412,0,l),
(346,0,l),
(346,411,l),
(163,411,l),
(163,0,l),
(97,0,l),
(97,411,l),
(8,411,l),
(8,472,l),
(97,472,l),
(97,529,ls),
(97,608,o),
(150,674,o),
(256,674,cs),
(311,674,o),
(353,649,o),
(377,604,c),
(405,649,o),
(451,674,o),
(524,674,cs),
(652,674,o),
(703,616,o),
(703,529,cs),
(703,0,l),
(637,0,l),
(637,520,ls),
(637,581,o),
(603,616,o),
(524,616,cs)
);
},
{
closed = 1;
nodes = (
(163,472,l),
(346,472,l),
(346,478,ls),
(346,571,o),
(322,616,o),
(256,616,cs),
(196,616,o),
(163,580,o),
(163,520,cs)
);
}
);
width = 759;
},
{
anchors = (
{
name = caret_1;
pos = (219,0);
},
{
name = caret_2;
pos = (438,0);
}
);
layerId = "4DE8B86A-429B-4593-9BC8-49866BB1A430";
shapes = (
{
closed = 1;
nodes = (
(389,656,o),
(353,609,o),
(353,541,cs),
(353,472,l),
(501,472,l),
(501,451,l),
(353,451,l),
(353,0,l),
(328,0,l),
(328,451,l),
(125,451,l),
(125,0,l),
(102,0,l),
(102,451,l),
(4,451,l),
(4,472,l),
(102,472,l),
(102,541,ls),
(102,632,o),
(150,677,o),
(231,677,cs),
(292,677,o),
(328,643,o),
(340,588,c),
(361,645,o),
(398,677,o),
(465,677,cs),
(550,677,o),
(601,630,o),
(601,541,cs),
(601,0,l),
(578,0,l),
(578,548,ls),
(577,615,o),
(542,656,o),
(465,656,cs)
);
},
{
closed = 1;
nodes = (
(125,472,l),
(328,472,l),
(328,476,ls),
(328,611,o),
(312,656,o),
(231,656,cs),
(160,656,o),
(125,613,o),
(125,546,cs)
);
}
);
width = 657;
},
{
anchors = (
{
name = caret_1;
pos = (304,0);
},
{
name = caret_2;
pos = (608,0);
}
);
layerId = "0BE882A4-FC89-4865-8E81-154FB3EE808B";
shapes = (
{
closed = 1;
nodes = (
(531,555,o),
(502,539,o),
(502,487,cs),
(502,472,l),
(617,472,l),
(617,352,l),
(502,352,l),
(502,0,l),
(372,0,l),
(372,352,l),
(220,352,l),
(220,0,l),
(90,0,l),
(90,352,l),
(14,352,l),
(14,472,l),
(90,472,l),
(90,511,ls),
(92,605,o),
(185,670,o),
(294,670,cs),
(341,670,o),
(393,658,o),
(433,629,c),
(470,656,o),
(530,670,o),
(614,670,cs),
(805,670,o),
(855,594,o),
(855,511,cs),
(856,0,l),
(727,0,l),
(727,478,ls),
(726,530,o),
(694,555,o),
(614,555,cs)
);
},
{
closed = 1;
nodes = (
(220,472,l),
(372,472,l),
(372,481,ls),
(372,531,o),
(338,555,o),
(294,555,cs),
(249,555,o),
(220,531,o),
(220,480,cs)
);
}
);
width = 912;
},
{
anchors = (
{
name = caret_1;
pos = (312.333,0);
},
{
name = caret_2;
pos = (624.667,0);
}
);
layerId = "9C2CFEA6-85BB-4338-BB26-B1BEA40B5780";
shapes = (
{
closed = 1;
nodes = (
(545,545,o),
(517,532,o),
(517,481,cs),
(517,472,l),
(628,472,l),
(628,342,l),
(517,342,l),
(517,0,l),
(377,0,l),
(377,342,l),
(229,342,l),
(229,0,l),
(89,0,l),
(89,342,l),
(15,342,l),
(15,472,l),
(89,472,l),
(89,508,ls),
(91,603,o),
(190,670,o),
(301,670,cs),
(348,670,o),
(401,660,o),
(442,633,c),
(482,656,o),
(542,670,o),
(629,670,cs),
(829,670,o),
(881,591,o),
(881,508,cs),
(881,0,l),
(742,0,l),
(742,471,ls),
(741,523,o),
(709,545,o),
(629,545,cs)
);
},
{
closed = 1;
nodes = (
(229,472,l),
(377,472,l),
(377,482,ls),
(377,530,o),
(341,545,o),
(301,545,cs),
(257,545,o),
(229,522,o),
(229,473,cs)
);
}
);
width = 937;
}
);
note = f_f_l;
},
{
glyphname = f_i;
lastChange = "2025-01-07 22:29:37 +0000";
layers = (
{
anchors = (
{
name = bottom_1;
pos = (137,0);
},
{
name = bottom_2;
pos = (410,0);
},
{
name = caret_1;
pos = (273.5,0);
},
{
name = top_1;
pos = (137,943);
},
{
name = top_2;
pos = (410,943);
}
);
layerId = m01;
shapes = (
{
closed = 1;
nodes = (
(163,0,l),
(163,411,l),
(446,411,l),
(446,472,l),
(163,472,l),
(163,538,ls),
(163,589,o),
(180,616,o),
(223,616,cs),
(248,616,o),
(271,604,o),
(291,581,c),
(325,629,l),
(305,658,o),
(263,674,o),
(218,674,cs),
(131,674,o),
(97,623,o),
(97,538,cs),
(97,472,l),
(8,472,l),
(8,411,l),
(97,411,l),
(97,0,l)
);
},
{
closed = 1;
nodes = (
(489,0,l),
(489,472,l),
(423,472,l),
(423,0,l)
);
},
{
closed = 1;
nodes = (
(488,524,o),
(515,550,o),
(515,585,cs),
(515,617,o),
(488,644,o),
(455,644,cs),
(422,644,o),
(395,617,o),
(395,585,cs),
(395,550,o),
(422,524,o),
(455,524,cs)
);
}
);
width = 547;
},
{
anchors = (
{
name = bottom_1;
pos = (130,0);
},
{
name = bottom_2;
pos = (389,0);
},
{
name = caret_1;
pos = (259.5,0);
},
{
name = top_1;
pos = (130,930);
},
{
name = top_2;
pos = (389,930);
}
);
layerId = "4DE8B86A-429B-4593-9BC8-49866BB1A430";
shapes = (
{
closed = 1;
nodes = (
(125,0,l),
(125,451,l),
(444,451,l),
(444,472,l),
(125,472,l),
(125,556,ls),
(125,620,o),
(146,654,o),
(205,654,cs),
(236,654,o),
(262,643,o),
(283,621,c),
(298,637,l),
(287,658,o),
(251,677,o),
(207,677,cs),
(135,677,o),
(102,637,o),
(102,556,cs),
(102,472,l),
(4,472,l),
(4,451,l),
(102,451,l),
(102,0,l)
);
},
{
closed = 1;
nodes = (
(454,0,l),
(454,472,l),
(431,472,l),
(431,0,l)
);
},
{
closed = 1;
nodes = (
(468,532,o),
(487,551,o),
(487,578,cs),
(487,605,o),
(468,624,o),
(441,624,cs),
(414,624,o),
(395,605,o),
(395,578,cs),
(395,551,o),
(414,532,o),
(441,532,cs)
);
}
);
width = 519;
},
{
anchors = (
{
name = bottom_1;
pos = (147,0);
},
{
name = bottom_2;
pos = (441,0);
},
{
name = caret_1;
pos = (294,0);
},
{
name = top_1;
pos = (147,930);
},
{
name = top_2;
pos = (441,930);
}
);
layerId = "0BE882A4-FC89-4865-8E81-154FB3EE808B";
shapes = (
{
closed = 1;
nodes = (
(220,0,l),
(220,352,l),
(449,352,l),
(449,472,l),
(220,472,l),
(220,511,ls),
(220,543,o),
(233,557,o),
(250,557,cs),
(268,557,o),
(286,545,o),
(305,520,c),
(366,616,l),
(331,656,o),
(286,670,o),
(234,670,cs),
(125,670,o),
(91,603,o),
(91,511,cs),
(90,472,l),
(14,472,l),
(14,352,l),
(90,352,l),
(90,0,l)
);
},
{
closed = 1;
nodes = (
(541,0,l),
(541,472,l),
(412,472,l),
(412,0,l)
);
},
{
closed = 1;
nodes = (
(520,513,o),
(556,550,o),
(556,594,cs),
(556,638,o),
(520,674,o),
(476,674,cs),
(432,674,o),
(395,638,o),
(395,594,cs),
(395,550,o),
(432,513,o),
(476,513,cs)
);
}
);
width = 588;
},
{
anchors = (
{
name = bottom_1;
pos = (149,0);
},
{
name = bottom_2;
pos = (446,0);
},
{
name = caret_1;
pos = (297.5,0);
},
{
name = top_1;
pos = (149,930);
},
{
name = top_2;
pos = (446,930);
}
);
layerId = "9C2CFEA6-85BB-4338-BB26-B1BEA40B5780";
shapes = (
{
closed = 1;
nodes = (
(229,0,l),
(229,342,l),
(450,342,l),
(450,472,l),
(229,472,l),
(229,506,ls),
(229,537,o),
(242,548,o),
(255,548,cs),
(272,548,o),
(289,535,o),
(306,509,c),
(372,614,l),
(336,655,o),
(289,670,o),
(237,670,cs),
(124,670,o),
(90,601,o),
(90,506,cs),
(89,472,l),
(15,472,l),
(15,342,l),
(89,342,l),
(89,0,l)
);
},
{
closed = 1;
nodes = (
(549,0,l),
(549,472,l),
(410,472,l),
(410,0,l)
);
},
{
closed = 1;
nodes = (
(525,511,o),
(564,549,o),
(564,596,cs),
(564,641,o),
(525,679,o),
(480,679,cs),
(433,679,o),
(395,641,o),
(395,596,cs),
(395,549,o),
(433,511,o),
(480,511,cs)
);
}
);
width = 595;
}
);
note = f_i;
},
{
glyphname = f_l;
kernLeft = f;
kernRight = l;
lastChange = "2025-01-07 22:29:37 +0000";
layers = (
{
anchors = (
{
name = bottom_1;
pos = (127,0);
},
{
name = bottom_2;
pos = (383,0);
},
{
name = caret_1;
pos = (255,0);
},
{
name = top_1;
pos = (127,943);
},
{
name = top_2;
pos = (383,943);
}
);
layerId = m01;
shapes = (
{
closed = 1;
nodes = (
(198,616,o),
(163,581,o),
(163,520,cs),
(163,472,l),
(298,472,l),
(298,411,l),
(163,411,l),
(163,0,l),
(97,0,l),
(97,411,l),
(8,411,l),
(8,472,l),
(97,472,l),
(97,529,ls),
(97,616,o),
(148,674,o),
(275,674,cs),
(403,674,o),
(454,616,o),
(454,529,cs),
(454,0,l),
(388,0,l),
(388,520,ls),
(388,581,o),
(354,616,o),
(275,616,cs)
);
}
);
width = 510;
},
{
anchors = (
{
name = bottom_1;
pos = (108,0);
},
{
name = bottom_2;
pos = (323,0);
},
{
name = caret_1;
pos = (215,0);
},
{
name = top_1;
pos = (108,930);
},
{
name = top_2;
pos = (323,930);
}
);
layerId = "4DE8B86A-429B-4593-9BC8-49866BB1A430";
shapes = (
{
closed = 1;
nodes = (
(161,656,o),
(125,609,o),
(125,541,cs),
(125,472,l),
(273,472,l),
(273,451,l),
(125,451,l),
(125,0,l),
(102,0,l),
(102,451,l),
(4,451,l),
(4,472,l),
(102,472,l),
(102,541,ls),
(102,630,o),
(153,677,o),
(238,677,cs),
(322,677,o),
(373,630,o),
(373,541,cs),
(374,0,l),
(350,0,l),
(350,548,ls),
(350,615,o),
(315,656,o),
(238,656,cs)
);
}
);
width = 430;
},
{
anchors = (
{
name = bottom_1;
pos = (158,0);
},
{
name = bottom_2;
pos = (473,0);
},
{
name = caret_1;
pos = (315,0);
},
{
name = top_1;
pos = (158,930);
},
{
name = top_2;
pos = (473,930);
}
);
layerId = "0BE882A4-FC89-4865-8E81-154FB3EE808B";
shapes = (
{
closed = 1;
nodes = (
(249,555,o),
(220,539,o),
(220,487,cs),
(220,472,l),
(335,472,l),
(335,352,l),
(220,352,l),
(220,0,l),
(90,0,l),
(90,352,l),
(14,352,l),
(14,472,l),
(90,472,l),
(90,511,ls),
(91,594,o),
(141,670,o),
(332,670,cs),
(523,670,o),
(573,594,o),
(573,511,cs),
(574,0,l),
(445,0,l),
(445,478,ls),
(444,530,o),
(412,555,o),
(332,555,cs)
);
}
);
width = 630;
},
{
anchors = (
{
name = bottom_1;
pos = (163,0);
},
{
name = bottom_2;
pos = (488,0);
},
{
name = caret_1;
pos = (325,0);
},
{
name = top_1;
pos = (163,930);
},
{
name = top_2;
pos = (488,930);
}
);
layerId = "9C2CFEA6-85BB-4338-BB26-B1BEA40B5780";
shapes = (
{
closed = 1;
nodes = (
(257,545,o),
(229,532,o),
(229,481,cs),
(229,472,l),
(341,472,l),
(341,342,l),
(229,342,l),
(229,0,l),
(89,0,l),
(89,342,l),
(15,342,l),
(15,472,l),
(89,472,l),
(89,508,ls),
(90,591,o),
(141,670,o),
(341,670,cs),
(542,670,o),
(593,591,o),
(593,508,cs),
(594,0,l),
(454,0,l),
(454,471,ls),
(454,523,o),
(422,545,o),
(341,545,cs)
);
}
);
width = 650;
}
);
note = f_l;
},
{
glyphname = s_t;
lastChange = "2025-01-07 22:49:51 +0000";
layers = (
{
layerId = m01;
shapes = (
{
closed = 1;
nodes = (
(288,-6,o),
(361,50,o),
(361,141,cs),
(361,201,o),
(328,237,o),
(288,257,cs),
(268,266,o),
(242,276,o),
(210,287,cs),
(151,307,o),
(114,321,o),
(114,357,cs),
(114,394,o),
(141,418,o),
(188,418,cs),
(223,418,o),
(254,401,o),
(281,368,c),
(328,410,l),
(289,457,o),
(245,477,o),
(185,477,cs),
(103,477,o),
(48,429,o),
(48,357,cs),
(48,313,o),
(75,284,o),
(109,268,cs),
(126,260,o),
(148,251,o),
(177,242,cs),
(260,215,o),
(295,191,o),
(295,141,cs),
(295,89,o),
(255,55,o),
(196,55,cs),
(143,55,o),
(98,78,o),
(66,119,c),
(19,75,l),
(70,21,o),
(129,-6,o),
(196,-6,cs)
);
},
{
closed = 1;
nodes = (
(626,-6,o),
(672,7,o),
(700,26,c),
(671,79,l),
(650,64,o),
(626,57,o),
(595,57,cs),
(551,57,o),
(536,87,o),
(536,151,cs),
(536,418,l),
(684,418,l),
(684,478,l),
(536,478,l),
(536,595,o),
(462,666,o),
(369,666,cs),
(277,666,o),
(221,604,o),
(227,517,cs),
(230,474,o),
(248,431,o),
(283,388,c),
(328,410,l),
(253,515,o),
(288,600,o),
(369,600,cs),
(433,600,o),
(470,549,o),
(470,478,c),
(394,478,l),
(394,418,l),
(470,418,l),
(470,146,ls),
(470,32,o),
(510,-6,o),
(590,-6,cs)
);
}
);
width = 706;
},
{
layerId = "4DE8B86A-429B-4593-9BC8-49866BB1A430";
shapes = (
{
closed = 1;
nodes = (
(262,-6,o),
(328,51,o),
(328,136,cs),
(328,196,o),
(296,231,o),
(256,250,cs),
(235,259,o),
(209,269,o),
(176,279,cs),
(94,304,o),
(60,324,o),
(60,370,cs),
(60,419,o),
(98,455,o),
(163,455,cs),
(204,455,o),
(239,438,o),
(271,401,c),
(289,415,l),
(257,456,o),
(214,477,o),
(161,477,cs),
(82,477,o),
(37,437,o),
(37,368,cs),
(37,327,o),
(63,301,o),
(96,286,cs),
(113,279,o),
(135,270,o),
(163,261,cs),
(266,230,o),
(304,201,o),
(304,136,cs),
(304,65,o),
(250,18,o),
(174,18,cs),
(117,18,o),
(64,42,o),
(31,82,c),
(12,65,l),
(59,18,o),
(113,-6,o),
(174,-6,cs)
);
},
{
closed = 1;
nodes = (
(567,-6,o),
(614,4,o),
(639,21,c),
(628,41,l),
(600,26,o),
(570,19,o),
(534,19,cs),
(475,19,o),
(457,61,o),
(457,150,cs),
(458,457,l),
(624,457,l),
(624,479,l),
(458,479,l),
(456,604,o),
(427,666,o),
(345,666,cs),
(270,666,o),
(228,609,o),
(233,530,cs),
(235,490,o),
(249,451,o),
(274,412,c),
(289,415,l),
(237,512,o),
(239,642,o),
(345,642,cs),
(414,642,o),
(434,579,o),
(434,479,c),
(354,479,l),
(354,457,l),
(434,457,l),
(434,159,ls),
(434,31,o),
(461,-6,o),
(544,-6,cs)
);
}
);
width = 650;
},
{
layerId = "0BE882A4-FC89-4865-8E81-154FB3EE808B";
shapes = (
{
closed = 1;
nodes = (
(329,-6,o),
(411,48,o),
(411,148,cs),
(411,209,o),
(374,249,o),
(333,270,cs),
(312,281,o),
(287,291,o),
(256,302,cs),
(216,315,o),
(194,326,o),
(194,339,cs),
(194,356,o),
(208,363,o),
(224,363,cs),
(253,363,o),
(277,344,o),
(296,319,c),
(386,403,l),
(339,455,o),
(289,477,o),
(220,477,cs),
(131,477,o),
(65,417,o),
(65,341,cs),
(65,289,o),
(94,258,o),
(129,240,cs),
(146,231,o),
(169,221,o),
(197,212,cs),
(244,196,o),
(282,183,o),
(282,148,cs),
(282,125,o),
(263,110,o),
(228,110,cs),
(184,110,o),
(150,131,o),
(118,174,c),
(28,90,l),
(87,26,o),
(153,-6,o),
(228,-6,cs)
);
},
{
closed = 1;
nodes = (
(718,-6,o),
(758,11,o),
(790,35,c),
(736,136,l),
(725,123,o),
(708,113,o),
(687,113,cs),
(666,113,o),
(653,124,o),
(653,152,cs),
(653,360,l),
(775,360,l),
(775,477,l),
(653,477,l),
(651,608,o),
(543,676,o),
(436,676,cs),
(324,676,o),
(239,597,o),
(240,498,cs),
(241,449,o),
(264,404,o),
(310,363,c),
(386,403,l),
(340,470,o),
(364,557,o),
(446,557,cs),
(491,557,o),
(523,522,o),
(523,477,c),
(453,477,l),
(453,360,l),
(524,360,l),
(524,126,ls),
(522,36,o),
(570,-6,o),
(659,-6,cs)
);
}
);
width = 790;
},
{
layerId = "9C2CFEA6-85BB-4338-BB26-B1BEA40B5780";
shapes = (
{
closed = 1;
nodes = (
(335,-6,o),
(420,48,o),
(420,149,cs),
(420,212,o),
(383,252,o),
(340,273,cs),
(319,284,o),
(293,294,o),
(263,305,cs),
(229,316,o),
(207,324,o),
(207,337,cs),
(207,350,o),
(218,354,o),
(231,354,cs),
(259,354,o),
(283,335,o),
(299,310,c),
(396,402,l),
(348,455,o),
(297,477,o),
(225,477,cs),
(135,477,o),
(68,415,o),
(68,339,cs),
(68,284,o),
(97,253,o),
(133,235,cs),
(150,226,o),
(173,216,o),
(201,207,cs),
(249,190,o),
(280,179,o),
(280,149,cs),
(280,132,o),
(263,120,o),
(234,120,cs),
(190,120,o),
(158,140,o),
(126,184,c),
(30,93,l),
(89,27,o),
(157,-6,o),
(234,-6,cs)
);
},
{
closed = 1;
nodes = (
(734,-6,o),
(773,12,o),
(806,37,c),
(747,145,l),
(739,132,o),
(722,123,o),
(703,123,cs),
(684,123,o),
(672,129,o),
(672,152,cs),
(672,351,l),
(790,351,l),
(790,477,l),
(672,477,l),
(672,612,o),
(566,676,o),
(445,676,cs),
(333,676,o),
(248,596,o),
(249,495,cs),
(249,444,o),
(272,397,o),
(319,353,c),
(396,402,l),
(350,467,o),
(371,557,o),
(455,557,cs),
(500,557,o),
(532,522,o),
(532,477,c),
(463,477,l),
(463,351,l),
(533,351,l),
(533,123,ls),
(531,34,o),
(582,-6,o),
(671,-6,cs)
);
}
);
width = 804;
}
);
note = s_t;
},
{
glyphname = Asuperior;
lastChange = "2025-01-08 09:23:44 +0000";
layers = (
{
layerId = m01;
shapes = (
{
closed = 1;
nodes = (
(340,285,l),
(192,662,l),
(156,662,l),
(8,285,l),
(48,285,l),
(89,389,l),
(259,389,l),
(300,285,l)
);
},
{
closed = 1;
nodes = (
(174,607,l),
(246,423,l),
(102,423,l)
);
}
);
width = 348;
},
{
layerId = "4DE8B86A-429B-4593-9BC8-49866BB1A430";
shapes = (
{
closed = 1;
nodes = (
(317,285,l),
(170,662,l),
(154,662,l),
(6,285,l),
(21,285,l),
(70,411,l),
(254,411,l),
(303,285,l)
);
},
{
closed = 1;
nodes = (
(162,646,l),
(248,424,l),
(75,424,l)
);
}
);
width = 324;
},
{
layerId = "0BE882A4-FC89-4865-8E81-154FB3EE808B";
shapes = (
{
closed = 1;
nodes = (
(373,285,l),
(226,662,l),
(156,662,l),
(8,285,l),
(90,285,l),
(117,354,l),
(265,354,l),
(292,285,l)
);
},
{
closed = 1;
nodes = (
(191,544,l),
(238,425,l),
(145,425,l)
);
}
);
width = 381;
},
{
layerId = "9C2CFEA6-85BB-4338-BB26-B1BEA40B5780";
shapes = (
{
closed = 1;
nodes = (
(380,285,l),
(232,662,l),
(156,662,l),
(8,285,l),
(97,285,l),
(122,348,l),
(266,348,l),
(291,285,l)
);
},
{
closed = 1;
nodes = (
(194,533,l),
(236,425,l),
(152,425,l)
);
}
);
width = 386;
}
);
note = Asuperior;
},
{
glyphname = Bsuperior;
lastChange = "2025-01-08 09:24:48 +0000";
layers = (
{
layerId = m01;
shapes = (
{
closed = 1;
nodes = (
(301,465,o),
(259,499,o),
(217,506,c),
(245,518,o),
(255,541,o),
(255,573,cs),
(255,621,o),
(217,662,o),
(166,662,cs),
(43,662,l),
(43,285,l),
(178,285,ls),
(251,285,o),
(301,333,o),
(301,403,cs)
);
},
{
closed = 1;
nodes = (
(81,319,l),
(81,485,l),
(179,485,ls),
(235,485,o),
(264,449,o),
(264,403,cs),
(264,352,o),
(232,319,o),
(167,319,cs)
);
},
{
closed = 1;
nodes = (
(81,520,l),
(81,628,l),
(166,628,ls),
(194,628,o),
(217,604,o),
(217,573,cs),
(217,541,o),
(204,520,o),
(167,520,cs)
);
}
);
width = 318;
},
{
layerId = "4DE8B86A-429B-4593-9BC8-49866BB1A430";
shapes = (
{
closed = 1;
nodes = (
(291,464,o),
(246,505,o),
(195,507,c),
(230,520,o),
(241,549,o),
(241,580,cs),
(241,623,o),
(207,662,o),
(159,662,cs),
(42,662,l),
(42,285,l),
(170,285,ls),
(242,285,o),
(291,328,o),
(291,398,cs)
);
},
{
closed = 1;
nodes = (
(55,297,l),
(55,499,l),
(183,499,ls),
(246,499,o),
(276,450,o),
(276,398,cs),
(276,339,o),
(242,298,o),
(162,298,cs)
);
},
{
closed = 1;
nodes = (
(54,509,l),
(54,651,l),
(159,651,ls),
(196,650,o),
(228,619,o),
(228,580,cs),
(228,544,o),
(212,509,o),
(165,509,cs)
);
}
);
width = 305;
},
{
layerId = "0BE882A4-FC89-4865-8E81-154FB3EE808B";
shapes = (
{
closed = 1;
nodes = (
(317,458,o),
(282,492,o),
(240,503,c),
(263,516,o),
(275,541,o),
(275,572,cs),
(275,626,o),
(231,662,o),
(175,662,cs),
(43,662,l),
(43,285,l),
(188,285,ls),
(257,285,o),
(317,333,o),
(317,410,cs)
);
},
{
closed = 1;
nodes = (
(120,356,l),
(120,464,l),
(172,464,ls),
(215,464,o),
(240,440,o),
(240,410,cs),
(240,374,o),
(215,356,o),
(172,356,cs)
);
},
{
closed = 1;
nodes = (
(120,535,l),
(120,591,l),
(170,591,ls),
(187,591,o),
(198,579,o),
(198,563,cs),
(198,546,o),
(187,535,o),
(170,535,cs)
);
}
);
width = 333;
},
{
layerId = "9C2CFEA6-85BB-4338-BB26-B1BEA40B5780";
shapes = (
{
closed = 1;
nodes = (
(320,462,o),
(282,492,o),
(243,503,c),
(266,516,o),
(279,540,o),
(279,571,cs),
(279,626,o),
(233,662,o),
(176,662,cs),
(43,662,l),
(43,285,l),
(190,285,ls),
(261,285,o),
(320,325,o),
(320,411,cs)
);
},
{
closed = 1;
nodes = (
(126,362,l),
(126,460,l),
(171,460,ls),
(211,459,o),
(236,439,o),
(236,411,cs),
(236,378,o),
(212,362,o),
(174,362,cs)
);
},
{
closed = 1;
nodes = (
(126,538,l),
(126,585,l),
(170,585,ls),
(186,584,o),
(195,576,o),
(195,561,cs),
(195,548,o),
(184,538,o),
(171,538,cs)
);
}
);
width = 336;
}
);
note = Bsuperior;
},
{
glyphname = Ksuperior;
lastChange = "2025-01-08 09:23:44 +0000";
layers = (
{
layerId = m01;
shapes = (
{
closed = 1;
nodes = (
(81,285,l),
(81,443,l),
(118,477,l),
(264,285,l),
(312,285,l),
(145,503,l),
(316,662,l),
(262,662,l),
(81,493,l),
(81,662,l),
(43,662,l),
(43,285,l)
);
}
);
width = 321;
},
{
layerId = "4DE8B86A-429B-4593-9BC8-49866BB1A430";
shapes = (
{
closed = 1;
nodes = (
(55,285,l),
(55,456,l),
(95,493,l),
(254,285,l),
(272,285,l),
(106,503,l),
(277,662,l),
(259,662,l),
(55,473,l),
(55,662,l),
(42,662,l),
(42,285,l)
);
}
);
width = 279;
},
{
layerId = "0BE882A4-FC89-4865-8E81-154FB3EE808B";
shapes = (
{
closed = 1;
nodes = (
(120,285,l),
(120,423,l),
(150,451,l),
(278,285,l),
(373,285,l),
(205,502,l),
(376,662,l),
(267,662,l),
(120,524,l),
(120,662,l),
(43,662,l),
(43,285,l)
);
}
);
width = 381;
},
{
layerId = "9C2CFEA6-85BB-4338-BB26-B1BEA40B5780";
shapes = (
{
closed = 1;
nodes = (
(126,285,l),
(126,419,l),
(156,445,l),
(279,285,l),
(383,285,l),
(216,502,l),
(386,662,l),
(268,662,l),
(126,529,l),
(126,662,l),
(43,662,l),
(43,285,l)
);
}
);
width = 391;
}
);
note = Ksuperior;
},
{
glyphname = Nsuperior;
lastChange = "2025-01-08 09:23:44 +0000";
layers = (
{
layerId = m01;
shapes = (
{
closed = 1;
nodes = (
(81,285,l),
(81,594,l),
(293,285,l),
(328,285,l),
(328,662,l),
(289,662,l),
(289,356,l),
(79,662,l),
(43,662,l),
(43,285,l)
);
}
);
width = 371;
},
{
layerId = "4DE8B86A-429B-4593-9BC8-49866BB1A430";
shapes = (
{
closed = 1;
nodes = (
(55,285,l),
(55,640,l),
(297,285,l),
(311,285,l),
(311,662,l),
(296,662,l),
(296,314,l),
(57,662,l),
(42,662,l),
(42,285,l)
);
}
);
width = 353;
},
{
layerId = "0BE882A4-FC89-4865-8E81-154FB3EE808B";
shapes = (
{
closed = 1;
nodes = (
(120,285,l),
(120,521,l),
(282,285,l),
(352,285,l),
(352,662,l),
(275,662,l),
(275,427,l),
(112,662,l),
(43,662,l),
(43,285,l)
);
}
);
width = 395;
},
{
layerId = "9C2CFEA6-85BB-4338-BB26-B1BEA40B5780";
shapes = (
{
closed = 1;
nodes = (
(126,285,l),
(126,510,l),
(280,285,l),
(356,285,l),
(356,662,l),
(273,662,l),
(273,437,l),
(118,662,l),
(43,662,l),
(43,285,l)
);
}
);
width = 400;
}
);
note = Nsuperior;
},
{
glyphname = Qsuperior;
lastChange = "2025-01-08 09:21:24 +0000";
layers = (
{
layerId = m01;
shapes = (
{
closed = 1;
nodes = (
(409,285,l),
(350,339,l),
(384,375,o),
(403,422,o),
(403,473,cs),
(403,589,o),
(308,665,o),
(213,665,cs),
(92,665,o),
(24,563,o),
(24,473,cs),
(24,353,o),
(123,282,o),
(213,282,cs),
(255,282,o),
(291,294,o),
(322,315,c),
(355,285,l)
);
},
{
closed = 1;
nodes = (
(119,316,o),
(62,397,o),
(62,473,cs),
(62,574,o),
(142,630,o),
(213,630,cs),
(310,630,o),
(365,548,o),
(365,473,cs),
(365,425,o),
(347,389,o),
(323,364,c),
(239,441,l),
(185,441,l),
(295,340,l),
(269,324,o),
(239,316,o),
(213,316,cs)
);
}
);
width = 427;
},
{
layerId = "4DE8B86A-429B-4593-9BC8-49866BB1A430";
shapes = (
{
closed = 1;
nodes = (
(391,285,l),
(339,332,l),
(378,368,o),
(400,419,o),
(400,473,cs),
(400,595,o),
(300,665,o),
(211,665,cs),
(90,665,o),
(23,561,o),
(23,473,cs),
(23,351,o),
(123,282,o),
(211,282,cs),
(257,282,o),
(298,298,o),
(328,322,c),
(369,285,l)
);
},
{
closed = 1;
nodes = (
(100,294,o),
(37,391,o),
(37,473,cs),
(37,586,o),
(126,653,o),
(211,653,cs),
(321,653,o),
(386,560,o),
(386,473,cs),
(386,414,o),
(362,370,o),
(330,341,c),
(219,442,l),
(199,442,l),
(319,331,l),
(286,306,o),
(246,294,o),
(211,294,cs)
);
}
);
width = 423;
},
{
layerId = "0BE882A4-FC89-4865-8E81-154FB3EE808B";
shapes = (
{
closed = 1;
nodes = (
(437,285,l),
(364,353,l),
(389,384,o),
(405,424,o),
(405,473,cs),
(405,597,o),
(303,665,o),
(215,665,cs),
(94,665,o),
(24,564,o),
(24,473,cs),
(24,353,o),
(123,282,o),
(215,282,cs),
(246,282,o),
(278,290,o),
(306,305,c),
(328,285,l)
);
},
{
closed = 1;
nodes = (
(152,353,o),
(101,405,o),
(101,473,cs),
(101,541,o),
(152,594,o),
(215,594,cs),
(280,594,o),
(328,540,o),
(328,473,cs),
(328,445,o),
(321,422,o),
(309,404,c),
(268,442,l),
(158,442,l),
(248,358,l),
(238,355,o),
(226,353,o),
(215,353,cs)
);
}
);
width = 430;
},
{
layerId = "9C2CFEA6-85BB-4338-BB26-B1BEA40B5780";
shapes = (
{
closed = 1;
nodes = (
(442,285,l),
(366,355,l),
(390,385,o),
(406,425,o),
(406,473,cs),
(406,589,o),
(312,665,o),
(215,665,cs),
(94,665,o),
(24,565,o),
(24,473,cs),
(24,353,o),
(123,282,o),
(215,282,cs),
(245,282,o),
(276,289,o),
(303,303,c),
(323,285,l)
);
},
{
closed = 1;
nodes = (
(154,359,o),
(108,411,o),
(108,473,cs),
(108,541,o),
(159,588,o),
(215,588,cs),
(276,588,o),
(323,536,o),
(323,473,cs),
(323,449,o),
(316,427,o),
(306,411,c),
(272,442,l),
(154,442,l),
(240,362,l),
(232,360,o),
(223,359,o),
(215,359,cs)
);
}
);
width = 430;
}
);
note = Qsuperior;
},
{
glyphname = Rsuperior;
lastChange = "2025-01-08 09:22:11 +0000";
layers = (
{
layerId = m01;
shapes = (
{
closed = 1;
nodes = (
(81,511,l),
(81,628,l),
(192,628,ls),
(234,628,o),
(258,604,o),
(258,569,cs),
(258,535,o),
(236,511,o),
(195,511,cs)
);
},
{
closed = 1;
nodes = (
(168,477,l),
(292,285,l),
(336,285,l),
(212,478,l),
(261,483,o),
(296,519,o),
(296,569,cs),
(296,622,o),
(256,662,o),
(192,662,cs),
(43,662,l),
(43,285,l),
(81,285,l),
(81,477,l)
);
}
);
width = 345;
},
{
layerId = "4DE8B86A-429B-4593-9BC8-49866BB1A430";
shapes = (
{
closed = 1;
nodes = (
(55,501,l),
(55,650,l),
(185,650,ls),
(241,649,o),
(270,618,o),
(270,575,cs),
(270,532,o),
(241,501,o),
(190,501,cs)
);
},
{
closed = 1;
nodes = (
(170,489,l),
(301,285,l),
(319,285,l),
(187,489,l),
(257,489,o),
(284,528,o),
(284,576,cs),
(284,624,o),
(251,662,o),
(186,662,cs),
(42,662,l),
(42,285,l),
(55,285,l),
(55,489,l)
);
}
);
width = 325;
},
{
layerId = "0BE882A4-FC89-4865-8E81-154FB3EE808B";
shapes = (
{
closed = 1;
nodes = (
(120,528,l),
(120,591,l),
(202,591,ls),
(221,591,o),
(236,578,o),
(236,560,cs),
(236,539,o),
(226,528,o),
(203,528,cs)
);
},
{
closed = 1;
nodes = (
(165,456,l),
(274,285,l),
(363,285,l),
(249,464,l),
(287,480,o),
(312,517,o),
(312,559,cs),
(312,617,o),
(268,662,o),
(200,662,cs),
(43,662,l),
(43,285,l),
(120,285,l),
(120,456,l)
);
}
);
width = 372;
},
{
layerId = "9C2CFEA6-85BB-4338-BB26-B1BEA40B5780";
shapes = (
{
closed = 1;
nodes = (
(126,531,l),
(126,585,l),
(204,585,ls),
(219,585,o),
(232,574,o),
(232,558,cs),
(232,540,o),
(224,531,o),
(204,531,cs)
);
},
{
closed = 1;
nodes = (
(164,453,l),
(271,285,l),
(368,285,l),
(255,462,l),
(290,479,o),
(315,517,o),
(315,557,cs),
(315,617,o),
(268,662,o),
(202,662,cs),
(43,662,l),
(43,285,l),
(126,285,l),
(126,453,l)
);
}
);
width = 376;
}
);
note = Rsuperior;
},
{
glyphname = Vsuperior;
lastChange = "2025-01-08 09:23:44 +0000";
layers = (
{
layerId = m01;
shapes = (
{
closed = 1;
nodes = (
(192,285,l),
(338,662,l),
(298,662,l),
(175,342,l),
(51,662,l),
(11,662,l),
(157,285,l)
);
}
);
width = 349;
},
{
layerId = "4DE8B86A-429B-4593-9BC8-49866BB1A430";
shapes = (
{
closed = 1;
nodes = (
(162,285,l),
(308,662,l),
(293,662,l),
(159,312,l),
(23,662,l),
(9,662,l),
(156,285,l)
);
}
);
width = 317;
},
{
layerId = "0BE882A4-FC89-4865-8E81-154FB3EE808B";
shapes = (
{
closed = 1;
nodes = (
(238,285,l),
(383,662,l),
(301,662,l),
(197,393,l),
(93,662,l),
(11,662,l),
(156,285,l)
);
}
);
width = 394;
},
{
layerId = "9C2CFEA6-85BB-4338-BB26-B1BEA40B5780";
shapes = (
{
closed = 1;
nodes = (
(245,285,l),
(391,662,l),
(302,662,l),
(201,400,l),
(100,662,l),
(11,662,l),
(156,285,l)
);
}
);
width = 401;
}
);
note = Vsuperior;
},
{
glyphname = Wsuperior;
lastChange = "2025-01-07 22:23:43 +0000";
layers = (
{
layerId = m01;
shapes = (
{
closed = 1;
nodes = (
(81,357,l),
(81,662,l),
(43,662,l),
(43,285,l),
(86,285,l),
(228,555,l),
(372,285,l),
(414,285,l),
(414,662,l),
(376,662,l),
(376,358,l),
(228,636,l)
);
}
);
width = 457;
},
{
layerId = "4DE8B86A-429B-4593-9BC8-49866BB1A430";
shapes = (
{
closed = 1;
nodes = (
(55,313,l),
(55,662,l),
(42,662,l),
(42,285,l),
(57,285,l),
(226,596,l),
(397,285,l),
(411,285,l),
(411,662,l),
(397,662,l),
(397,315,l),
(226,625,l)
);
}
);
width = 452;
},
{
layerId = "0BE882A4-FC89-4865-8E81-154FB3EE808B";
shapes = (
{
closed = 1;
nodes = (
(120,430,l),
(120,662,l),
(43,662,l),
(43,285,l),
(131,285,l),
(230,489,l),
(330,285,l),
(417,285,l),
(417,662,l),
(340,662,l),
(340,431,l),
(230,655,l)
);
}
);
width = 460;
},
{
layerId = "9C2CFEA6-85BB-4338-BB26-B1BEA40B5780";
shapes = (
{
closed = 1;
nodes = (
(127,443,l),
(127,662,l),
(43,662,l),
(43,285,l),
(138,285,l),
(230,479,l),
(323,285,l),
(418,285,l),
(418,662,l),
(334,662,l),
(334,443,l),
(230,659,l)
);
}
);
width = 461;
}
);
note = Wsuperior;
},
{
glyphname = Xsuperior;
lastChange = "2025-01-08 09:23:44 +0000";
layers = (
{
layerId = m01;
shapes = (
{
closed = 1;
nodes = (
(170,485,l),
(8,285,l),
(55,285,l),
(194,457,l),
(333,285,l),
(380,285,l),
(218,484,l),
(364,662,l),
(316,662,l),
(195,513,l),
(74,662,l),
(27,662,l)
);
}
);
width = 388;
},
{
layerId = "4DE8B86A-429B-4593-9BC8-49866BB1A430";
shapes = (
{
closed = 1;
nodes = (
(169,489,l),
(6,285,l),
(22,285,l),
(177,478,l),
(334,285,l),
(351,285,l),
(187,486,l),
(331,662,l),
(314,662,l),
(179,497,l),
(45,662,l),
(28,662,l)
);
}
);
width = 357;
},
{
layerId = "0BE882A4-FC89-4865-8E81-154FB3EE808B";
shapes = (
{
closed = 1;
nodes = (
(169,481,l),
(8,285,l),
(104,285,l),
(217,422,l),
(329,285,l),
(424,285,l),
(266,480,l),
(413,662,l),
(316,662,l),
(218,539,l),
(118,662,l),
(22,662,l)
);
}
);
width = 432;
},
{
layerId = "9C2CFEA6-85BB-4338-BB26-B1BEA40B5780";
shapes = (
{
closed = 1;
nodes = (
(169,480,l),
(8,285,l),
(112,285,l),
(221,416,l),
(328,285,l),
(432,285,l),
(274,479,l),
(421,662,l),
(316,662,l),
(222,543,l),
(126,662,l),
(21,662,l)
);
}
);
width = 440;
}
);
note = Xsuperior;
},
{
glyphname = ordfeminine;
kernLeft = ordfeminine;
lastChange = "2025-01-07 22:50:49 +0000";
layers = (
{
layerId = m01;
shapes = (
{
closed = 1;
nodes = (
(202,416,o),
(250,449,o),
(250,501,c),
(229,501,l),
(229,420,l),
(290,420,l),
(290,623,ls),
(290,690,o),
(235,737,o),
(168,737,cs),
(112,737,o),
(72,708,o),
(55,687,c),
(96,652,l),
(101,656,ls),
(121,673,o),
(143,686,o),
(168,686,cs),
(204,686,o),
(229,662,o),
(229,623,cs),
(229,609,l),
(210,612,o),
(193,614,o),
(178,614,cs),
(97,614,o),
(35,583,o),
(35,507,cs),
(35,464,o),
(73,416,o),
(141,416,cs)
);
},
{
closed = 1;
nodes = (
(110,467,o),
(95,483,o),
(95,507,cs),
(95,552,o),
(123,567,o),
(187,567,cs),
(200,567,o),
(210,566,o),
(229,563,c),
(228,500,o),
(196,467,o),
(141,467,cs)
);
}
);
width = 352;
},
{
layerId = "4DE8B86A-429B-4593-9BC8-49866BB1A430";
shapes = (
{
closed = 1;
nodes = (
(216,410,o),
(260,453,o),
(260,520,c),
(251,520,l),
(251,415,l),
(297,415,l),
(297,627,ls),
(296,692,o),
(241,741,o),
(173,741,cs),
(116,741,o),
(80,714,o),
(63,697,c),
(94,672,l),
(99,675,ls),
(126,691,o),
(146,702,o),
(173,702,cs),
(218,702,o),
(251,675,o),
(251,627,cs),
(251,606,l),
(220,610,o),
(198,612,o),
(185,611,cs),
(102,607,o),
(41,574,o),
(41,499,cs),
(41,458,o),
(82,410,o),
(147,410,cs)
);
},
{
closed = 1;
nodes = (
(108,445,o),
(91,465,o),
(91,496,cs),
(91,555,o),
(124,573,o),
(205,573,cs),
(220,573,o),
(234,571,o),
(251,569,c),
(247,488,o),
(212,445,o),
(145,445,cs)
);
}
);
width = 359;
},
{
layerId = "0BE882A4-FC89-4865-8E81-154FB3EE808B";
shapes = (
{
closed = 1;
nodes = (
(176,424,o),
(215,443,o),
(215,487,c),
(197,487,l),
(197,428,l),
(280,428,l),
(280,617,ls),
(279,686,o),
(227,732,o),
(160,732,cs),
(107,732,o),
(69,707,o),
(42,670,c),
(99,622,l),
(104,628,ls),
(120,651,o),
(137,661,o),
(160,661,cs),
(183,661,o),
(197,643,o),
(197,618,cs),
(197,614,l),
(192,615,o),
(182,617,o),
(169,618,cs),
(86,625,o),
(25,597,o),
(25,520,cs),
(25,470,o),
(65,424,o),
(131,424,cs)
);
},
{
closed = 1;
nodes = (
(113,500,o),
(102,511,o),
(102,524,cs),
(102,549,o),
(121,557,o),
(160,557,cs),
(172,557,o),
(185,557,o),
(197,556,c),
(197,521,o),
(173,500,o),
(134,500,cs)
);
}
);
width = 342;
},
{
layerId = "9C2CFEA6-85BB-4338-BB26-B1BEA40B5780";
shapes = (
{
closed = 1;
nodes = (
(173,426,o),
(215,446,o),
(215,487,c),
(191,487,l),
(191,428,l),
(278,428,l),
(278,616,ls),
(277,685,o),
(226,731,o),
(159,731,cs),
(106,731,o),
(68,705,o),
(41,668,c),
(100,617,l),
(105,624,ls),
(121,647,o),
(136,657,o),
(159,657,cs),
(180,657,o),
(191,641,o),
(191,617,cs),
(191,615,l),
(187,616,o),
(179,618,o),
(167,619,cs),
(84,626,o),
(24,600,o),
(24,521,cs),
(24,473,o),
(61,426,o),
(129,426,cs)
);
},
{
closed = 1;
nodes = (
(113,505,o),
(103,516,o),
(103,527,cs),
(103,548,o),
(121,555,o),
(156,555,cs),
(168,555,o),
(179,555,o),
(191,554,c),
(192,523,o),
(169,505,o),
(133,505,cs)
);
}
);
width = 340;
}
);
note = ordfeminine;
unicode = 170;
},
{
glyphname = ordmasculine;
kernLeft = ordmasculine;
lastChange = "2025-01-07 22:29:37 +0000";
layers = (
{
layerId = m01;
shapes = (
{
closed = 1;
nodes = (
(279,414,o),
(354,487,o),
(354,575,cs),
(354,658,o),
(284,737,o),
(190,737,cs),
(100,737,o),
(25,664,o),
(25,575,cs),
(25,488,o),
(100,414,o),
(190,414,cs)
);
},
{
closed = 1;
nodes = (
(138,465,o),
(86,511,o),
(86,575,cs),
(86,636,o),
(135,686,o),
(190,686,cs),
(245,686,o),
(292,636,o),
(292,575,cs),
(292,516,o),
(245,465,o),
(190,465,cs)
);
}
);
width = 380;
},
{
layerId = "4DE8B86A-429B-4593-9BC8-49866BB1A430";
shapes = (
{
closed = 1;
nodes = (
(289,409,o),
(360,492,o),
(360,575,cs),
(360,665,o),
(283,742,o),
(190,742,cs),
(102,742,o),
(21,668,o),
(21,575,cs),
(21,480,o),
(102,409,o),
(190,409,cs)
);
},
{
closed = 1;
nodes = (
(123,443,o),
(66,504,o),
(66,575,cs),
(66,651,o),
(130,707,o),
(190,707,cs),
(255,707,o),
(312,647,o),
(312,575,cs),
(312,508,o),
(259,443,o),
(190,443,cs)
);
}
);
width = 381;
},
{
layerId = "0BE882A4-FC89-4865-8E81-154FB3EE808B";
shapes = (
{
closed = 1;
nodes = (
(276,421,o),
(344,491,o),
(344,576,cs),
(344,660,o),
(276,730,o),
(189,730,cs),
(99,730,o),
(33,656,o),
(33,575,cs),
(33,494,o),
(98,421,o),
(189,421,cs)
);
},
{
closed = 1;
nodes = (
(149,497,o),
(116,532,o),
(116,575,cs),
(116,620,o),
(149,653,o),
(189,653,cs),
(229,653,o),
(262,620,o),
(262,575,cs),
(262,533,o),
(228,497,o),
(189,497,cs)
);
}
);
width = 379;
},
{
layerId = "9C2CFEA6-85BB-4338-BB26-B1BEA40B5780";
shapes = (
{
closed = 1;
nodes = (
(269,422,o),
(342,487,o),
(342,576,cs),
(342,661,o),
(274,729,o),
(189,729,cs),
(100,729,o),
(34,656,o),
(34,575,cs),
(34,495,o),
(99,422,o),
(189,422,cs)
);
},
{
closed = 1;
nodes = (
(153,503,o),
(121,534,o),
(121,575,cs),
(121,617,o),
(153,648,o),
(189,648,cs),
(227,648,o),
(257,617,o),
(257,575,cs),
(257,534,o),
(225,503,o),
(189,503,cs)
);
}
);
width = 379;
}
);
note = ordmasculine;
unicode = 186;
},
{
glyphname = Delta;
lastChange = "2025-01-07 22:23:43 +0000";
layers = (
{
layerId = m01;
shapes = (
{
closed = 1;
nodes = (
(573,0,l),
(304,652,l),
(33,0,l)
);
},
{
closed = 1;
nodes = (
(304,482,l),
(478,60,l),
(128,60,l)
);
}
);
width = 566;
},
{
layerId = "4DE8B86A-429B-4593-9BC8-49866BB1A430";
shapes = (
{
closed = 1;
nodes = (
(555,-3,l),
(304,608,l),
(51,-3,l)
);
},
{
closed = 1;
nodes = (
(304,556,l),
(527,15,l),
(78,15,l)
);
}
);
width = 566;
},
{
layerId = "0BE882A4-FC89-4865-8E81-154FB3EE808B";
shapes = (
{
closed = 1;
nodes = (
(599,4,l),
(304,719,l),
(7,4,l)
);
},
{
closed = 1;
nodes = (
(304,371,l),
(404,128,l),
(202,128,l)
);
}
);
width = 566;
},
{
layerId = "9C2CFEA6-85BB-4338-BB26-B1BEA40B5780";
shapes = (
{
closed = 1;
nodes = (
(604,5,l),
(304,730,l),
(2,5,l)
);
},
{
closed = 1;
nodes = (
(304,352,l),
(392,139,l),
(215,139,l)
);
}
);
width = 566;
}
);
note = uni0394;
unicode = 916;
},
{
glyphname = Omega;
lastChange = "2025-01-07 22:45:35 +0000";
layers = (
{
layerId = m01;
shapes = (
{
closed = 1;
nodes = (
(271,0,l),
(271,54,l),
(196,92,o),
(134,199,o),
(134,302,cs),
(134,486,o),
(270,597,o),
(394,597,cs),
(558,597,o),
(653,440,o),
(653,302,cs),
(653,191,o),
(586,87,o),
(518,54,c),
(516,0,l),
(759,0,l),
(759,60,l),
(624,60,l),
(683,123,o),
(720,214,o),
(720,302,cs),
(720,512,o),
(561,657,o),
(394,657,cs),
(179,657,o),
(68,456,o),
(68,302,cs),
(68,214,o),
(106,124,o),
(163,60,c),
(28,60,l),
(28,0,l)
);
}
);
width = 787;
},
{
layerId = "4DE8B86A-429B-4593-9BC8-49866BB1A430";
shapes = (
{
closed = 1;
nodes = (
(255,1,l),
(255,8,l),
(164,47,o),
(90,179,o),
(90,300,cs),
(90,523,o),
(242,657,o),
(394,657,cs),
(593,657,o),
(698,465,o),
(698,300,cs),
(698,180,o),
(621,45,o),
(535,8,c),
(532,1,l),
(760,1,l),
(760,24,l),
(600,24,l),
(672,93,o),
(718,197,o),
(718,300,cs),
(718,532,o),
(555,675,o),
(394,675,cs),
(179,675,o),
(70,469,o),
(70,300,cs),
(70,197,o),
(116,94,o),
(187,25,c),
(27,24,l),
(27,1,l)
);
}
);
width = 787;
},
{
layerId = "0BE882A4-FC89-4865-8E81-154FB3EE808B";
shapes = (
{
closed = 1;
nodes = (
(296,-1,l),
(296,124,l),
(243,156,o),
(200,231,o),
(200,305,cs),
(200,409,o),
(291,506,o),
(394,506,cs),
(497,506,o),
(587,409,o),
(587,305,cs),
(587,223,o),
(541,153,o),
(492,124,c),
(492,-1,l),
(758,-1,l),
(758,114,l),
(660,114,l),
(699,167,o),
(722,240,o),
(722,305,cs),
(722,480,o),
(569,631,o),
(394,631,cs),
(193,631,o),
(65,454,o),
(65,305,cs),
(65,238,o),
(89,167,o),
(128,114,c),
(29,114,l),
(29,-1,l)
);
}
);
width = 787;
},
{
layerId = "9C2CFEA6-85BB-4338-BB26-B1BEA40B5780";
shapes = (
{
closed = 1;
nodes = (
(299,-1,l),
(299,135,l),
(251,168,o),
(211,236,o),
(211,306,cs),
(211,398,o),
(299,491,o),
(394,491,cs),
(489,491,o),
(576,399,o),
(576,306,cs),
(576,228,o),
(535,166,o),
(488,135,c),
(489,-1,l),
(758,-1,l),
(758,123,l),
(665,123,l),
(701,175,o),
(723,245,o),
(723,306,cs),
(723,493,o),
(551,626,o),
(394,626,cs),
(185,626,o),
(65,441,o),
(65,306,cs),
(65,243,o),
(87,175,o),
(123,124,c),
(29,123,l),
(29,-1,l)
);
}
);
width = 787;
}
);
note = uni03A9;
unicode = 937;
},
{
glyphname = mu;
lastChange = "2025-01-07 22:29:37 +0000";
layers = (
{
layerId = m01;
shapes = (
{
closed = 1;
nodes = (
(157,-224,l),
(157,34,l),
(187,10,o),
(226,-2,o),
(275,-2,cs),
(332,-2,o),
(376,19,o),
(404,54,c),
(429,19,o),
(466,1,o),
(515,1,c),
(515,61,l),
(460,61,o),
(442,105,o),
(442,148,cs),
(442,448,l),
(376,448,l),
(376,168,ls),
(376,103,o),
(342,58,o),
(275,58,cs),
(212,58,o),
(178,88,o),
(166,132,cs),
(160,154,o),
(157,179,o),
(157,208,cs),
(157,448,l),
(91,448,l),
(91,-224,l)
);
}
);
width = 566;
},
{
layerId = "4DE8B86A-429B-4593-9BC8-49866BB1A430";
shapes = (
{
closed = 1;
nodes = (
(122,-225,l),
(122,67,l),
(157,32,o),
(207,14,o),
(273,14,cs),
(340,14,o),
(386,40,o),
(411,84,c),
(428,43,o),
(460,20,o),
(505,15,c),
(505,25,l),
(446,44,o),
(427,104,o),
(427,151,cs),
(427,449,l),
(407,449,l),
(407,170,ls),
(407,89,o),
(360,31,o),
(273,31,cs),
(197,31,o),
(154,69,o),
(136,118,cs),
(127,142,o),
(122,167,o),
(122,192,cs),
(122,449,l),
(101,449,l),
(101,-225,l)
);
}
);
width = 566;
},
{
layerId = "0BE882A4-FC89-4865-8E81-154FB3EE808B";
shapes = (
{
closed = 1;
nodes = (
(210,-223,l),
(210,-16,l),
(231,-22,o),
(254,-25,o),
(278,-25,cs),
(323,-25,o),
(361,-13,o),
(392,8,c),
(427,-19,o),
(473,-28,o),
(530,-20,c),
(530,115,l),
(481,87,o),
(465,107,o),
(465,144,cs),
(465,447,l),
(330,447,l),
(330,165,ls),
(331,122,o),
(314,100,o),
(278,100,cs),
(234,100,o),
(217,119,o),
(213,152,cs),
(210,169,o),
(209,196,o),
(209,233,cs),
(210,447,l),
(76,447,l),
(76,-223,l)
);
}
);
width = 566;
},
{
layerId = "9C2CFEA6-85BB-4338-BB26-B1BEA40B5780";
shapes = (
{
closed = 1;
nodes = (
(218,-223,l),
(218,-24,l),
(239,-27,o),
(259,-29,o),
(279,-29,cs),
(323,-29,o),
(361,-19,o),
(390,1,c),
(427,-24,o),
(474,-33,o),
(533,-24,c),
(533,124,l),
(484,91,o),
(469,107,o),
(469,143,cs),
(468,447,l),
(322,447,l),
(322,165,ls),
(323,125,o),
(310,107,o),
(279,107,cs),
(238,107,o),
(224,123,o),
(221,154,cs),
(219,169,o),
(218,197,o),
(218,237,cs),
(218,447,l),
(73,447,l),
(73,-223,l)
);
}
);
width = 566;
}
);
note = uni03BC;
unicode = 956;
},
{
glyphname = pi;
lastChange = "2025-01-07 22:29:37 +0000";
layers = (
{
layerId = m01;
shapes = (
{
closed = 1;
nodes = (
(168,0,l),
(168,385,l),
(378,385,l),
(378,148,ls),
(378,112,o),
(390,62,o),
(431,27,cs),
(452,9,o),
(481,0,o),
(518,0,c),
(518,60,l),
(462,60,o),
(444,105,o),
(444,148,cs),
(444,385,l),
(551,385,l),
(551,445,l),
(15,445,l),
(15,385,l),
(102,385,l),
(102,0,l)
);
}
);
width = 566;
},
{
layerId = "4DE8B86A-429B-4593-9BC8-49866BB1A430";
shapes = (
{
closed = 1;
nodes = (
(135,8,l),
(135,420,l),
(410,420,l),
(410,143,ls),
(410,111,o),
(418,70,o),
(448,38,cs),
(463,21,o),
(483,11,o),
(509,6,c),
(510,16,l),
(449,35,o),
(430,96,o),
(430,143,cs),
(430,420,l),
(544,420,l),
(544,437,l),
(22,437,l),
(22,420,l),
(114,420,l),
(114,8,l)
);
}
);
width = 566;
},
{
layerId = "0BE882A4-FC89-4865-8E81-154FB3EE808B";
shapes = (
{
closed = 1;
nodes = (
(218,-11,l),
(218,332,l),
(330,332,l),
(330,156,ls),
(330,113,o),
(346,50,o),
(406,10,cs),
(435,-10,o),
(477,-16,o),
(530,-8,c),
(530,126,l),
(482,98,o),
(465,119,o),
(465,156,cs),
(465,332,l),
(560,332,l),
(560,456,l),
(6,456,l),
(6,332,l),
(83,332,l),
(83,-11,l)
);
}
);
width = 566;
},
{
layerId = "9C2CFEA6-85BB-4338-BB26-B1BEA40B5780";
shapes = (
{
closed = 1;
nodes = (
(226,-13,l),
(226,324,l),
(322,324,l),
(322,156,ls),
(323,113,o),
(340,48,o),
(402,8,cs),
(433,-13,o),
(476,-18,o),
(532,-9,c),
(532,137,l),
(485,105,o),
(469,120,o),
(469,157,cs),
(469,324,l),
(562,324,l),
(562,458,l),
(4,458,l),
(4,324,l),
(80,324,l),
(80,-13,l)
);
}
);
width = 566;
}
);
note = pi;
unicode = 960;
},
{
glyphname = zero;
kernLeft = zero;
kernRight = zero;
lastChange = "2025-01-07 23:09:47 +0000";
layers = (
{
layerId = m01;
shapes = (
{
closed = 1;
nodes = (
(459,-6,o),
(518,175,o),
(518,332,cs),
(518,559,o),
(413,665,o),
(288,665,cs),
(116,665,o),
(57,489,o),
(57,332,cs),
(57,105,o),
(165,-6,o),
(288,-6,cs)
);
},
{
closed = 1;
nodes = (
(166,55,o),
(123,205,o),
(123,332,cs),
(123,516,o),
(196,604,o),
(288,604,cs),
(414,604,o),
(452,455,o),
(452,332,cs),
(452,149,o),
(377,55,o),
(288,55,cs)
);
}
);
width = 574;
},
{
layerId = "4DE8B86A-429B-4593-9BC8-49866BB1A430";
shapes = (
{
closed = 1;
nodes = (
(451,-7,o),
(512,171,o),
(512,332,cs),
(512,559,o),
(410,666,o),
(288,666,cs),
(122,666,o),
(62,489,o),
(62,332,cs),
(62,105,o),
(166,-7,o),
(288,-7,cs)
);
},
{
closed = 1;
nodes = (
(141,13,o),
(86,180,o),
(86,332,cs),
(86,547,o),
(177,646,o),
(288,646,cs),
(439,646,o),
(488,482,o),
(488,332,cs),
(488,120,o),
(397,13,o),
(288,13,cs)
);
}
);
width = 574;
},
{
layerId = "0BE882A4-FC89-4865-8E81-154FB3EE808B";
shapes = (
{
closed = 1;
nodes = (
(503,-5,o),
(571,168,o),
(571,332,cs),
(571,567,o),
(452,664,o),
(308,664,cs),
(111,664,o),
(43,495,o),
(43,332,cs),
(43,115,o),
(150,-5,o),
(308,-5,cs)
);
},
{
closed = 1;
nodes = (
(206,119,o),
(178,230,o),
(178,332,cs),
(178,480,o),
(231,539,o),
(308,539,cs),
(410,539,o),
(436,434,o),
(436,332,cs),
(436,186,o),
(384,119,o),
(308,119,cs)
);
}
);
width = 614;
},
{
layerId = "9C2CFEA6-85BB-4338-BB26-B1BEA40B5780";
shapes = (
{
closed = 1;
nodes = (
(466,-5,o),
(573,115,o),
(573,332,cs),
(573,550,o),
(465,664,o),
(308,664,cs),
(110,664,o),
(41,496,o),
(41,332,cs),
(41,97,o),
(163,-5,o),
(308,-5,cs)
);
},
{
closed = 1;
nodes = (
(211,129,o),
(188,243,o),
(188,332,cs),
(188,469,o),
(234,529,o),
(308,529,cs),
(403,529,o),
(427,429,o),
(427,332,cs),
(427,193,o),
(378,129,o),
(308,129,cs)
);
}
);
width = 614;
}
);
note = zero;
unicode = 48;
},
{
glyphname = one;
kernLeft = one;
kernRight = one;
lastChange = "2025-01-07 22:23:43 +0000";
layers = (
{
layerId = m01;
shapes = (
{
closed = 1;
nodes = (
(473,0,l),
(473,60,l),
(280,60,l),
(280,660,l),
(220,660,l),
(41,584,l),
(41,516,l),
(225,594,l),
(214,603,l),
(214,60,l),
(23,60,l),
(23,0,l)
);
}
);
width = 496;
},
{
layerId = "4DE8B86A-429B-4593-9BC8-49866BB1A430";
shapes = (
{
closed = 1;
nodes = (
(449,0,l),
(449,24,l),
(248,24,l),
(248,660,l),
(223,660,l),
(32,562,l),
(32,539,l),
(237,644,l),
(224,655,l),
(224,24,l),
(23,24,l),
(23,0,l)
);
}
);
width = 471;
},
{
layerId = "0BE882A4-FC89-4865-8E81-154FB3EE808B";
shapes = (
{
closed = 1;
nodes = (
(509,0,l),
(509,125,l),
(332,125,l),
(332,660,l),
(215,660,l),
(38,560,l),
(38,419,l),
(207,511,l),
(198,526,l),
(198,125,l),
(23,125,l),
(23,0,l)
);
}
);
width = 533;
},
{
layerId = "9C2CFEA6-85BB-4338-BB26-B1BEA40B5780";
shapes = (
{
closed = 1;
nodes = (
(514,0,l),
(514,136,l),
(340,136,l),
(340,660,l),
(214,660,l),
(33,560,l),
(33,406,l),
(204,497,l),
(195,512,l),
(195,136,l),
(23,136,l),
(23,0,l)
);
}
);
width = 539;
}
);
note = one;
unicode = 49;
},
{
glyphname = two;
kernLeft = two;
kernRight = two;
lastChange = "2025-01-07 23:12:41 +0000";
layers = (
{
layerId = m01;
shapes = (
{
closed = 1;
nodes = (
(17,0,l),
(434,0,l),
(434,60,l),
(102,60,l),
(185,147,ls),
(288,255,o),
(344,316,o),
(377,361,cs),
(444,453,o),
(427,558,o),
(353,620,cs),
(316,651,o),
(271,666,o),
(218,666,cs),
(130,666,o),
(55,609,o),
(29,530,c),
(94,509,l),
(113,564,o),
(161,600,o),
(218,600,cs),
(296,600,o),
(345,553,o),
(351,495,cs),
(355,464,o),
(346,431,o),
(323,400,cs),
(280,339,o),
(186,240,o),
(46,96,cs),
(36,86,o),
(27,76,o),
(17,66,c)
);
}
);
width = 449;
},
{
layerId = "4DE8B86A-429B-4593-9BC8-49866BB1A430";
shapes = (
{
closed = 1;
nodes = (
(16,0,l),
(412,0,l),
(412,24,l),
(47,24,l),
(139,123,ls),
(234,226,o),
(316,322,o),
(356,377,cs),
(419,465,o),
(405,563,o),
(334,622,cs),
(299,651,o),
(256,666,o),
(206,666,cs),
(130,666,o),
(69,624,o),
(35,561,c),
(56,549,l),
(87,608,o),
(141,642,o),
(206,642,cs),
(293,642,o),
(361,588,o),
(371,510,cs),
(376,471,o),
(364,432,o),
(337,393,cs),
(298,338,o),
(207,231,o),
(114,128,cs),
(79,89,o),
(46,54,o),
(16,24,c)
);
}
);
width = 418;
},
{
layerId = "0BE882A4-FC89-4865-8E81-154FB3EE808B";
shapes = (
{
closed = 1;
nodes = (
(19,0,l),
(467,0,l),
(467,130,l),
(207,130,l),
(270,189,ls),
(333,249,o),
(382,299,o),
(409,338,cs),
(480,435,o),
(461,548,o),
(381,616,cs),
(341,649,o),
(293,666,o),
(237,666,cs),
(128,666,o),
(38,586,o),
(24,486,c),
(155,443,l),
(156,498,o),
(190,537,o),
(237,537,cs),
(277,537,o),
(306,515,o),
(315,485,cs),
(322,463,o),
(318,438,o),
(300,413,cs),
(269,370,o),
(217,320,o),
(125,233,cs),
(74,185,o),
(38,151,o),
(19,130,c)
);
}
);
width = 495;
},
{
layerId = "9C2CFEA6-85BB-4338-BB26-B1BEA40B5780";
shapes = (
{
closed = 1;
nodes = (
(19,0,l),
(473,0,l),
(473,140,l),
(224,140,l),
(284,195,ls),
(345,252,o),
(390,297,o),
(415,334,cs),
(486,433,o),
(466,547,o),
(385,615,cs),
(344,649,o),
(296,666,o),
(240,666,cs),
(128,666,o),
(35,583,o),
(23,478,c),
(166,432,l),
(165,487,o),
(196,526,o),
(240,526,cs),
(281,526,o),
(308,501,o),
(312,469,cs),
(314,452,o),
(309,433,o),
(296,415,cs),
(267,375,o),
(217,327,o),
(129,246,cs),
(76,197,o),
(39,162,o),
(19,141,c)
);
}
);
width = 503;
}
);
note = two;
unicode = 50;
},
{
glyphname = three;
kernLeft = three;
kernRight = three;
lastChange = "2025-01-07 23:14:29 +0000";
layers = (
{
layerId = m01;
shapes = (
{
closed = 1;
nodes = (
(323,-3,o),
(411,83,o),
(411,196,cs),
(411,324,o),
(323,381,o),
(240,381,c),
(240,354,l),
(321,354,o),
(372,425,o),
(372,499,cs),
(372,593,o),
(293,664,o),
(205,664,cs),
(116,664,o),
(56,607,o),
(43,538,c),
(107,527,l),
(116,570,o),
(156,600,o),
(205,600,cs),
(262,600,o),
(306,558,o),
(306,499,cs),
(306,430,o),
(270,392,o),
(174,392,c),
(174,338,l),
(290,338,o),
(345,283,o),
(345,196,cs),
(345,117,o),
(289,61,o),
(205,61,cs),
(144,61,o),
(102,89,o),
(73,150,c),
(13,123,l),
(48,44,o),
(123,-3,o),
(205,-3,cs)
);
}
);
width = 438;
},
{
layerId = "4DE8B86A-429B-4593-9BC8-49866BB1A430";
shapes = (
{
closed = 1;
nodes = (
(304,-3,o),
(388,78,o),
(388,187,cs),
(388,303,o),
(299,375,o),
(195,375,c),
(196,363,l),
(281,363,o),
(343,425,o),
(343,511,cs),
(343,601,o),
(270,664,o),
(191,664,cs),
(119,664,o),
(63,618,o),
(51,571,c),
(73,568,l),
(89,613,o),
(136,640,o),
(191,640,cs),
(265,640,o),
(322,583,o),
(322,511,cs),
(322,430,o),
(274,378,o),
(165,378,c),
(165,360,l),
(301,359,o),
(367,283,o),
(367,187,cs),
(367,90,o),
(296,21,o),
(191,21,cs),
(124,21,o),
(76,42,o),
(33,111,c),
(16,101,l),
(56,24,o),
(123,-3,o),
(191,-3,cs)
);
}
);
width = 414;
},
{
layerId = "0BE882A4-FC89-4865-8E81-154FB3EE808B";
shapes = (
{
closed = 1;
nodes = (
(356,-3,o),
(446,94,o),
(446,210,cs),
(446,328,o),
(383,384,o),
(258,384,c),
(259,345,l),
(370,345,o),
(416,422,o),
(416,481,cs),
(416,585,o),
(349,664,o),
(224,664,cs),
(113,664,o),
(48,592,o),
(32,487,c),
(158,466,l),
(157,505,o),
(184,538,o),
(224,538,cs),
(264,538,o),
(284,513,o),
(284,481,cs),
(284,436,o),
(256,414,o),
(189,414,c),
(188,305,l),
(276,305,o),
(312,267,o),
(312,210,cs),
(312,158,o),
(277,123,o),
(224,123,cs),
(168,123,o),
(140,161,o),
(132,208,c),
(9,156,l),
(30,64,o),
(130,-3,o),
(224,-3,cs)
);
}
);
width = 474;
},
{
layerId = "9C2CFEA6-85BB-4338-BB26-B1BEA40B5780";
shapes = (
{
closed = 1;
nodes = (
(366,-3,o),
(452,82,o),
(452,213,cs),
(452,327,o),
(369,396,o),
(247,396,c),
(248,332,l),
(353,332,o),
(423,406,o),
(423,488,cs),
(423,591,o),
(353,664,o),
(228,664,cs),
(112,664,o),
(47,590,o),
(30,478,c),
(166,455,l),
(166,494,o),
(188,528,o),
(228,528,cs),
(261,528,o),
(280,507,o),
(280,478,cs),
(280,437,o),
(255,418,o),
(191,418,c),
(191,299,l),
(275,299,o),
(306,264,o),
(306,213,cs),
(306,165,o),
(276,133,o),
(228,133,cs),
(171,133,o),
(142,175,o),
(142,218,c),
(8,162,l),
(26,68,o),
(131,-3,o),
(228,-3,cs)
);
}
);
width = 480;
}
);
note = three;
unicode = 51;
},
{
glyphname = four;
kernLeft = four;
kernRight = four;
lastChange = "2025-01-07 22:23:43 +0000";
layers = (
{
layerId = m01;
shapes = (
{
closed = 1;
nodes = (
(436,0,l),
(436,143,l),
(528,143,l),
(528,213,l),
(436,213,l),
(436,660,l),
(370,660,l),
(35,205,l),
(35,143,l),
(370,143,l),
(370,0,l)
);
},
{
closed = 1;
nodes = (
(370,565,l),
(370,213,l),
(117,213,l)
);
}
);
width = 553;
},
{
layerId = "4DE8B86A-429B-4593-9BC8-49866BB1A430";
shapes = (
{
closed = 1;
nodes = (
(420,0,l),
(420,153,l),
(507,153,l),
(507,178,l),
(420,178,l),
(420,660,l),
(389,660,l),
(27,179,l),
(27,153,l),
(396,153,l),
(396,0,l)
);
},
{
closed = 1;
nodes = (
(396,632,l),
(396,178,l),
(57,178,l)
);
}
);
width = 528;
},
{
layerId = "0BE882A4-FC89-4865-8E81-154FB3EE808B";
shapes = (
{
closed = 1;
nodes = (
(465,0,l),
(465,127,l),
(559,127,l),
(559,260,l),
(465,260,l),
(465,660,l),
(336,660,l),
(41,237,l),
(41,127,l),
(330,127,l),
(330,0,l)
);
},
{
closed = 1;
nodes = (
(330,465,l),
(330,260,l),
(208,260,l)
);
}
);
width = 590;
},
{
layerId = "9C2CFEA6-85BB-4338-BB26-B1BEA40B5780";
shapes = (
{
closed = 1;
nodes = (
(470,0,l),
(470,124,l),
(565,124,l),
(565,268,l),
(470,268,l),
(470,660,l),
(330,660,l),
(42,243,l),
(42,124,l),
(324,124,l),
(324,0,l)
);
},
{
closed = 1;
nodes = (
(324,448,l),
(324,268,l),
(223,268,l)
);
}
);
width = 596;
}
);
note = four;
unicode = 52;
},
{
glyphname = five;
kernLeft = five;
kernRight = five;
lastChange = "2025-01-07 23:14:01 +0000";
layers = (
{
layerId = m01;
shapes = (
{
closed = 1;
nodes = (
(296,-20,o),
(400,50,o),
(421,173,cs),
(439,287,o),
(359,395,o),
(243,415,cs),
(208,422,o),
(161,418,o),
(124,403,c),
(174,600,l),
(401,600,l),
(401,660,l),
(122,660,l),
(49,377,l),
(81,324,l),
(145,359,o),
(185,363,o),
(233,356,cs),
(316,341,o),
(368,259,o),
(356,182,cs),
(339,95,o),
(270,45,o),
(186,59,cs),
(134,68,o),
(100,91,o),
(76,131,c),
(20,100,l),
(51,48,o),
(103,12,o),
(175,0,cs)
);
}
);
width = 470;
},
{
layerId = "4DE8B86A-429B-4593-9BC8-49866BB1A430";
shapes = (
{
closed = 1;
nodes = (
(284,-20,o),
(379,52,o),
(397,165,cs),
(415,272,o),
(342,376,o),
(229,397,cs),
(188,405,o),
(125,400,o),
(81,380,c),
(139,639,l),
(376,639,l),
(376,660,l),
(123,660,l),
(57,372,l),
(69,354,l),
(130,383,o),
(173,386,o),
(225,378,cs),
(324,362,o),
(391,268,o),
(375,168,cs),
(359,65,o),
(274,2,o),
(167,20,cs),
(112,31,o),
(67,55,o),
(42,87,c),
(25,74,l),
(62,31,o),
(103,9,o),
(164,0,cs)
);
}
);
width = 445;
},
{
layerId = "0BE882A4-FC89-4865-8E81-154FB3EE808B";
shapes = (
{
closed = 1;
nodes = (
(323,-22,o),
(436,59,o),
(455,184,cs),
(475,305,o),
(388,423,o),
(265,441,cs),
(241,445,o),
(219,444,o),
(195,440,c),
(227,536,l),
(438,536,l),
(438,660,l),
(121,660,l),
(36,384,l),
(101,274,l),
(170,318,o),
(201,325,o),
(244,318,cs),
(296,309,o),
(331,253,o),
(323,204,cs),
(313,146,o),
(271,114,o),
(214,124,cs),
(167,131,o),
(150,149,o),
(127,202,c),
(12,140,l),
(35,73,o),
(103,16,o),
(192,0,cs)
);
}
);
width = 508;
},
{
layerId = "9C2CFEA6-85BB-4338-BB26-B1BEA40B5780";
shapes = (
{
closed = 1;
nodes = (
(325,-21,o),
(440,57,o),
(461,186,cs),
(481,305,o),
(398,425,o),
(269,446,cs),
(237,449,o),
(239,448,o),
(207,447,c),
(235,526,l),
(444,526,l),
(444,660,l),
(121,660,l),
(34,385,l),
(105,266,l),
(173,311,o),
(203,318,o),
(246,311,cs),
(290,305,o),
(325,256,o),
(317,207,cs),
(309,154,o),
(271,126,o),
(219,134,cs),
(174,141,o),
(159,158,o),
(136,214,c),
(12,146,l),
(31,78,o),
(103,16,o),
(195,0,cs)
);
}
);
width = 514;
}
);
note = five;
unicode = 53;
},
{
glyphname = six;
kernLeft = six;
kernRight = six;
lastChange = "2025-01-07 23:13:51 +0000";
layers = (
{
layerId = m01;
shapes = (
{
closed = 1;
nodes = (
(217,-31,o),
(338,1,o),
(391,94,cs),
(446,189,o),
(413,308,o),
(319,361,cs),
(266,392,o),
(181,386,o),
(126,346,c),
(161,346,l),
(343,660,l),
(267,660,l),
(53,290,ls),
(-1,198,o),
(30,76,o),
(124,22,cs)
);
},
{
closed = 1;
nodes = (
(96,116,o),
(74,194,o),
(109,256,cs),
(144,316,o),
(220,340,o),
(286,304,cs),
(348,267,o),
(369,191,o),
(334,127,cs),
(301,69,o),
(223,43,o),
(157,79,cs)
);
}
);
width = 438;
},
{
layerId = "4DE8B86A-429B-4593-9BC8-49866BB1A430";
shapes = (
{
closed = 1;
nodes = (
(226,-28,o),
(323,9,o),
(370,90,cs),
(421,177,o),
(389,292,o),
(301,343,cs),
(241,376,o),
(150,371,o),
(92,322,c),
(102,321,l),
(297,660,l),
(273,660,l),
(50,275,ls),
(-5,183,o),
(35,51,o),
(138,7,cs)
);
},
{
closed = 1;
nodes = (
(51,84,o),
(24,184,o),
(69,261,cs),
(112,336,o),
(210,365,o),
(290,321,cs),
(371,274,o),
(393,174,o),
(350,100,cs),
(310,27,o),
(211,-7,o),
(130,40,cs)
);
}
);
width = 413;
},
{
layerId = "0BE882A4-FC89-4865-8E81-154FB3EE808B";
shapes = (
{
closed = 1;
nodes = (
(200,-35,o),
(357,-17,o),
(424,102,cs),
(483,203,o),
(449,331,o),
(346,389,cs),
(300,413,o),
(228,418,o),
(168,373,c),
(228,343,l),
(412,660,l),
(259,660,l),
(58,313,ls),
(2,217,o),
(27,109,o),
(105,44,cs)
);
},
{
closed = 1;
nodes = (
(161,159,o),
(148,209,o),
(170,249,cs),
(194,291,o),
(244,299,o),
(280,278,cs),
(320,255,o),
(333,207,o),
(310,168,cs),
(287,128,o),
(236,116,o),
(199,139,cs)
);
}
);
width = 476;
},
{
layerId = "9C2CFEA6-85BB-4338-BB26-B1BEA40B5780";
shapes = (
{
closed = 1;
nodes = (
(197,-36,o),
(361,-19,o),
(430,103,cs),
(492,212,o),
(450,336,o),
(351,393,cs),
(300,422,o),
(230,417,o),
(174,378,c),
(239,343,l),
(423,660,l),
(258,660,l),
(59,316,ls),
(4,224,o),
(24,118,o),
(102,48,cs)
);
},
{
closed = 1;
nodes = (
(173,168,o),
(160,212,o),
(180,248,cs),
(200,282,o),
(241,295,o),
(279,274,cs),
(312,256,o),
(329,211,o),
(306,174,cs),
(285,139,o),
(241,128,o),
(206,149,cs)
);
}
);
width = 482;
}
);
note = six;
unicode = 54;
},
{
glyphname = seven;
kernLeft = seven;
kernRight = seven;
lastChange = "2025-01-07 22:23:43 +0000";
layers = (
{
layerId = m01;
shapes = (
{
closed = 1;
nodes = (
(384,594,l),
(70,594,l),
(70,660,l),
(499,660,l),
(109,0,l),
(33,0,l)
);
}
);
width = 508;
},
{
layerId = "4DE8B86A-429B-4593-9BC8-49866BB1A430";
shapes = (
{
closed = 1;
nodes = (
(423,636,l),
(69,636,l),
(69,660,l),
(460,660,l),
(70,0,l),
(46,0,l)
);
}
);
width = 470;
},
{
layerId = "0BE882A4-FC89-4865-8E81-154FB3EE808B";
shapes = (
{
closed = 1;
nodes = (
(326,531,l),
(62,531,l),
(62,660,l),
(557,660,l),
(167,0,l),
(13,0,l)
);
}
);
width = 566;
},
{
layerId = "9C2CFEA6-85BB-4338-BB26-B1BEA40B5780";
shapes = (
{
closed = 1;
nodes = (
(317,520,l),
(52,520,l),
(52,660,l),
(567,660,l),
(177,0,l),
(10,0,l)
);
}
);
width = 575;
}
);
note = seven;
unicode = 55;
},
